<svg xmlns="http://www.w3.org/2000/svg" width="220" height="189.025" viewBox="0 0 220 189.025">
    <defs>
        <clipPath id="0y1xdc1h7a">
            <path data-name="사각형 2030" style="fill:none" d="M0 0h24.024v24.366H0z"/>
        </clipPath>
    </defs>
    <g data-name="그룹 5082">
        <g data-name="패스 3709" style="fill:#d3a475;stroke-linecap:round">
            <path d="m256.685 363.851.372-1.685.066-.297.33-1.495c.368-1.66.747-3.376.574-5.024-.08-.758-.276-1.51-.484-2.308-.123-.47-.25-.958-.353-1.455-.167-.801-.269-1.609-.367-2.39-.134-1.058-.26-2.058-.534-3.017-.536-1.88-1.652-3.595-2.749-5.191a140.73 140.73 0 0 0-2.243-3.16c.075.18.152.36.23.543.294.694.598 1.411.837 2.146.651 2.007.783 4.097.91 6.118.129 2.03.25 3.946.858 5.743.079.234.166.471.26.723.475 1.285 1.014 2.743.506 4.249l-.739 2.188-1.09-2.036a26.468 26.468 0 0 1-2.977-9.75c-.054-.542-.092-1.088-.129-1.617-.073-1.058-.143-2.058-.337-3.038-.288-1.45-.846-2.844-1.436-4.32l-.111-.278c.227 1.75.521 3.492.88 5.217.136.65.284 1.313.427 1.954.165.736.335 1.498.49 2.254.05.246.168.824-.172 1.356a1.46 1.46 0 0 1-1.245.658c-.38 0-.752-.13-1.044-.364-.477-.384-.662-.927-.772-1.252-.887-2.601-1.847-5.691-2.24-8.881-.537-4.357-.024-8.716.489-12.936l-.441-1.38-.124-.388.182-.364.717-1.435.974-1.948.843 2.008.238.566a97.285 97.285 0 0 0 7.448 13.969c2.341 3.64 4.354 6.195 6.526 8.284 2.738 2.635 5.674 4.427 8.728 5.328 1.518.449 3.112.676 4.737.676 3.122 0 6.151-.825 8.76-2.386.286-.17.717-.429 1.258-.429a1.541 1.541 0 0 1 1.391.889 1.32 1.32 0 0 1-.098 1.305l-.174.255-.288.112c-1.669.655-3.206 1.566-4.833 2.53-1.746 1.035-3.551 2.105-5.53 2.824-.893.325-1.806.572-2.69.81-.539.147-1.097.298-1.632.463-2.117.65-4.197 1.611-6.208 2.54-2.035.94-4.14 1.912-6.344 2.601l-1.647.515z" style="stroke:none" transform="translate(-178.948 -258.169)"/>
            <path d="m246.12 323.386-.717 1.435.508 1.588c-.522 4.287-1.044 8.625-.516 12.91.366 2.968 1.23 5.852 2.194 8.682.1.292.212.6.452.794.241.194.654.208.82-.053.114-.178.077-.41.035-.617-.287-1.405-.622-2.8-.915-4.204a70.723 70.723 0 0 1-1.482-15.119c.003-.359.069-.804.41-.92.827 1.152.53 2.721.535 4.14.015 3.795 2.424 7.158 3.163 10.882.31 1.561.32 3.165.48 4.75a25.309 25.309 0 0 0 2.863 9.377c.479-1.418-.286-2.914-.766-4.332-1.285-3.801-.532-8.055-1.772-11.872-.776-2.39-2.335-4.696-1.966-7.182 1.668 2.238 3.338 4.477 4.919 6.777 1.175 1.71 2.316 3.488 2.886 5.483.509 1.782.54 3.664.918 5.479.269 1.291.714 2.55.852 3.861.189 1.791-.202 3.587-.591 5.345l-.397 1.792c4.32-1.35 8.23-3.812 12.557-5.143 1.42-.437 2.879-.75 4.275-1.257 3.651-1.327 6.722-3.926 10.34-5.345.165-.243-.096-.592-.39-.625-.293-.034-.568.13-.821.282-4.241 2.537-9.554 3.21-14.295 1.811-3.453-1.019-6.543-3.07-9.138-5.566-2.595-2.497-4.725-5.436-6.673-8.464a98.048 98.048 0 0 1-7.528-14.118l-.24-.571m.16-4.79 1.92 4.577a96.289 96.289 0 0 0 7.37 13.82c2.297 3.572 4.264 6.071 6.378 8.105 2.621 2.522 5.42 4.234 8.318 5.09 1.427.42 2.925.634 4.454.634 2.941 0 5.793-.776 8.247-2.244.333-.2.954-.57 1.77-.57a2.526 2.526 0 0 1 2.3 1.472c.347.755.28 1.61-.18 2.284l-.348.51-.575.226c-1.593.624-3.097 1.515-4.688 2.458-1.786 1.059-3.632 2.153-5.698 2.904-.933.339-1.867.592-2.77.836-.556.15-1.081.293-1.6.452-2.053.632-4.01 1.536-6.082 2.493-2.065.953-4.2 1.94-6.466 2.648l-3.294 1.03 1.14-5.163c.35-1.582.713-3.217.556-4.703-.072-.683-.259-1.4-.457-2.16a30.898 30.898 0 0 1-.364-1.504c-.175-.84-.28-1.668-.38-2.469-.129-1.02-.25-1.982-.503-2.868-.284-.994-.756-1.956-1.304-2.885.123 1.01.186 2.015.249 3.004.123 1.961.24 3.814.806 5.486.075.22.16.451.25.696.507 1.37 1.137 3.075.516 4.915l-1.476 4.377-2.182-4.071a27.479 27.479 0 0 1-2.646-7.276c-.33.156-.698.24-1.082.24a2.675 2.675 0 0 1-1.67-.586c-.704-.566-.957-1.31-1.093-1.709-.903-2.649-1.881-5.8-2.286-9.08-.542-4.403-.049-8.75.463-12.963l-.623-1.947 3.03-6.058z" style="fill:#d3a475;stroke:none" transform="translate(-178.948 -258.169)"/>
        </g>
        <path data-name="패스 3630" d="M299.124 115.831a54.854 54.854 0 0 0-6.367-11.43 75.836 75.836 0 0 0-7.3-9.507c-2.823-2.922-6.392-4.613-9.987-6.391-7.067-3.5-15.883-6.886-23.52-2.987-1.568.8-2.826 2.124-4.433 2.831-1.737.764-3.274.26-5.041-.07a14.6 14.6 0 0 0-10.586 2.2 4.517 4.517 0 0 1 3.864.533c2.047 1.411 2.18 4.069 2.3 6.32l.3 5.562a6.943 6.943 0 0 1-.392 3.551c-.553 1.112-1.766 1.593-2.36 2.644a3.071 3.071 0 0 0 .366 3.477 1.529 1.529 0 0 1 .21.319h.01a1.474 1.474 0 0 1 .508-2.146c6.183-3.513 13.488-7.062 20.625-4.124 4.62 1.9 7.814 5.849 11.7 8.819 1.9 1.453 4.353 2.983 6.841 2.94 1.657-.029 3.2-1.041 4.772-1.487a12.6 12.6 0 0 1 4.659-.5 8.431 8.431 0 0 1 7.25 10.209 11.972 11.972 0 0 1-1.627 3.376 4.325 4.325 0 0 0-.468 1.146s-.6 1.039-.15 3.561l.017.173a53.913 53.913 0 0 0 1.771 10.419 4.462 4.462 0 0 0 4.025 2.294c1.651-.33 2.056-3.208 2.4-4.526.568-2.176 1.181-4.352 1.776-6.534l1.392-5.2c.222-.911.436-1.824.63-2.738.478-2.245-.416-4.354-1.067-6.487-.642-2.1-1.314-4.2-2.11-6.244" transform="translate(-163.108 -82.379)" style="stroke:#d3a475;stroke-linejoin:round;stroke-width:3px;fill:#d3a475;stroke-linecap:round"/>
        <path data-name="패스 3631" d="M466.309 344.511c-.661-2.956-2.6-5.424-3.723-8.191-1.163-2.862-1.481-5.987-2.356-8.936-1.669-5.625-4.988-10.5-8.172-15.349a87.7 87.7 0 0 1-7.593-14.615c-2.048-4.907-4.25-9.878-8.069-13.7-4.23-4.228-10.1-6.863-15.651-8.854a59.97 59.97 0 0 0-18.287-3.471c-4.874-.152-10.338.193-14.528 2.977-4.946 3.286-5.677 8.738-5.258 14.281.473 6.254 2.305 12.425 1.952 18.732-.358 6.4-4.178 12.368-6.878 18.028l-3.649 7.648a10.262 10.262 0 0 0-1.531-2.528A221.583 221.583 0 0 0 357.9 313.81a4.255 4.255 0 0 0-5.093-.657 86.634 86.634 0 0 1-14.638 7.744c-2.1.852-3.587 2.8-2.935 5.169a4.172 4.172 0 0 0 .955 1.667 6.173 6.173 0 0 0 2.132 7.494c2.906 2.134 6.909 1.322 10.3 1.553 3.182.218 6.323.727 9.471 1.22 3.449.54 6.913 1.075 10.4 1.314 2.036.139 4.185-.294 5.329-2.173a2.779 2.779 0 0 0 1.844.983 2.447 2.447 0 0 0 .54.056l20.6-.155c2.739-.021 6.422.449 7.259-2.951a7.614 7.614 0 0 0-.378-3.714c-.422-1.6-.872-3.191-1.309-4.786-1.612-5.887-3.219-12.144-2.023-18.268a16.508 16.508 0 0 1 3.188-7.353c2.047-2.493 4.677-2.236 7.6-1.605a24.182 24.182 0 0 1 8.467 3.168c2.428 1.659 3.518 4.665 4.45 7.33a77.267 77.267 0 0 1 3.567 17.887c.614 6.145.94 12.317 1.734 18.444.339 2.618.336 6.25 1.862 8.5 1.6 2.354 5.084 2.043 7.592 2.107a46.8 46.8 0 0 0 16.326-2.142 29.571 29.571 0 0 0 7.384-3.655c2.312-1.621 4.487-3.369 3.792-6.478M342.4 332.474a1.9 1.9 0 0 0 .791-.077.944.944 0 0 1-.791.077m92.859 19.566.026.013c.014.092.01.127-.026-.013m9.009-6.862c-.02-.022 0-.1.029-.211l-.029.211" transform="translate(-246.44 -221.362)" style="fill:#7dd1fd"/>
        <path data-name="패스 3632" d="M63.87 39.381c-2.2 7.554.07 15.2 3.319 22.079a118.723 118.723 0 0 0 11.709 20.345c4.057 5.443 9.177 10.5 16.464 10.218 7.066-.275 13.987-4.757 19.281-9.15 6.407-5.317 5.158-15.438 3.34-22.63a1.4 1.4 0 0 0-2.7.745 39.2 39.2 0 0 1 1.237 10.4c-.06 3.055-.545 6.249-2.776 8.518a40.043 40.043 0 0 1-7.816 5.572 23.393 23.393 0 0 1-9.64 3.68c-6.886.686-11.6-4.144-15.344-9.28a123.365 123.365 0 0 1-10.063-17.247c-3.5-6.928-6.579-14.7-4.307-22.508a1.4 1.4 0 0 0-2.7-.745"/>
        <path data-name="패스 3633" d="M106.46 88.378c2.5 5.2 8.594 7.086 11.362 12.022a1.401 1.401 0 0 0 2.419-1.414c-2.779-4.956-8.9-6.9-11.362-12.022-.78-1.625-3.2-.205-2.419 1.414"/>
        <path data-name="패스 3634" d="M108.199 89.387a110.481 110.481 0 0 1-9.673 5.655q-2.419 1.25-4.9 2.376a43.987 43.987 0 0 0-4.894 2.135c-2.6 1.6-1.268 5.468-.311 7.659a53.95 53.95 0 0 0 5.77 9.772c1.044 1.45 3.475.053 2.419-1.414a61.48 61.48 0 0 1-4.983-8.119 12.131 12.131 0 0 1-1.559-4.436c-.071-1.072.161-1.119 1.11-1.511q.908-.375 1.811-.762a109.21 109.21 0 0 0 16.623-8.937c1.5-.982.1-3.409-1.414-2.419"/>
        <path data-name="패스 3635" d="M140.8 51.598a18.567 18.567 0 0 0-5.263 13.664c.179 5.978 2.106 11.762 2.367 17.759a31.941 31.941 0 0 1-.477 8.375c-.673 2.991-2.279 5.412-3.937 7.935a46.114 46.114 0 0 0-6.384 14.707l2.56-.335-7.8-10.306c-1.074-1.419-3.508-.025-2.419 1.414l7.8 10.306a1.422 1.422 0 0 0 2.56-.335 45.01 45.01 0 0 1 6.447-14.558 26.089 26.089 0 0 0 3.568-6.9 27.276 27.276 0 0 0 .939-7.669c.014-5.756-1.2-11.211-2.074-16.859-.871-5.624.018-11.022 4.094-15.216 1.257-1.294-.722-3.277-1.981-1.981"/>
        <path data-name="패스 3636" d="M68.818 37.659a3.071 3.071 0 0 1-.366-3.477c.594-1.051 1.807-1.532 2.36-2.644a6.942 6.942 0 0 0 .392-3.551q-.141-2.781-.3-5.562c-.123-2.252-.255-4.91-2.3-6.32-1.991-1.372-4.677-.7-6.334.887-2.018 1.937-3.036 4.972-3.972 7.539a47.783 47.783 0 0 0-2.361 9.29 49.627 49.627 0 0 0-.538 9.328c.128 3.216 1.295 6.843.521 10.006-.755 3.085-2.963 6.035-4.669 8.665-1.775 2.735-3.667 5.392-5.587 8.027-3.862 5.3-7.825 10.531-11.253 16.13a169.939 169.939 0 0 0-9.34 17.81 394.47 394.47 0 0 0-4.072 9.223c-1.224 2.861-3 5.938-3.666 8.982-1.551 7.092 10.474 8.318 15.063 8.965a147.534 147.534 0 0 0 23.5 1.415 1.4 1.4 0 0 0 0-2.8 146.036 146.036 0 0 1-19.064-.852 85.1 85.1 0 0 1-9.323-1.434c-2.15-.486-7.859-1.546-7.47-4.547a17.854 17.854 0 0 1 1.62-4.157q.94-2.23 1.891-4.455c1.2-2.79 2.412-5.572 3.673-8.333a179.358 179.358 0 0 1 8.442-16.455c6.013-10.22 13.943-19.134 20.009-29.314 1.394-2.34 2.889-4.778 3.192-7.54.317-2.887-.479-5.834-.633-8.718a46.732 46.732 0 0 1 2.361-17.322 41.555 41.555 0 0 1 1.926-4.8c.65-1.352 1.5-3.078 3.123-3.419 3.185-.671 2.557 5.906 2.651 7.677.075 1.4.622 3.679-.345 4.83-.8.95-1.688 1.434-2.2 2.637a5.937 5.937 0 0 0 1.089 6.271c1.185 1.363 3.159-.625 1.981-1.981"/>
        <path data-name="패스 3637" d="M65.424 61.367c-10.111 16.348-14.6 35.333-23.667 52.2-.854 1.588 1.564 3 2.419 1.414 9.071-16.863 13.558-35.851 23.667-52.2.951-1.538-1.471-2.946-2.419-1.414"/>
        <path data-name="패스 3638" d="M47.279 109.995c7.123-.52 14.289-.857 21.387-1.665 6.252-.712 12.459-2.05 17.893-5.359 1.538-.937.131-3.36-1.414-2.419-5.345 3.255-11.5 4.474-17.656 5.1-6.717.688-13.477 1.046-20.21 1.538-1.788.131-1.8 2.933 0 2.8"/>
        <path data-name="패스 3639" d="M146.295 52.176c15-5.1 30.023 3.072 42.365 10.987 3.167 2.031 4.3 4.766 5.561 8.172a47.6 47.6 0 0 0 3.968 8.169c3.254 5.379 7.264 10.281 10.254 15.824a29.9 29.9 0 0 1 3.464 9.973c.546 3.868.5 7.724 2.318 11.289.818 1.607 3.236.191 2.419-1.414-1.76-3.46-1.5-7.465-2.126-11.205a31.6 31.6 0 0 0-3.056-8.9c-2.982-5.943-7.265-11.093-10.717-16.751a52.6 52.6 0 0 1-4.375-9.246c-1.082-2.913-2.389-5.533-4.949-7.414a92.776 92.776 0 0 0-10.037-6.119 75.274 75.274 0 0 0-10.723-4.978c-8.011-2.91-16.93-3.867-25.112-1.085-1.7.577-.969 3.284.745 2.7"/>
        <path data-name="패스 3640" d="m17.328 123.994-9.225.769a1.156 1.156 0 0 0-.803 1.943c1.587 2.014 3.232 3.993 4.766 6.048.964 1.292 1.872 2.632 2.811 3.943.764 1.068 1.461 2.331 2.773 2.774 1.435.484 3.224.255 4.717.284q2.973.058 5.947.106 23.088.368 46.181.081 12.944-.161 25.884-.528a1.147 1.147 0 0 0 .575-2.121l-5.1-2.828c-1.282-.712-2.432 1.254-1.149 1.965l5.1 2.828.574-2.121q-22.208.625-44.427.653-11.021.011-22.041-.126-5.6-.07-11.194-.178c-.932-.018-1.866-.028-2.8-.057a2.891 2.891 0 0 1-2.7-1.36c-1.055-1.332-1.978-2.783-2.977-4.158-1.692-2.331-3.545-4.552-5.328-6.813l-.8 1.943 9.225-.769c1.449-.121 1.462-2.4 0-2.276"/>
        <path data-name="패스 3641" d="M71.137 38.551c5.243-2.979 11.636-6.44 17.769-3.98 4.206 1.686 7.219 5.428 10.708 8.166a19.421 19.421 0 0 0 5.615 3.238c2.761.952 4.965.541 7.622-.463 2.568-.97 5.97-1.7 8.093.558a5.384 5.384 0 0 1 1.046 5.845c-.655 1.366-1.611 2.417-1.893 3.957a17.069 17.069 0 0 0 .122 4.737 54.5 54.5 0 0 0 1.79 10.288c.578 1.939 3.621 1.113 3.039-.838a53.889 53.889 0 0 1-1.771-10.419c-.153-1.615-.371-3.12.485-4.579a11.969 11.969 0 0 0 1.627-3.376 8.431 8.431 0 0 0-7.25-10.208 12.594 12.594 0 0 0-4.659.5c-1.567.446-3.115 1.458-4.772 1.487-2.488.043-4.941-1.486-6.841-2.94-3.884-2.971-7.078-6.917-11.7-8.819-7.137-2.938-14.442.611-20.625 4.124a1.577 1.577 0 0 0 1.591 2.722"/>
        <path data-name="패스 3642" d="M64.34 15.834a14.66 14.66 0 0 1 10.99-2.464c1.767.33 3.3.834 5.041.07 1.607-.707 2.865-2.03 4.433-2.831 7.637-3.9 16.453-.508 23.52 2.986 3.6 1.778 7.164 3.469 9.987 6.391a75.866 75.866 0 0 1 7.3 9.507 54.865 54.865 0 0 1 6.367 11.43c.8 2.048 1.468 4.143 2.11 6.244.651 2.133 1.545 4.242 1.067 6.487-1.012 4.757-2.453 9.468-3.682 14.174-.344 1.318-.75 4.2-2.4 4.526a4.461 4.461 0 0 1-4.025-2.294c-.742-1.861-3.792-1.049-3.039.838 1.132 2.84 4.71 5.2 7.844 4.509 3.982-.878 4.589-6.47 5.418-9.656l1.937-7.449c.585-2.251 1.514-4.653 1.232-7.009a38.141 38.141 0 0 0-1.9-6.853 64.819 64.819 0 0 0-2.966-7.76 77.621 77.621 0 0 0-7.845-12.418c-2.68-3.695-5.433-7.413-9.317-9.931a70.79 70.79 0 0 0-12.668-6.225 29.1 29.1 0 0 0-13.842-2.193 19.349 19.349 0 0 0-6.692 1.975 30.316 30.316 0 0 0-3.135 2.09 3.668 3.668 0 0 1-3.364.47 17.873 17.873 0 0 0-13.961 2.665c-1.663 1.14-.088 3.872 1.591 2.722"/>
        <path data-name="제외 1" d="M14.26 41.8a1.4 1.4 0 0 1-1.368-1.7l.4-1.792a15.738 15.738 0 0 0 .566-4.9 15.506 15.506 0 0 0-.471-2.244l-.008-.031a29.527 29.527 0 0 1-.351-1.448c-.169-.81-.271-1.619-.37-2.4v-.021a19.847 19.847 0 0 0-.528-2.964 18.138 18.138 0 0 0-2.693-5.07q-.189-.275-.381-.55a25.97 25.97 0 0 1 .844 5.946v.013a21.836 21.836 0 0 0 .836 5.626c.076.227.162.46.245.684l.01.027a6.674 6.674 0 0 1 .51 4.516 1.4 1.4 0 0 1-1.211.949h-.117a1.4 1.4 0 0 1-1.234-.739 27.056 27.056 0 0 1-2.77-8.061 1.864 1.864 0 0 1-1.487.708 2.081 2.081 0 0 1-1.3-.453 2.943 2.943 0 0 1-.9-1.434 45.352 45.352 0 0 1-2.251-8.957A53.316 53.316 0 0 1 .71 4.559L.3 3.263A1.394 1.394 0 0 1 .376 2.21L1.094.774A1.392 1.392 0 0 1 2.346 0h.047a1.405 1.405 0 0 1 1.246.859l.239.571a96.871 96.871 0 0 0 7.414 13.9 44.274 44.274 0 0 0 6.467 8.212 21.073 21.073 0 0 0 8.563 5.233 16.329 16.329 0 0 0 4.624.659 16.645 16.645 0 0 0 8.554-2.328 2.824 2.824 0 0 1 1.463-.485 2.1 2.1 0 0 1 .236.014 1.924 1.924 0 0 1 1.519 1.108 1.721 1.721 0 0 1-.13 1.7 1.4 1.4 0 0 1-.647.516 33.482 33.482 0 0 0-4.775 2.5 33.581 33.581 0 0 1-5.6 2.856c-.908.33-1.826.578-2.714.819h-.006a49.75 49.75 0 0 0-1.622.458 49.277 49.277 0 0 0-6.157 2.522l-.024.011a53.008 53.008 0 0 1-6.369 2.608 1.4 1.4 0 0 1-.414.067zM5.672 11.66l.028.04c1.63 2.187 3.316 4.448 4.886 6.733a19.3 19.3 0 0 1 2.886 5.483 21.2 21.2 0 0 1 .564 3.167c.1.762.2 1.549.354 2.311.1.472.222.947.342 1.407a16.873 16.873 0 0 1 .51 2.454 16.724 16.724 0 0 1-.592 5.345l-.4 1.792a52.138 52.138 0 0 0 6.226-2.556 51.272 51.272 0 0 1 6.331-2.588 52.205 52.205 0 0 1 1.665-.471c.863-.234 1.755-.475 2.61-.786a32.543 32.543 0 0 0 5.36-2.744 35.022 35.022 0 0 1 4.979-2.6.321.321 0 0 0 .016-.324.537.537 0 0 0-.4-.3.687.687 0 0 0-.079 0 1.512 1.512 0 0 0-.738.284 18.065 18.065 0 0 1-9.279 2.531 17.727 17.727 0 0 1-5.02-.716 22.458 22.458 0 0 1-9.138-5.566 45.525 45.525 0 0 1-6.674-8.465A98.33 98.33 0 0 1 2.587 1.972l-.24-.572-.718 1.436.508 1.589c-.515 4.227-1.047 8.6-.516 12.91a44.045 44.045 0 0 0 2.193 8.681 1.669 1.669 0 0 0 .453.795.678.678 0 0 0 .418.144.461.461 0 0 0 .4-.2.835.835 0 0 0 .034-.617c-.152-.744-.32-1.5-.483-2.227-.145-.648-.294-1.317-.431-1.977a70.784 70.784 0 0 1-1.48-15.116c.005-.52.143-.83.41-.92a5.04 5.04 0 0 1 .56 3.226c-.012.3-.025.613-.024.912a17.681 17.681 0 0 0 1.674 6.386 25.868 25.868 0 0 1 1.488 4.5 25.169 25.169 0 0 1 .354 3.162c.036.521.073 1.06.127 1.587a25.472 25.472 0 0 0 2.863 9.378 5.447 5.447 0 0 0-.5-3.585c-.091-.246-.185-.5-.269-.747a23.263 23.263 0 0 1-.907-6 23.842 23.842 0 0 0-.865-5.874c-.225-.693-.521-1.39-.806-2.064-.7-1.648-1.421-3.351-1.16-5.115z" transform="translate(65.334 61.281)" style="stroke:transparent;stroke-miterlimit:10"/>
        <path data-name="패스 3645" d="m54.602 126.578 30.556-34.326-2.614-1.613-32.85 35.665-8.048 7.92h5.632l4.758-4.766 2.763-2.768z"/>
        <g data-name="그룹 5062" style="opacity:.2">
            <g data-name="그룹 5061">
                <g data-name="그룹 5060" style="clip-path:url(#0y1xdc1h7a)" transform="translate(103.337 92.52)">
                    <path data-name="패스 3646" d="M418.851 466.314c-2.848-3.219-4.946-6.983-7.439-10.467a55.4 55.4 0 0 0-8.808-9.405 2.333 2.333 0 0 0-3.272.175c-1.637.269-3.337 1.2-3.808 2.809-.7 2.373 1.654 3.512 3.238 4.686a50.279 50.279 0 0 1 6.69 6l1.191 2.268c1.026 1.954 1.926 4.732 3.613 6.218 1.727 1.522 4.829 1.336 6.985 1.6 2.127.259 2.771-2.573 1.609-3.886" transform="translate(-395.398 -445.85)" style="fill:#0d0dcc"/>
                </g>
            </g>
        </g>
        <path data-name="패스 3647" d="M64.596 109.527c-4.578 1.853-9.46 3.842-13.552 6.647-1.411.968-2.534 2.364-2.267 4.17.3 2.021 2.087 3.293 3.563 4.488l5.8 4.7c2.042 1.652 4.1 3.768 6.484 4.914 2.044.982 4.563 1.181 6.782 1.49a29.9 29.9 0 0 0 8.158.119c2.558-.339 5.083-.788 7.668-.889a56.609 56.609 0 0 1 8.058.438c2 .205 4.092.1 5.992.744 9.507 3.216 20.236 2.728 30.123 2.788a147.349 147.349 0 0 1 15.073.658c5.26.573 10.377 1.9 15.556 2.933 5.075 1.009 10.259 1.718 15.424 1.026 4.232-.567 7.615-2.351 8.175-6.946.625-5.125.078-10.62-.346-15.741a166.05 166.05 0 0 0-1.97-15.1 181.36 181.36 0 0 0-3.488-15.711c-1.1-4.084-2.562-8.417-5.875-11.265a13.563 13.563 0 0 0-21.241 4.967c-2.189 5.174-.413 10.545 1.207 15.6a66.187 66.187 0 0 1 3.187 17.976l1.4-1.4a312.678 312.678 0 0 1-36.232.481c-11.586-.424-23.316-.742-34.838-2.075a62.6 62.6 0 0 1-18.454-4.668c-1.632-.73-3.059 1.683-1.414 2.419 10.188 4.561 21.331 5.395 32.335 6.015 12.4.7 24.8 1.4 37.223 1.415 7.135.01 14.268-.219 21.381-.785a1.425 1.425 0 0 0 1.4-1.4 67.959 67.959 0 0 0-1.828-13.608c-1.09-4.507-3.238-8.926-3.585-13.581-.608-8.16 7.585-14.405 15.207-10.812 3.77 1.778 5.626 5.5 6.807 9.306 1.343 4.325 2.318 8.8 3.222 13.229a155.293 155.293 0 0 1 3.225 28.431 33.024 33.024 0 0 1-.164 6.491c-.452 2.427-2.3 3.37-4.545 3.82-4.644.93-9.556.328-14.16-.531s-9.129-2.052-13.752-2.776a101.9 101.9 0 0 0-13.138-1.087c-9.032-.235-18.149.262-27.122-1.034a58.581 58.581 0 0 1-6.211-1.228 25.542 25.542 0 0 0-4.054-.987c-2.179-.193-4.351-.4-6.526-.615a43.313 43.313 0 0 0-7.4-.114c-2.7.19-5.344.8-8.039 1.009a34.13 34.13 0 0 1-8.379-.634 12.25 12.25 0 0 1-3.97-1.066 21.7 21.7 0 0 1-3-2.276l-6.064-4.913c-1.091-.882-5.455-3.414-4.779-5.18.325-.849 2.058-1.542 2.754-1.928q1.724-.957 3.485-1.846 3.654-1.843 7.45-3.376c1.65-.668.929-3.379-.745-2.7"/>
        <path data-name="패스 3648" d="M313.653 430.875q-.2-1.949-.372-3.9a165.39 165.39 0 0 0-2.389-15.238c-.9-4.434-1.879-8.9-3.222-13.229-1.18-3.8-3.037-7.529-6.807-9.306-7.622-3.594-15.815 2.652-15.207 10.812.347 4.656 2.495 9.074 3.585 13.582a67.939 67.939 0 0 1 1.828 13.608 1.425 1.425 0 0 1-1.4 1.4c-7.113.566-14.246.795-21.381.785-12.42-.017-24.826-.715-37.223-1.415-10.845-.612-21.825-1.433-31.893-5.823l-1.1-.222a5.1 5.1 0 0 0-1.591-.018q-3.783 1.532-7.43 3.367-1.76.888-3.485 1.846c-.7.386-2.428 1.079-2.754 1.928-.677 1.766 3.688 4.3 4.779 5.18l6.067 4.909a21.689 21.689 0 0 0 3 2.276 12.25 12.25 0 0 0 3.97 1.066 34.148 34.148 0 0 0 8.379.634c2.694-.211 5.338-.82 8.039-1.009a43.35 43.35 0 0 1 7.4.114c2.176.221 4.347.422 6.526.616a25.514 25.514 0 0 1 4.054.987 58.581 58.581 0 0 0 6.211 1.228c8.973 1.3 18.09.8 27.122 1.034a101.906 101.906 0 0 1 13.138 1.087c4.623.724 9.155 1.918 13.752 2.776s9.516 1.461 14.16.531c2.245-.45 4.093-1.393 4.545-3.82a33.024 33.024 0 0 0 .164-6.491q-.077-4.655-.464-9.292" transform="translate(-131.215 -309.698)" style="fill:#fff"/>
        <path data-name="사각형 2032" transform="translate(0 28.89)" style="fill:none" d="M0 0h213v160.135H0z"/>
    </g>
</svg>
