<svg data-name="그룹 5066" xmlns="http://www.w3.org/2000/svg" width="213" height="160.135" viewBox="0 0 213 160.135">
    <defs>
        <clipPath id="udevtxhyoa">
            <path data-name="사각형 2032" style="fill:none" d="M0 0h213v160.135H0z"/>
        </clipPath>
        <clipPath id="hdkadwh8gb">
            <path data-name="사각형 2030" style="fill:none" d="M0 0h24.024v24.366H0z"/>
        </clipPath>
    </defs>
    <g data-name="그룹 5065" style="clip-path:url(#udevtxhyoa)">
        <g data-name="그룹 5064">
            <g data-name="그룹 5063" style="clip-path:url(#udevtxhyoa)">
                <path data-name="패스 3630" d="M299.124 115.831a54.854 54.854 0 0 0-6.367-11.43 75.836 75.836 0 0 0-7.3-9.507c-2.823-2.922-6.392-4.613-9.987-6.391-7.067-3.5-15.883-6.886-23.52-2.987-1.568.8-2.826 2.124-4.433 2.831-1.737.764-3.274.26-5.041-.07a14.6 14.6 0 0 0-10.586 2.2 4.517 4.517 0 0 1 3.864.533c2.047 1.411 2.18 4.069 2.3 6.32l.3 5.562a6.943 6.943 0 0 1-.392 3.551c-.553 1.112-1.766 1.593-2.36 2.644a3.071 3.071 0 0 0 .366 3.477 1.529 1.529 0 0 1 .21.319h.01a1.474 1.474 0 0 1 .508-2.146c6.183-3.513 13.488-7.062 20.625-4.124 4.62 1.9 7.814 5.849 11.7 8.819 1.9 1.453 4.353 2.983 6.841 2.94 1.657-.029 3.2-1.041 4.772-1.487a12.6 12.6 0 0 1 4.659-.5 8.431 8.431 0 0 1 7.25 10.209 11.972 11.972 0 0 1-1.627 3.376 4.325 4.325 0 0 0-.468 1.146s-.6 1.039-.15 3.561l.017.173a53.913 53.913 0 0 0 1.771 10.419 4.462 4.462 0 0 0 4.025 2.294c1.651-.33 2.056-3.208 2.4-4.526.568-2.176 1.181-4.352 1.776-6.534l1.392-5.2c.222-.911.436-1.824.63-2.738.478-2.245-.416-4.354-1.067-6.487-.642-2.1-1.314-4.2-2.11-6.244" transform="translate(-175.388 -63.365)" style="fill:#d3a475"/>
                <path data-name="패스 3631" d="M466.309 344.511c-.661-2.956-2.6-5.424-3.723-8.191-1.163-2.862-1.481-5.987-2.356-8.936-1.669-5.625-4.988-10.5-8.172-15.349a87.7 87.7 0 0 1-7.593-14.615c-2.048-4.907-4.25-9.878-8.069-13.7-4.23-4.228-10.1-6.863-15.651-8.854a59.97 59.97 0 0 0-18.287-3.471c-4.874-.152-10.338.193-14.528 2.977-4.946 3.286-5.677 8.738-5.258 14.281.473 6.254 2.305 12.425 1.952 18.732-.358 6.4-4.178 12.368-6.878 18.028l-3.649 7.648a10.262 10.262 0 0 0-1.531-2.528A221.583 221.583 0 0 0 357.9 313.81a4.255 4.255 0 0 0-5.093-.657 86.634 86.634 0 0 1-14.638 7.744c-2.1.852-3.587 2.8-2.935 5.169a4.172 4.172 0 0 0 .955 1.667 6.173 6.173 0 0 0 2.132 7.494c2.906 2.134 6.909 1.322 10.3 1.553 3.182.218 6.323.727 9.471 1.22 3.449.54 6.913 1.075 10.4 1.314 2.036.139 4.185-.294 5.329-2.173a2.779 2.779 0 0 0 1.844.983 2.447 2.447 0 0 0 .54.056l20.6-.155c2.739-.021 6.422.449 7.259-2.951a7.614 7.614 0 0 0-.378-3.714c-.422-1.6-.872-3.191-1.309-4.786-1.612-5.887-3.219-12.144-2.023-18.268a16.508 16.508 0 0 1 3.188-7.353c2.047-2.493 4.677-2.236 7.6-1.605a24.182 24.182 0 0 1 8.467 3.168c2.428 1.659 3.518 4.665 4.45 7.33a77.267 77.267 0 0 1 3.567 17.887c.614 6.145.94 12.317 1.734 18.444.339 2.618.336 6.25 1.862 8.5 1.6 2.354 5.084 2.043 7.592 2.107a46.8 46.8 0 0 0 16.326-2.142 29.571 29.571 0 0 0 7.384-3.655c2.312-1.621 4.487-3.369 3.792-6.478M342.4 332.474a1.9 1.9 0 0 0 .791-.077.944.944 0 0 1-.791.077m92.859 19.566.026.013c.014.092.01.127-.026-.013m9.009-6.862c-.02-.022 0-.1.029-.211l-.029.211" transform="translate(-253.44 -205.252)" style="fill:#7dd1fd"/>
                <path data-name="패스 3632" d="M56.87 55.491c-2.2 7.554.07 15.2 3.319 22.079a118.723 118.723 0 0 0 11.709 20.345c4.057 5.443 9.177 10.5 16.464 10.218 7.066-.275 13.987-4.757 19.281-9.15 6.407-5.317 5.158-15.438 3.34-22.63a1.4 1.4 0 0 0-2.7.745 39.2 39.2 0 0 1 1.237 10.4c-.06 3.055-.545 6.249-2.776 8.518a40.043 40.043 0 0 1-7.816 5.572 23.393 23.393 0 0 1-9.64 3.68c-6.886.686-11.6-4.144-15.344-9.28a123.365 123.365 0 0 1-10.063-17.247c-3.5-6.928-6.579-14.7-4.307-22.508a1.4 1.4 0 0 0-2.7-.745"/>
                <path data-name="패스 3633" d="M99.46 104.488c2.5 5.2 8.594 7.086 11.362 12.022a1.401 1.401 0 0 0 2.419-1.414c-2.779-4.956-8.9-6.9-11.362-12.022-.78-1.625-3.2-.205-2.419 1.414"/>
                <path data-name="패스 3634" d="M101.199 105.497a110.481 110.481 0 0 1-9.673 5.655q-2.419 1.25-4.9 2.376a43.987 43.987 0 0 0-4.894 2.135c-2.6 1.6-1.268 5.468-.311 7.659a53.95 53.95 0 0 0 5.77 9.772c1.044 1.45 3.475.053 2.419-1.414a61.48 61.48 0 0 1-4.983-8.119 12.131 12.131 0 0 1-1.559-4.436c-.071-1.072.161-1.119 1.11-1.511q.908-.375 1.811-.762a109.21 109.21 0 0 0 16.623-8.937c1.5-.982.1-3.409-1.414-2.419"/>
                <path data-name="패스 3635" d="M133.8 67.708a18.567 18.567 0 0 0-5.263 13.664c.179 5.978 2.106 11.762 2.367 17.759a31.941 31.941 0 0 1-.477 8.375c-.673 2.991-2.279 5.412-3.937 7.935a46.114 46.114 0 0 0-6.384 14.707l2.56-.335-7.8-10.306c-1.074-1.419-3.508-.025-2.419 1.414l7.8 10.306a1.422 1.422 0 0 0 2.56-.335 45.01 45.01 0 0 1 6.447-14.558 26.089 26.089 0 0 0 3.568-6.9 27.276 27.276 0 0 0 .939-7.669c.014-5.756-1.2-11.211-2.074-16.859-.871-5.624.018-11.022 4.094-15.216 1.257-1.294-.722-3.277-1.981-1.981"/>
                <path data-name="패스 3636" d="M61.818 53.769a3.071 3.071 0 0 1-.366-3.477c.594-1.051 1.807-1.532 2.36-2.644a6.942 6.942 0 0 0 .392-3.551q-.141-2.781-.3-5.562c-.123-2.252-.255-4.91-2.3-6.32-1.991-1.372-4.677-.7-6.334.887-2.018 1.937-3.036 4.972-3.972 7.539a47.783 47.783 0 0 0-2.361 9.29 49.627 49.627 0 0 0-.538 9.328c.128 3.216 1.295 6.843.521 10.006-.755 3.085-2.963 6.035-4.669 8.665-1.775 2.735-3.667 5.392-5.587 8.027-3.862 5.3-7.825 10.531-11.253 16.13a169.939 169.939 0 0 0-9.34 17.81 394.47 394.47 0 0 0-4.072 9.223c-1.224 2.861-3 5.938-3.666 8.982-1.551 7.092 10.474 8.318 15.063 8.965a147.534 147.534 0 0 0 23.5 1.415 1.4 1.4 0 0 0 0-2.8 146.036 146.036 0 0 1-19.064-.852 85.1 85.1 0 0 1-9.323-1.434c-2.15-.486-7.859-1.546-7.47-4.547a17.854 17.854 0 0 1 1.62-4.157q.94-2.23 1.891-4.455c1.2-2.79 2.412-5.572 3.673-8.333a179.358 179.358 0 0 1 8.442-16.455c6.013-10.22 13.943-19.134 20.009-29.314 1.394-2.34 2.889-4.778 3.192-7.54.317-2.887-.479-5.834-.633-8.718a46.732 46.732 0 0 1 2.361-17.322 41.555 41.555 0 0 1 1.926-4.8c.65-1.352 1.5-3.078 3.123-3.419 3.185-.671 2.557 5.906 2.651 7.677.075 1.4.622 3.679-.345 4.83-.8.95-1.688 1.434-2.2 2.637a5.937 5.937 0 0 0 1.089 6.271c1.185 1.363 3.159-.625 1.981-1.981"/>
                <path data-name="패스 3637" d="M58.424 77.477c-10.111 16.348-14.6 35.333-23.667 52.2-.854 1.588 1.564 3 2.419 1.414 9.071-16.863 13.558-35.851 23.667-52.2.951-1.538-1.471-2.946-2.419-1.414"/>
                <path data-name="패스 3638" d="M40.279 126.105c7.123-.52 14.289-.857 21.387-1.665 6.252-.712 12.459-2.05 17.893-5.359 1.538-.937.131-3.36-1.414-2.419-5.345 3.255-11.5 4.474-17.656 5.1-6.717.688-13.477 1.046-20.21 1.538-1.788.131-1.8 2.933 0 2.8"/>
                <path data-name="패스 3639" d="M139.295 68.285c15-5.1 30.023 3.072 42.365 10.987 3.167 2.031 4.3 4.766 5.561 8.172a47.6 47.6 0 0 0 3.968 8.169c3.254 5.379 7.264 10.281 10.254 15.824a29.9 29.9 0 0 1 3.464 9.973c.546 3.868.5 7.724 2.318 11.289.818 1.607 3.236.191 2.419-1.414-1.76-3.46-1.5-7.465-2.126-11.205a31.6 31.6 0 0 0-3.056-8.9c-2.982-5.943-7.265-11.093-10.717-16.751a52.6 52.6 0 0 1-4.375-9.246c-1.082-2.913-2.389-5.533-4.949-7.414a92.776 92.776 0 0 0-10.037-6.119 75.274 75.274 0 0 0-10.723-4.978c-8.011-2.91-16.93-3.867-25.112-1.085-1.7.577-.969 3.284.745 2.7"/>
                <path data-name="패스 3640" d="m10.328 140.104-9.225.769a1.156 1.156 0 0 0-.803 1.943c1.587 2.014 3.232 3.993 4.766 6.048.964 1.292 1.872 2.632 2.811 3.943.764 1.068 1.461 2.331 2.773 2.774 1.435.484 3.224.255 4.717.284q2.973.058 5.947.106 23.088.368 46.181.081 12.944-.161 25.884-.528a1.147 1.147 0 0 0 .575-2.121l-5.1-2.828c-1.282-.712-2.432 1.254-1.149 1.965l5.1 2.828.574-2.121q-22.208.625-44.427.653-11.021.011-22.041-.126-5.6-.07-11.194-.178c-.932-.018-1.866-.028-2.8-.057a2.891 2.891 0 0 1-2.7-1.36c-1.055-1.332-1.978-2.783-2.977-4.158-1.692-2.331-3.545-4.552-5.328-6.813l-.8 1.943 9.225-.769c1.449-.121 1.462-2.4 0-2.276"/>
                <path data-name="패스 3641" d="M64.137 54.661c5.243-2.979 11.636-6.44 17.769-3.98 4.206 1.686 7.219 5.428 10.708 8.166a19.421 19.421 0 0 0 5.615 3.238c2.761.952 4.965.541 7.622-.463 2.568-.97 5.97-1.7 8.093.558a5.384 5.384 0 0 1 1.046 5.845c-.655 1.366-1.611 2.417-1.893 3.957a17.069 17.069 0 0 0 .122 4.737 54.5 54.5 0 0 0 1.79 10.288c.578 1.939 3.621 1.113 3.039-.838a53.889 53.889 0 0 1-1.771-10.419c-.153-1.615-.371-3.12.485-4.579a11.969 11.969 0 0 0 1.627-3.376 8.431 8.431 0 0 0-7.25-10.208 12.594 12.594 0 0 0-4.659.5c-1.567.446-3.115 1.458-4.772 1.487-2.488.043-4.941-1.486-6.841-2.94-3.884-2.971-7.078-6.917-11.7-8.819-7.137-2.938-14.442.611-20.625 4.124a1.577 1.577 0 0 0 1.591 2.722"/>
                <path data-name="패스 3642" d="M57.34 31.944a14.66 14.66 0 0 1 10.99-2.464c1.767.33 3.3.834 5.041.07 1.607-.707 2.865-2.03 4.433-2.831 7.637-3.9 16.453-.508 23.52 2.986 3.6 1.778 7.164 3.469 9.987 6.391a75.866 75.866 0 0 1 7.3 9.507 54.865 54.865 0 0 1 6.367 11.43c.8 2.048 1.468 4.143 2.11 6.244.651 2.133 1.545 4.242 1.067 6.487-1.012 4.757-2.453 9.468-3.682 14.174-.344 1.318-.75 4.2-2.4 4.526a4.461 4.461 0 0 1-4.025-2.294c-.742-1.861-3.792-1.049-3.039.838 1.132 2.84 4.71 5.2 7.844 4.509 3.982-.878 4.589-6.47 5.418-9.656l1.937-7.449c.585-2.251 1.514-4.653 1.232-7.009a38.141 38.141 0 0 0-1.9-6.853 64.819 64.819 0 0 0-2.966-7.76 77.621 77.621 0 0 0-7.845-12.418c-2.68-3.695-5.433-7.413-9.317-9.931a70.79 70.79 0 0 0-12.668-6.225 29.1 29.1 0 0 0-13.842-2.193 19.349 19.349 0 0 0-6.692 1.975 30.316 30.316 0 0 0-3.135 2.09 3.668 3.668 0 0 1-3.364.47 17.873 17.873 0 0 0-13.961 2.665c-1.663 1.14-.088 3.872 1.591 2.722"/>
                <path data-name="패스 3643" d="M72.594 119.188a1.4 1.4 0 0 1-1.368-1.7l.4-1.792a11.27 11.27 0 0 0 .094-7.144 31.257 31.257 0 0 1-.358-1.475c-.17-.817-.273-1.633-.372-2.421a19.849 19.849 0 0 0-.521-2.958 18.118 18.118 0 0 0-2.694-5.074l-.38-.55a25.988 25.988 0 0 1 .845 5.945 21.9 21.9 0 0 0 .837 5.64c.08.235.168.473.256.712a6.679 6.679 0 0 1 .51 4.516 1.4 1.4 0 0 1-1.211.949h-.117a1.4 1.4 0 0 1-1.234-.739 26.9 26.9 0 0 1-2.77-8.061 1.87 1.87 0 0 1-1.487.708 2.075 2.075 0 0 1-1.3-.453 2.939 2.939 0 0 1-.9-1.434 45.355 45.355 0 0 1-2.258-8.962 53.118 53.118 0 0 1 .479-12.947l-.415-1.3a1.4 1.4 0 0 1 .081-1.053l.718-1.435a1.4 1.4 0 0 1 1.253-.774h.046a1.4 1.4 0 0 1 1.246.858l.24.571a96.861 96.861 0 0 0 7.414 13.9 44.255 44.255 0 0 0 6.466 8.213 21.074 21.074 0 0 0 8.564 5.232 16.319 16.319 0 0 0 4.624.659 16.649 16.649 0 0 0 8.554-2.33 2.815 2.815 0 0 1 1.463-.485 2.078 2.078 0 0 1 .236.013 1.923 1.923 0 0 1 1.519 1.108 1.72 1.72 0 0 1-.13 1.7 1.4 1.4 0 0 1-.647.516 33.492 33.492 0 0 0-4.776 2.5 33.584 33.584 0 0 1-5.6 2.856c-.909.33-1.83.58-2.721.821-.562.152-1.092.3-1.621.458a49.441 49.441 0 0 0-6.157 2.521 53.185 53.185 0 0 1-6.393 2.62 1.4 1.4 0 0 1-.418.064"/>
                <path data-name="패스 3644" d="M246.36 323.957a98.048 98.048 0 0 0 7.527 14.117 46.39 46.39 0 0 0 6.673 8.464 22.659 22.659 0 0 0 9.138 5.566 18.184 18.184 0 0 0 14.294-1.811 1.374 1.374 0 0 1 .822-.282c.293.033.555.382.389.626-3.617 1.418-6.688 4.017-10.34 5.345-1.4.508-2.855.82-4.275 1.257-4.326 1.331-8.236 3.793-12.557 5.143l.4-1.792a16.783 16.783 0 0 0 .592-5.345 39.474 39.474 0 0 0-.852-3.862c-.378-1.814-.409-3.7-.918-5.478a19.268 19.268 0 0 0-2.886-5.483c-1.581-2.3-3.25-4.539-4.919-6.777-.369 2.485 1.191 4.792 1.967 7.182 1.239 3.817.486 8.071 1.772 11.873.479 1.418 1.245 2.913.766 4.331a25.309 25.309 0 0 1-2.863-9.378c-.16-1.584-.171-3.188-.481-4.749-.738-3.723-3.148-7.086-3.162-10.882-.005-1.418.292-2.987-.536-4.139-.34.115-.406.561-.409.92a70.723 70.723 0 0 0 1.482 15.119c.293 1.4.628 2.8.915 4.2a.836.836 0 0 1-.034.617.577.577 0 0 1-.82.053 1.656 1.656 0 0 1-.452-.795 43.6 43.6 0 0 1-2.194-8.681c-.528-4.286-.006-8.623.516-12.91l-.508-1.588.718-1.435z" transform="translate(-185.439 -244.595)" style="fill:#d3a475"/>
                <path data-name="패스 3645" d="m47.602 142.688 30.556-34.326-2.614-1.613-32.85 35.665-8.048 7.92h5.632l4.758-4.766 2.763-2.768z"/>
                <g data-name="그룹 5062" style="opacity:.2">
                    <g data-name="그룹 5061">
                        <g data-name="그룹 5060" style="clip-path:url(#hdkadwh8gb)" transform="translate(96.337 108.629)">
                            <path data-name="패스 3646" d="M418.851 466.314c-2.848-3.219-4.946-6.983-7.439-10.467a55.4 55.4 0 0 0-8.808-9.405 2.333 2.333 0 0 0-3.272.175c-1.637.269-3.337 1.2-3.808 2.809-.7 2.373 1.654 3.512 3.238 4.686a50.279 50.279 0 0 1 6.69 6l1.191 2.268c1.026 1.954 1.926 4.732 3.613 6.218 1.727 1.522 4.829 1.336 6.985 1.6 2.127.259 2.771-2.573 1.609-3.886" transform="translate(-395.398 -445.85)" style="fill:#0d0dcc"/>
                        </g>
                    </g>
                </g>
                <path data-name="패스 3647" d="M57.596 125.637c-4.578 1.853-9.46 3.842-13.552 6.647-1.411.968-2.534 2.364-2.267 4.17.3 2.021 2.087 3.293 3.563 4.488l5.8 4.7c2.042 1.652 4.1 3.768 6.484 4.914 2.044.982 4.563 1.181 6.782 1.49a29.9 29.9 0 0 0 8.158.119c2.558-.339 5.083-.788 7.668-.889a56.609 56.609 0 0 1 8.058.438c2 .205 4.092.1 5.992.744 9.507 3.216 20.236 2.728 30.123 2.788a147.349 147.349 0 0 1 15.073.658c5.26.573 10.377 1.9 15.556 2.933 5.075 1.009 10.259 1.718 15.424 1.026 4.232-.567 7.615-2.351 8.175-6.946.625-5.125.078-10.62-.346-15.741a166.05 166.05 0 0 0-1.97-15.1 181.36 181.36 0 0 0-3.488-15.711c-1.1-4.084-2.562-8.417-5.875-11.265a13.563 13.563 0 0 0-21.241 4.967c-2.189 5.174-.413 10.545 1.207 15.6a66.187 66.187 0 0 1 3.187 17.976l1.4-1.4a312.678 312.678 0 0 1-36.232.481c-11.586-.424-23.316-.742-34.838-2.075a62.6 62.6 0 0 1-18.454-4.668c-1.632-.73-3.059 1.683-1.414 2.419 10.188 4.561 21.331 5.395 32.335 6.015 12.4.7 24.8 1.4 37.223 1.415 7.135.01 14.268-.219 21.381-.785a1.425 1.425 0 0 0 1.4-1.4 67.959 67.959 0 0 0-1.828-13.608c-1.09-4.507-3.238-8.926-3.585-13.581-.608-8.16 7.585-14.405 15.207-10.812 3.77 1.778 5.626 5.5 6.807 9.306 1.343 4.325 2.318 8.8 3.222 13.229a155.293 155.293 0 0 1 3.225 28.431 33.024 33.024 0 0 1-.164 6.491c-.452 2.427-2.3 3.37-4.545 3.82-4.644.93-9.556.328-14.16-.531s-9.129-2.052-13.752-2.776a101.9 101.9 0 0 0-13.138-1.087c-9.032-.235-18.149.262-27.122-1.034a58.581 58.581 0 0 1-6.211-1.228 25.542 25.542 0 0 0-4.054-.987c-2.179-.193-4.351-.4-6.526-.615a43.313 43.313 0 0 0-7.4-.114c-2.7.19-5.344.8-8.039 1.009a34.13 34.13 0 0 1-8.379-.634 12.25 12.25 0 0 1-3.97-1.066 21.7 21.7 0 0 1-3-2.276l-6.064-4.913c-1.091-.882-5.455-3.414-4.779-5.18.325-.849 2.058-1.542 2.754-1.928q1.724-.957 3.485-1.846 3.654-1.843 7.45-3.376c1.65-.668.929-3.379-.745-2.7"/>
                <path data-name="패스 3648" d="M313.653 430.875q-.2-1.949-.372-3.9a165.39 165.39 0 0 0-2.389-15.238c-.9-4.434-1.879-8.9-3.222-13.229-1.18-3.8-3.037-7.529-6.807-9.306-7.622-3.594-15.815 2.652-15.207 10.812.347 4.656 2.495 9.074 3.585 13.582a67.939 67.939 0 0 1 1.828 13.608 1.425 1.425 0 0 1-1.4 1.4c-7.113.566-14.246.795-21.381.785-12.42-.017-24.826-.715-37.223-1.415-10.845-.612-21.825-1.433-31.893-5.823l-1.1-.222a5.1 5.1 0 0 0-1.591-.018q-3.783 1.532-7.43 3.367-1.76.888-3.485 1.846c-.7.386-2.428 1.079-2.754 1.928-.677 1.766 3.688 4.3 4.779 5.18l6.067 4.909a21.689 21.689 0 0 0 3 2.276 12.25 12.25 0 0 0 3.97 1.066 34.148 34.148 0 0 0 8.379.634c2.694-.211 5.338-.82 8.039-1.009a43.35 43.35 0 0 1 7.4.114c2.176.221 4.347.422 6.526.616a25.514 25.514 0 0 1 4.054.987 58.581 58.581 0 0 0 6.211 1.228c8.973 1.3 18.09.8 27.122 1.034a101.906 101.906 0 0 1 13.138 1.087c4.623.724 9.155 1.918 13.752 2.776s9.516 1.461 14.16.531c2.245-.45 4.093-1.393 4.545-3.82a33.024 33.024 0 0 0 .164-6.491q-.077-4.655-.464-9.292" transform="translate(-138.215 -293.588)" style="fill:#fff"/>
                <path data-name="패스 3649" d="m508.862 87.992 4.236-2.216 2.118-1.108.908-.475c.243-.127.7-.481.974-.466l-.665-.18q-.235-.536-.205-.227-.056.274-.122.546-.1.406-.223.806a17.989 17.989 0 0 1-.648 1.777c-.532 1.255-1.179 2.46-1.8 3.671a24.006 24.006 0 0 0-2.8 7.474 1.34 1.34 0 0 0 1.937 1.489A61.112 61.112 0 0 0 522.59 93.4c1.381-.965.064-3.252-1.331-2.277a61.121 61.121 0 0 1-10.019 5.68l1.937 1.489c.677-4.742 3.946-8.528 5.286-13.055.3-1.016.684-2.29.074-3.271-.809-1.3-2.189-.865-3.291-.289l-7.715 4.035c-1.5.787-.173 3.064 1.331 2.277" transform="translate(-383.374 -61.354)" style="fill:#d3a475"/>
                <path data-name="패스 3650" d="M517.652 111.2c2.479-1.891 5.78-2.083 8.339-3.847 1.2-.829.061-2.811-1.154-1.973-2.555 1.761-5.851 1.949-8.339 3.847a1.182 1.182 0 0 0-.41 1.563 1.149 1.149 0 0 0 1.563.41" transform="translate(-390.231 -79.552)" style="fill:#d3a475"/>
                <path data-name="패스 3651" d="m524.925 2.046 2.82-.046 1.327-.022a3.68 3.68 0 0 1 1.317.037l-.578-.444c-.12-.176.092-.2-.091.073a3.445 3.445 0 0 1-.331.442 7.777 7.777 0 0 1-.812.728c-.611.506-1.24.989-1.851 1.5a13.16 13.16 0 0 0-3.021 3.346.974.974 0 0 0 .835 1.455l5.834-.5c1.231-.1 1.242-2.04 0-1.934l-5.834.5.835 1.455a12.577 12.577 0 0 1 3.045-3.226 11.235 11.235 0 0 0 2.971-2.79c.659-1.17.315-2.526-1.158-2.595-1.756-.081-3.551.058-5.309.086a.967.967 0 0 0 0 1.934" transform="translate(-396.014)" style="fill:#d3a475"/>
                <path data-name="패스 3652" d="M525.934 15.017a36.724 36.724 0 0 1 7.095-.15c1.016.077 1.011-1.506 0-1.582a36.725 36.725 0 0 0-7.095.15c-1 .118-1.011 1.7 0 1.582" transform="translate(-397.223 -9.969)" style="fill:#d3a475"/>
                <path data-name="패스 3653" d="m569.982 34.6 10.276 2.172-.252-1.928q-6.022 2.843-12.192 5.355c-.723.294-1.184 1.521-.252 1.928a63.743 63.743 0 0 0 10.51 3.556c1.319.319 1.882-1.715.561-2.034a60.7 60.7 0 0 1-10.006-3.344l-.252 1.928q6.423-2.61 12.7-5.568a1.065 1.065 0 0 0-.252-1.928l-10.28-2.167c-1.324-.28-1.891 1.754-.561 2.034" transform="translate(-428.883 -24.615)" style="fill:#d3a475"/>
                <path data-name="패스 3654" d="M582.188 48.483a86.991 86.991 0 0 0 6.737 2.577c1.291.431 1.844-1.606.561-2.034a78.451 78.451 0 0 1-6.233-2.364c-1.234-.53-2.31 1.287-1.065 1.822" transform="translate(-439.922 -35.22)" style="fill:#d3a475"/>
                <path data-name="패스 3655" d="M101.405 232.218q.7 2.845 1.587 5.636c.459 1.445 2.742.827 2.28-.628q-.888-2.792-1.587-5.636c-.363-1.477-2.643-.851-2.28.628" transform="translate(-76.669 -174.526)" style="fill:#d3a475"/>
                <path data-name="패스 3656" d="m76.226 261.652-5.9-2.284c-1.419-.55-2.034 1.735-.628 2.28l5.9 2.284c1.419.55 2.034-1.735.629-2.28" transform="translate(-52.118 -196.11)" style="fill:#d3a475"/>
                <path data-name="패스 3657" d="m136.039 249.376 1.594-3.744a1.222 1.222 0 0 0-.424-1.617 1.19 1.19 0 0 0-1.617.424L134 248.183a1.222 1.222 0 0 0 .424 1.617 1.19 1.19 0 0 0 1.617-.424" transform="translate(-101.248 -184.448)" style="fill:#d3a475"/>
                <path data-name="패스 3658" d="M98.311 288.386A22.06 22.06 0 0 0 96 293.518c-.445 1.458 1.836 2.082 2.28.628a19.5 19.5 0 0 1 2.069-4.567c.8-1.3-1.245-2.488-2.041-1.193" transform="translate(-72.57 -217.7)" style="fill:#d3a475"/>
                <path data-name="패스 3659" d="M125.8 290.788c.162 1.992 1.277 3.805 2.109 5.585.644 1.377 2.683.178 2.041-1.193-.63-1.346-1.663-2.882-1.786-4.392s-2.488-1.519-2.364 0" transform="translate(-95.147 -219.081)" style="fill:#d3a475"/>
                <path data-name="패스 3660" d="M146.5 278.734a32.637 32.637 0 0 1 4.787 1.2c1.447.481 2.067-1.8.628-2.279a32.629 32.629 0 0 0-4.787-1.2c-1.488-.256-2.127 2.022-.628 2.28" transform="translate(-110.161 -209.082)" style="fill:#d3a475"/>
                <path data-name="패스 3661" d="M188.216 120.457q.7 2.845 1.587 5.636c.459 1.445 2.742.827 2.28-.628q-.888-2.792-1.587-5.636c-.363-1.477-2.643-.851-2.28.628" transform="translate(-142.329 -89.995)" style="fill:#d3a475"/>
                <path data-name="패스 3662" d="m163.037 149.89-5.9-2.284c-1.419-.55-2.034 1.735-.628 2.28l5.9 2.284c1.419.55 2.034-1.735.628-2.28" transform="translate(-117.778 -111.578)" style="fill:#d3a475"/>
                <path data-name="패스 3663" d="m222.85 137.614 1.594-3.744a1.222 1.222 0 0 0-.424-1.617 1.19 1.19 0 0 0-1.617.424l-1.594 3.744a1.222 1.222 0 0 0 .424 1.617 1.19 1.19 0 0 0 1.617-.424" transform="translate(-166.908 -99.916)" style="fill:#d3a475"/>
                <path data-name="패스 3664" d="M185.122 176.625a22.061 22.061 0 0 0-2.307 5.131c-.445 1.458 1.836 2.082 2.28.628a19.5 19.5 0 0 1 2.069-4.567c.8-1.3-1.245-2.488-2.041-1.193" transform="translate(-138.23 -133.169)" style="fill:#d3a475"/>
                <path data-name="패스 3665" d="M212.612 179.026c.162 1.992 1.277 3.805 2.109 5.585.644 1.377 2.683.178 2.041-1.193-.63-1.346-1.663-2.882-1.786-4.392s-2.488-1.519-2.364 0" transform="translate(-160.807 -134.549)" style="fill:#d3a475"/>
                <path data-name="패스 3666" d="M233.313 166.972a32.644 32.644 0 0 1 4.787 1.2c1.447.482 2.067-1.8.628-2.279a32.629 32.629 0 0 0-4.787-1.2c-1.488-.256-2.127 2.022-.628 2.28" transform="translate(-175.821 -124.55)" style="fill:#d3a475"/>
            </g>
        </g>
    </g>
</svg>
