<svg xmlns="http://www.w3.org/2000/svg" width="231.098" height="194.225" viewBox="0 0 231.098 194.225">
    <g data-name="그룹 5318">
        <g data-name="그룹 5249">
            <path data-name="패스 3799" d="M795.329 485.221a189.6 189.6 0 0 0-3.037-21.194c-1.282-6.335-2.675-13.04-6.114-18.613-3.977-6.442-10.166-10.647-17.071-13.429-7.2-2.9-15.14-3.5-22.794-4.16-2.875-.248-6.493 2.408-6.985 5.318l-2.169 12.819c-.011.063-.015.128-.025.191a7.393 7.393 0 0 0-.234 1.734c-.167 13.221-.171 26.983 5.008 39.391 2.511 6.017 5.935 12.1 11.031 16.32a27.357 27.357 0 0 0 19.565 6.163 87.356 87.356 0 0 0 10.134-1.291 18.253 18.253 0 0 0 8.087-3.268 13.048 13.048 0 0 0 5.126-10.135 72.529 72.529 0 0 0-.522-9.846z" transform="translate(-572.734 -316.905)" style="fill:#6d6d6d"/>
            <g data-name="그룹 5248">
                <g data-name="그룹 5239">
                    <path data-name="패스 3800" d="M170.038 111.489a73.537 73.537 0 0 1 31.817 7.018c4.616 2.246 8.53 5.315 11.036 9.866 2.335 4.24 3.449 9.031 4.547 13.707.336 1.433 2.542.826 2.206-.608-1.166-4.969-2.393-10.037-4.926-14.517a25.624 25.624 0 0 0-11.133-10.139 75.377 75.377 0 0 0-33.543-7.614 1.144 1.144 0 0 0 0 2.287z"/>
                </g>
                <g data-name="그룹 5240">
                    <path data-name="패스 3801" d="M216.215 143.912a24.7 24.7 0 0 0-44.277 3.566c-2.366 5.976-2.426 12.552-2.461 18.886a1.144 1.144 0 0 0 2.287 0c.035-6.448.032-13.264 2.794-19.238a22.969 22.969 0 0 1 10.977-10.94c10.281-4.918 22.85-.759 28.7 8.88a1.145 1.145 0 0 0 1.975-1.154z"/>
                </g>
                <g data-name="그룹 5241">
                    <path data-name="패스 3802" d="M196.509 136.464c7.246 8.794 9.531 20.512 16.731 29.362.929 1.142 2.539-.485 1.618-1.617-7.189-8.836-9.47-20.549-16.732-29.362-.937-1.137-2.547.489-1.617 1.617z"/>
                </g>
                <g data-name="그룹 5242">
                    <path data-name="패스 3803" d="m173.748 180.08 7.008 8.554c.934 1.139 2.544-.487 1.618-1.618l-7.008-8.553c-.934-1.14-2.544.487-1.618 1.617z"/>
                </g>
                <g data-name="그룹 5243">
                    <path data-name="패스 3804" d="M755.862 431.669a107.536 107.536 0 0 1 20.4 3.39c5.426 1.456 12.047 3.073 15.117 8.256a1.145 1.145 0 0 0 1.975-1.154c-3.173-5.358-9.434-7.324-15.086-8.922a110.527 110.527 0 0 0-22.408-3.857c-1.469-.1-1.463 2.185 0 2.287z" transform="translate(-583.815 -317.876)" style="fill:#fff"/>
                </g>
                <g data-name="그룹 5244">
                    <path data-name="패스 3805" d="M859.9 477.352a1.144 1.144 0 0 0 0-2.287 1.144 1.144 0 0 0 0 2.287z" transform="translate(-648.189 -346.146)" style="fill:#fff"/>
                </g>
                <g data-name="그룹 5245">
                    <path data-name="패스 3806" d="M800.165 502.338c11.482-1.361 13.23 14.676 17.463 21.868a1.145 1.145 0 0 0 1.975-1.155c-3-5.091-3.971-11.114-7.157-16.105-2.664-4.173-7.1-7.51-12.281-6.9-1.444.171-1.461 2.461 0 2.287z" transform="translate(-611.234 -361.56)" style="fill:#fff"/>
                </g>
                <g data-name="그룹 5246">
                    <path data-name="패스 3807" d="M854.2 568.669a1.144 1.144 0 0 0 0-2.287 1.144 1.144 0 0 0 0 2.287z" transform="translate(-644.658 -402.649)" style="fill:#fff"/>
                </g>
                <g data-name="그룹 5247">
                    <path data-name="패스 3808" d="m787.524 609.556 2.9 4.143c.839 1.2 2.823.055 1.975-1.154L789.5 608.4c-.839-1.2-2.823-.055-1.975 1.155z" transform="translate(-603.959 -428.336)" style="fill:#fff"/>
                </g>
            </g>
        </g>
        <path data-name="패스 3809" d="M482.879 466.757c-.484-1.637-.907-3.306-1.455-4.922-1.166-3.441-3.625-6.54-5.2-9.837q-.494-1.033-.951-2.083c.015.01-.5-1.247-.635-1.6q-1.1-2.9-1.95-5.887-.764-2.687-1.323-5.425-.248-1.216-.455-2.441c-.084-.5-.152-1-.236-1.5-.023-.191-.047-.382-.068-.572a73.52 73.52 0 0 1-.4-11.463 77.3 77.3 0 0 1 .451-5.523c.079-.5.153-.993.238-1.489q.286-1.681.653-3.347c.9-4.1 2.564-8.011 3.04-12.193.644-5.662-2.644-10.583-7.684-12.928-31.9-14.842-69.229-14.682-101.816-2.248-19.1 7.287-37.036 17.325-55.121 26.764a7.306 7.306 0 0 0-3.329 8.18c.924 2.857 3.752 5.6 6.985 5.318 3.284-.286 6.575-.542 9.873-.54 1.436 0 2.873.048 4.3.168.355.029.71.066 1.064.1h.022c.787.149 1.573.285 2.353.474q1.013.246 2.005.566c.255.083 1.363.542 1.35.511a22.71 22.71 0 0 1 2.945 1.719c-.035.017 1.013.886 1.2 1.074.4.39.757.8 1.136 1.209.1.124.177.213.236.283.106.148.215.294.316.444.416.613.8 1.247 1.163 1.895.313.564.59 1.142.868 1.723-.559-1.149.316.828.43 1.166a31.8 31.8 0 0 1 1.029 3.83c.079.388.691 2.812.191.879a11.932 11.932 0 0 1 .193 2.258 39.942 39.942 0 0 1-.035 4.552 46.6 46.6 0 0 1-.22 2.447c-.008-.081-.29 1.795-.329 2-.3 1.647-.676 3.28-1.088 4.9-.757 2.977-1.664 5.912-2.6 8.837a6.641 6.641 0 0 0-1.693 4.382 6.275 6.275 0 0 0 .992 3.889 7.634 7.634 0 0 0 .981 1.217 7.012 7.012 0 0 0 4.137 2.272 6.726 6.726 0 0 0 2.135.1h129.317a7.314 7.314 0 0 0 6.985-9.159zm-12.223-51.264v-.028c.157-1.33.044-.316-.001.027z" transform="translate(-306.357 -283.722)" style="fill:#6d6d6d"/>
        <g data-name="그룹 5250">
            <path data-name="패스 3810" d="M175.6 188.979c-.653-8.43-5.809-15.411-8.443-23.248a57.257 57.257 0 0 1-2.441-26.277 115.487 115.487 0 0 1 2.831-12.86c1.122-4.269 2.558-8.63 2.7-13.077.229-7.38-4.584-13.037-10.93-16.2-8.452-4.207-18.236-3.607-26.982-6.9-1.839-.693-2.633 2.254-.811 2.941 7.592 2.862 15.913 2.671 23.519 5.427 7.015 2.542 12.765 7.837 12.093 15.809-.368 4.369-1.885 8.686-2.977 12.914a103.144 103.144 0 0 0-2.506 12.042 60.124 60.124 0 0 0 1.664 24.045 74.969 74.969 0 0 0 4.855 12.274c2 4.173 4.019 8.429 4.382 13.109.151 1.944 3.2 1.96 3.05 0z"/>
        </g>
        <g data-name="그룹 5251">
            <path data-name="패스 3811" d="M44.42 137.667c9.522 5.937 19.051 11.879 28.256 18.3 4.588 3.2 9.1 6.519 13.464 10.017 3.955 3.168 7.759 6.754 12.464 8.789 4.157 1.8 9.066 2.266 13.176.078 3.711-1.976 5.979-5.723 8.11-9.19 4.688-7.626 11.217-13 18.372-18.226 7.53-5.5 15.284-11.01 20.276-19.073 1.036-1.674-1.6-3.207-2.633-1.539-8.618 13.921-25.44 19.583-35.33 32.37-2.506 3.24-4.215 7.067-6.895 10.168-3.327 3.848-7.95 4.708-12.7 3.084-4.868-1.665-8.747-5.463-12.684-8.618a258.58 258.58 0 0 0-12.325-9.259c-9.746-6.9-19.884-13.221-30.013-19.537-1.67-1.041-3.2 1.6-1.539 2.634z"/>
        </g>
        <g data-name="그룹 5252">
            <path data-name="패스 3812" d="M64.17 137.895c10.973 6.539 19.835 16.738 32.456 20.3a25.7 25.7 0 0 0 17.346-.911c5.4-2.339 9.91-6.336 13.947-10.54 5-5.2 9.572-10.917 15.7-14.865 1.644-1.06.117-3.7-1.539-2.634-9.9 6.384-15.839 17.279-25.877 23.444a22.647 22.647 0 0 1-17.181 2.965c-6.056-1.366-11.451-4.564-16.431-8.168-5.632-4.075-10.89-8.656-16.877-12.225a1.526 1.526 0 0 0-1.539 2.634z"/>
        </g>
        <g data-name="그룹 5258">
            <path data-name="패스 3813" d="M487.754 402.74c9.3 5.069 18.812 10.224 29.254 11.988 3.74.631 7.715.79 11.2-.714 4.051-1.75 6.85-5.462 10.274-8.246a26.034 26.034 0 0 1 11.816-5.405c.972-.172 2.149-.447 2.432-1.393.261-.872-.43-1.708-.991-2.424a11.906 11.906 0 0 1-2.282-9.487c.337-1.729 1.066-3.464.721-5.191a5.815 5.815 0 0 0-3.644-3.967 16.575 16.575 0 0 0-5.505-.929 255.936 255.936 0 0 0-48.508 1.854 12.452 12.452 0 0 0-3.893 1 4.379 4.379 0 0 0-2.475 3c-.282 1.662.727 3.228 1.451 4.75a15.3 15.3 0 0 1 .233 12.424s-1.237 2.113-.083 2.74z" transform="translate(-417.578 -285.207)" style="fill:#494949"/>
            <g data-name="그룹 5257">
                <g data-name="그룹 5253">
                    <path data-name="패스 3814" d="M484.824 439.491c11.968 2.834 21.969 12.866 34.841 12.095 5.963-.357 10.9-3.458 15.534-6.979 4.721-3.59 9.432-7.533 15.495-8.408 1.935-.279 1.112-3.218-.811-2.941-11.7 1.687-18.33 14.539-30.219 15.278-12.426.773-22.41-9.234-34.03-11.986-1.909-.452-2.723 2.488-.811 2.941z" transform="translate(-416.112 -320.266)" style="fill:#d8d8d8"/>
                </g>
                <g data-name="그룹 5254">
                    <path data-name="패스 3815" d="M493.974 418.716a51.235 51.235 0 0 1 3.857-9.375c.922-1.732-1.71-3.274-2.634-1.539a55.426 55.426 0 0 0-4.165 10.1c-.566 1.884 2.377 2.689 2.941.811z" transform="translate(-420.584 -304.055)" style="fill:#d8d8d8"/>
                </g>
                <g data-name="그룹 5255">
                    <path data-name="패스 3816" d="m643.257 415.7-3.787-6.364a1.526 1.526 0 0 0-2.634 1.539l3.787 6.364a1.526 1.526 0 0 0 2.634-1.539z" transform="translate(-510.707 -305.024)" style="fill:#d8d8d8"/>
                </g>
                <g data-name="그룹 5256">
                    <path data-name="패스 3817" d="M519.979 421.907a8.2 8.2 0 0 1 4.531 2.927 1.577 1.577 0 0 0 2.086.547 1.534 1.534 0 0 0 .547-2.086 11.507 11.507 0 0 0-6.354-4.329c-1.9-.493-2.712 2.448-.811 2.941z" transform="translate(-437.868 -311.4)" style="fill:#d8d8d8"/>
                </g>
                <path data-name="패스 3818" d="M560.879 453.745a8.024 8.024 0 0 0 6.986-.448c.755-.436 1.514-1.192 1.334-2.045s-1.141-1.227-1.981-1.4a14.156 14.156 0 0 0-4.8-.14 3.9 3.9 0 0 0-1.769.6 1.624 1.624 0 0 0-.7 1.632z" transform="translate(-463.248 -330.373)" style="fill:#d8d8d8"/>
            </g>
        </g>
        <g data-name="그룹 5265">
            <g data-name="그룹 5259">
                <path data-name="패스 3819" d="M540.388 562.722c4.081 3.127 8.365 6.13 13.633 6.641a11.93 11.93 0 0 0 11.347-5.271c1.725-2.694-2.563-5.183-4.279-2.5-1.806 2.821-5.4 3.317-8.429 2.536-3.7-.953-6.792-3.4-9.771-5.683a2.5 2.5 0 0 0-3.39.889 2.537 2.537 0 0 0 .889 3.39z" transform="translate(-450.405 -397.51)" style="fill:#fff"/>
            </g>
            <g data-name="그룹 5260">
                <path data-name="패스 3820" d="M610.642 555.546c3.189 0 3.194-4.956 0-4.956s-3.194 4.956 0 4.956z" transform="translate(-493.157 -392.878)" style="fill:#fff"/>
            </g>
            <g data-name="그룹 5261">
                <path data-name="패스 3821" d="M544.671 497.814c4.624 1.468 9.4 2.919 14.3 2.875a21.768 21.768 0 0 0 12.346-4.072c7.076-4.955 11.657-12.961 19.482-16.881 2.852-1.428.345-5.705-2.5-4.279-7.335 3.674-11.824 10.681-18.025 15.771a18.039 18.039 0 0 1-10.6 4.488c-4.7.2-9.264-1.275-13.689-2.68-3.047-.967-4.351 3.816-1.318 4.779z" transform="translate(-452.75 -346.21)" style="fill:#fff"/>
            </g>
            <g data-name="그룹 5262">
                <path data-name="패스 3822" d="M675.178 470.049c3.189 0 3.194-4.956 0-4.956s-3.194 4.956 0 4.956z" transform="translate(-533.089 -339.976)" style="fill:#fff"/>
            </g>
            <g data-name="그룹 5263">
                <path data-name="패스 3823" d="M666.64 388.384c3.4 2.379 7.45 3.183 11.426 4.07 3.387.756 7.4 1.717 9.579 4.67 1.876 2.537 6.179.068 4.279-2.5-2.557-3.459-6.231-5.3-10.317-6.412-4.255-1.154-8.76-1.515-12.466-4.107-2.62-1.832-5.1 2.462-2.5 4.279z" transform="translate(-528.607 -289.587)" style="fill:#fff"/>
            </g>
            <g data-name="그룹 5264">
                <path data-name="패스 3824" d="M734.008 429.546c3.189 0 3.194-4.956 0-4.956s-3.194 4.956 0 4.956z" transform="translate(-569.491 -314.914)" style="fill:#fff"/>
            </g>
        </g>
        <g>
            <path data-name="패스 3825" d="M520.743 180.305c-1.934-10.227-5.895-20.3-13.1-27.984-7.435-7.93-18.666-12.886-29.6-12.3a35.937 35.937 0 0 0-27.557 15.05c-6.586 9.275-7.275 22.042-2.451 32.189a62.247 62.247 0 0 0 3.7 6.293c.618.982 1.226 1.973 1.77 3 .074.14.579 1.229.568 1.132a18.525 18.525 0 0 1 .583 1.95c.122.5.219 1.013.3 1.525-.011.058.135 1.31.142 1.4.1 1.171.169 2.344.274 3.515a58.924 58.924 0 0 0 1.671 9.956 91.8 91.8 0 0 0 7.075 17.457c1.566 3.109 2.909 6.577 5.782 8.675.554.4 1.117.8 1.676 1.194l11.079 7.9a6.309 6.309 0 0 0 1.32.941 5.308 5.308 0 0 0 1.247.656c4.946 2.578 10.264 4.966 15.946 4.76 6.36-.231 12.541-3.255 15.551-9.067 2.685-5.184 3.811-11.392 4.744-17.106a135.917 135.917 0 0 0 1.754-18.3 155.681 155.681 0 0 0-2.474-32.836z" transform="translate(-392.085 -138.803)" style="fill:#6d6d6d"/>
            <g data-name="그룹 5266">
                <path data-name="패스 3826" d="M628.081 246.655a1.717 1.717 0 0 0 0-3.431 1.717 1.717 0 0 0 0 3.431z" transform="translate(-504.404 -202.691)" style="fill:#fff"/>
            </g>
            <g data-name="그룹 5267" style="opacity:.3">
                <path data-name="패스 3827" d="M632.631 345.667a23.744 23.744 0 0 0 .061 8.564c.417 2.981.914 6.175-.463 8.989-.967 1.976 1.991 3.717 2.963 1.732a15.219 15.219 0 0 0 1.229-8.482c-.338-3.295-1.208-6.587-.482-9.891.474-2.152-2.834-3.071-3.309-.912z" transform="translate(-507.878 -265.317)" style="fill:#fff"/>
            </g>
            <g data-name="그룹 5284">
                <g data-name="그룹 5268">
                    <path data-name="패스 3828" d="m56.564 60.779-1.093-20.306c-.339-6.3-.548-12.58 1.8-18.561C61.554 10.989 72.048 3.639 83.595 2.465c11.7-1.19 23.081 3.693 31 12.23 8.474 9.136 11.724 21.5 13.258 33.567 1.945 15.305 1.749 30.818.562 46.175-.113 1.468 2.175 1.461 2.287 0a232.315 232.315 0 0 0-.363-44.524c-1.449-12.55-4.431-25.377-12.745-35.272C109.987 5.588 98.677-.138 86.765.002a34.477 34.477 0 0 0-29.176 16.186c-3.643 5.971-4.8 12.586-4.62 19.507.22 8.362.86 16.73 1.31 25.083.079 1.464 2.367 1.473 2.287 0z"/>
                </g>
                <g data-name="그룹 5269">
                    <path data-name="패스 3829" d="M68.352 90.551c1.313 10.123 9.87 16.157 18.086 20.864 8.853 5.07 18.614 10.651 29.185 8.1 1.43-.345.825-2.551-.608-2.206-9.686 2.333-18.736-2.922-26.845-7.544-7.537-4.3-16.308-9.787-17.531-19.218-.187-1.44-2.476-1.458-2.287 0z"/>
                </g>
                <g data-name="그룹 5270">
                    <path data-name="패스 3830" d="M98.655 103.383c2.224-.311 4.43-.763 6.663-1.006 2.144-.234 4.259-.035 6.4-.148 3.961-.208 7.32-3.016 10.927-4.425 1.356-.53.766-2.743-.608-2.206-3.876 1.515-7.39 4.4-11.655 4.354a80.884 80.884 0 0 0-12.337 1.221c-1.452.2-.834 2.408.608 2.206z"/>
                </g>
                <g data-name="그룹 5271">
                    <path data-name="패스 3831" d="M112.86 69.179a16.006 16.006 0 0 1 15.071-9.057c1.472.062 1.469-2.225 0-2.287a18.252 18.252 0 0 0-17.046 10.19c-.636 1.32 1.336 2.481 1.975 1.154z"/>
                </g>
                <g data-name="그룹 5272">
                    <path data-name="패스 3832" d="M103.802 70.707c.264-4.394-4.755-5.224-8.1-5.321A28.507 28.507 0 0 0 82.331 68.4c-1.321.648-.164 2.622 1.154 1.975a25.986 25.986 0 0 1 9.569-2.643c2.322-.167 8.674-.621 8.458 2.975-.089 1.47 2.2 1.465 2.287 0z"/>
                </g>
                <g data-name="그룹 5273">
                    <path data-name="패스 3833" d="M86.144 73.144a21.193 21.193 0 0 1 6.666-2.172c1.1-.2 2.229-.411 3.346-.5a3.47 3.47 0 0 1 1.532.051l.837.914q-1.445 2.061-1.253-.737a1.145 1.145 0 0 0-1.154 1.975c3.314 1.888 4.44-4.1.764-3.842-3.877.266-2.41 6.23 1.274 5.751 3.509-.456 3.33-5.4.14-6.267-2-.539-4.441.137-6.411.5a22.525 22.525 0 0 0-6.9 2.346c-1.288.713-.136 2.69 1.154 1.975z"/>
                </g>
                <g data-name="그룹 5274">
                    <path data-name="패스 3834" d="M117.358 67.26a20.849 20.849 0 0 1 5.65-2.761c.249-.062 1.127-.364 1.334-.23.66.429-.412.946-.69 1.127a8.315 8.315 0 0 1-1.611.8c.14.233 1.823-.547 2.086-.536 1.472.061 1.469-2.227 0-2.287-1.926-.08-4.661 1.8-3.761 4.045 1 2.491 4.659.084 5.787-1.064 1.572-1.6 1.038-4.077-1.337-4.338-3-.331-6.184 1.787-8.612 3.274-1.253.768-.105 2.747 1.154 1.975z"/>
                </g>
                <g data-name="그룹 5275">
                    <path data-name="패스 3835" d="M117.094 72.392a17.719 17.719 0 0 0 8.98-2.205c1.292-.706.139-2.682-1.155-1.975a15.32 15.32 0 0 1-7.826 1.893 1.144 1.144 0 0 0 0 2.287z"/>
                </g>
                <g data-name="그룹 5276">
                    <path data-name="패스 3836" d="M87.527 77.277a91.694 91.694 0 0 0 11.164-.2c1.458-.115 1.47-2.4 0-2.287a91.688 91.688 0 0 1-11.164.2c-1.472-.063-1.469 2.224 0 2.287z"/>
                </g>
                <g data-name="그룹 5277">
                    <path data-name="패스 3837" d="M108.704 92.362c2.385.566 5.127 1.183 7.466.093a3.946 3.946 0 0 0 1.922-1.7c.753-1.446.322-2.846 2.157-3.627 1.35-.575.186-2.546-1.155-1.975-1.88.8-2.272 2.093-2.861 3.871-.9 2.729-4.825 1.631-6.921 1.134-1.431-.339-2.042 1.866-.608 2.206z"/>
                </g>
                <g data-name="그룹 5278">
                    <path data-name="패스 3838" d="M112.726 79.714a8.681 8.681 0 0 0 1.046 2.829 1.144 1.144 0 0 0 1.975-1.154 6.849 6.849 0 0 1-.816-2.283 1.153 1.153 0 0 0-1.407-.8 1.169 1.169 0 0 0-.8 1.407z"/>
                </g>
                <g data-name="그룹 5279">
                    <path data-name="패스 3839" d="M592.658 185.463a33.24 33.24 0 0 1 11.742 17.756c.563 2.133 3.873 1.228 3.308-.912a36.242 36.242 0 0 0-12.621-19.27c-1.719-1.347-4.163 1.064-2.426 2.426z" transform="translate(-483.142 -165.204)" style="fill:#fff"/>
                </g>
                <g data-name="그룹 5280">
                    <path data-name="패스 3840" d="m515.313 152.631 1.336 3.348a1.769 1.769 0 0 0 2.111 1.2 1.727 1.727 0 0 0 1.2-2.111l-1.336-3.348a1.769 1.769 0 0 0-2.11-1.2 1.728 1.728 0 0 0-1.2 2.111z" transform="translate(-435.598 -145.291)" style="fill:#fff"/>
                </g>
                <g data-name="그룹 5281">
                    <path data-name="패스 3841" d="M571.3 156.508a1.717 1.717 0 0 0 0-3.431 1.717 1.717 0 0 0 0 3.431z" transform="translate(-469.27 -146.911)" style="fill:#fff"/>
                </g>
                <g data-name="그룹 5282" style="opacity:.3">
                    <path data-name="패스 3842" d="M616.569 335.923h2.008a1.716 1.716 0 0 0 0-3.431h-2.008a1.716 1.716 0 1 0 0 3.431z" transform="translate(-497.243 -257.927)" style="fill:#fff"/>
                </g>
                <g data-name="그룹 5283" style="opacity:.3">
                    <path data-name="패스 3843" d="M597.835 343.685a51.014 51.014 0 0 1-3.371-12.562c-.3-2.178-3.6-1.25-3.309.912a51.026 51.026 0 0 0 3.371 12.562c.827 2.015 4.148 1.133 3.309-.912z" transform="translate(-482.569 -256.311)" style="fill:#fff"/>
                </g>
            </g>
        </g>
        <g>
            <g data-name="그룹 5285">
                <path data-name="패스 3844" d="m349.711 460.716-9.83-3.586c-3.453-1.26-7.407-3.293-11.01-1.359-3.737 2.006-3.968 6.049-4.6 9.767q-.868 5.072-1.852 10.122-1.968 10.1-4.4 20.1-1.259 5.178-2.641 10.326-.286 1.065-.577 2.128c-.126.459-.3.946-.39 1.417-.009.043-.088.5-.108.667-.089.2-.191.395-.278.591a16.65 16.65 0 0 0-1.79 6.883 7.564 7.564 0 0 0 5.128 7.282 3.632 3.632 0 0 0 .654.173 5.951 5.951 0 0 0 .638.1 222.94 222.94 0 0 0 22.3 2.415c1.974.1 4.263.448 6.19-.12a6.741 6.741 0 0 0 4.555-4.589c.552-1.867.154-3.918.019-5.812q-.2-2.8-.335-5.606a239.665 239.665 0 0 1 1.923-44.568c.408-2.939-.692-5.271-3.596-6.331zm-35.346 49.377c.1-.472.1-.2.017.022-.012.034-.031.067-.045.1l.028-.122z" transform="translate(-309.991 -333.715)" style="fill:#6d6d6d"/>
                <path data-name="패스 3845" d="M419.462 256.646c-2.316-1.355-4.8-.361-6.259 1.641a68.818 68.818 0 0 1-7.778 8.819q2.547-3.772 4.961-7.637c3.121-5.013-4.792-9.612-7.9-4.618a238.913 238.913 0 0 1-17.1 24.1 4.778 4.778 0 0 0-.365 6.056 8.115 8.115 0 0 0-6.261 2.1c-1.57 1.467-2.493 3.609-3.5 5.463l-6.531 11.975c-2.659 4.876-8.807 13.137-4.552 18.584a3.61 3.61 0 0 0 .794.877 5.388 5.388 0 0 0 .663.525c3.411 2.7 6.762 5.55 10.311 8.053a6.74 6.74 0 0 0 6.838.78c2.277-1.055 3.536-3.008 4.545-5.21l5.55-12.109q.368-.8.749-1.608a4.974 4.974 0 0 0 1.155.134 4.212 4.212 0 0 0 3.271-1.385l-1.438 4.556c-1.776 5.628 7.054 8.037 8.823 2.432l4.319-13.685c.83-2.63 1.793-5.229-.339-7.584-1.523-1.682-4.09-2.478-6.1-3.45-.047-.022-.1-.041-.143-.062.9.042 1.8.059 2.713.04a4.575 4.575 0 1 0 0-9.15 44.9 44.9 0 0 1-3.2-.038q-.8-.041-1.6-.114a8.825 8.825 0 0 0-.905-.086c-2.36-.325-5.03.569-5.628 3.2-.021.095-.036.194-.051.292a23.228 23.228 0 0 0-4.454-2.952 3.926 3.926 0 0 0 .38-.125c1.9 1.767 4.432 1.375 6.332-.125 8.909-7.033 17.615-14.192 24.351-23.425 1.447-2.002.329-5.11-1.651-6.264zM399.27 309.32l-.087.276a4.548 4.548 0 0 0-1.747-3.357c.4-.945.793-1.894 1.15-2.853.01-.026.017-.052.026-.078.029.014.054.033.083.047l2.133 1.03-.229.724zm.322-14.22a4.407 4.407 0 0 0-.832.34 11.104 11.104 0 0 0-.171-.461q.501.064 1.002.121z" transform="translate(-341.23 -208.553)" style="fill:#6d6d6d"/>
            </g>
            <g data-name="그룹 5316">
                <g data-name="그룹 5286">
                    <path data-name="패스 3846" d="M23.628 113.121c-2.335-2.059-.387-6.372.446-8.738a76.668 76.668 0 0 1 4.051-9.282c1.485-2.919 3.1-5.77 4.736-8.6 1.521-2.631 3.288-7.159 6.974-6.81 1.709.162 1.7-2.508 0-2.669-3.82-.361-6.142 2.771-7.87 5.708-2.251 3.826-4.471 7.683-6.46 11.653A74.65 74.65 0 0 0 20.739 106c-.9 2.969-1.629 6.692 1 9.011 1.284 1.132 3.179-.749 1.887-1.887z"/>
                </g>
                <g data-name="그룹 5287">
                    <path data-name="패스 3847" d="M48.947 66.992a2.4 2.4 0 0 1 2.608.7 1.378 1.378 0 0 0 1.825.478 1.343 1.343 0 0 0 .479-1.825 5.121 5.121 0 0 0-5.622-1.931c-1.636.5-.938 3.082.709 2.573z"/>
                </g>
                <g data-name="그룹 5288">
                    <path data-name="패스 3848" d="M57.088 56.497a4.6 4.6 0 0 1 3.834 1.309c1.235 1.194 3.124-.69 1.887-1.887a7.439 7.439 0 0 0-6.43-2 1.344 1.344 0 0 0-.932 1.641 1.367 1.367 0 0 0 1.641.932z"/>
                </g>
                <g data-name="그룹 5289">
                    <path data-name="패스 3849" d="M68.214 57.441a5.306 5.306 0 0 1 3.046 2.579c.821 1.509 3.126.164 2.3-1.347a8.051 8.051 0 0 0-4.641-3.805c-1.637-.531-2.339 2.045-.709 2.573z"/>
                </g>
                <g data-name="그룹 5290">
                    <path data-name="패스 3850" d="M59.54 67.804c-.138-.1.059.048.1.085l.206.177q.254.227.488.473c.141.148.275.3.405.459.035.043.124.165.042.052.081.11.157.222.234.334a1.334 1.334 0 1 0 2.3-1.347 10.4 10.4 0 0 0-2.436-2.538 1.338 1.338 0 0 0-1.826.478 1.374 1.374 0 0 0 .479 1.826z"/>
                </g>
                <g data-name="그룹 5291">
                    <path data-name="패스 3851" d="M55.754 78.655a72.337 72.337 0 0 1 7.67-5.8c1.43-.939.094-3.251-1.347-2.3a77.525 77.525 0 0 0-8.211 6.214c-1.3 1.127.594 3.007 1.887 1.887z"/>
                </g>
                <g data-name="그룹 5292">
                    <path data-name="패스 3852" d="M66.996 69.086c4.1-3.335 8.3-6.809 11.106-11.363 1.807-2.929 5.074-11.258-1.265-11.226a1.335 1.335 0 0 0 0 2.669c.809 0 1.223 1.062 1.2 1.7a6.873 6.873 0 0 1-.456 1.841 17.027 17.027 0 0 1-1.185 2.652 24.683 24.683 0 0 1-3.242 4.529 67.5 67.5 0 0 1-8.04 7.311c-1.333 1.084.565 2.962 1.887 1.887z"/>
                </g>
                <g data-name="그룹 5293">
                    <path data-name="패스 3853" d="M66.366 45.546c.787.6 1.668 1.257 1.634 2.31a9.4 9.4 0 0 1-1.168 3.09l-2.566 5.8c-.689 1.556 1.61 2.916 2.3 1.347 1.3-2.943 3.078-5.991 3.967-9.091.733-2.558-.923-4.311-2.823-5.759-1.365-1.041-2.7 1.276-1.347 2.3z"/>
                </g>
                <g data-name="그룹 5294">
                    <path data-name="패스 3854" d="M61.23 43.874a196.455 196.455 0 0 0-19.766 29.289c-.828 1.506 1.475 2.854 2.3 1.347a192.74 192.74 0 0 1 19.349-28.749c1.075-1.321-.8-3.22-1.887-1.887z"/>
                </g>
                <g data-name="그룹 5295">
                    <path data-name="패스 3855" d="M60.741 78.507c1.979.443 4.951-.377 6.268 1.462 1.451 2.027.415 4.77-.3 6.878-.55 1.631 2.027 2.33 2.573.709.966-2.861 1.817-6.109.085-8.868-1.936-3.086-4.913-2.081-7.92-2.754-1.673-.375-2.387 2.2-.709 2.573z"/>
                </g>
                <g data-name="그룹 5296">
                    <path data-name="패스 3856" d="m60.866 88.129 4 2.285c1.474.843 3.125 1.254 3.056 3.2a22.2 22.2 0 0 1-.82 4.146c-.1.421-1.422 4.858-1.711 4.532-1.14-1.289-3.022.6-1.887 1.887a2.809 2.809 0 0 0 4.434-.457c1.428-2.049 1.794-5.268 2.252-7.664.374-1.951 1.008-4.319-.628-5.883a15.1 15.1 0 0 0-3.042-1.886l-4.3-2.461a1.335 1.335 0 0 0-1.347 2.3z"/>
                </g>
                <g data-name="그룹 5297">
                    <path data-name="패스 3857" d="M62.953 107.875c.615.75.12 1.793-.146 2.566-.365 1.063-.58 1.6-1.836 1.745-.586.068-3.356.3-3.723-.073-.7-.715 1.758-7.538 1.308-7.67a1.336 1.336 0 0 0 .71-2.573c-3.078-.9-3.611 3.552-4.081 5.574-.481 2.072-1.834 6.4 1.112 7.224a16.613 16.613 0 0 0 4.388.185 4.383 4.383 0 0 0 3.478-1.322c1.753-1.972 2.4-5.439.678-7.542-1.09-1.329-2.968.568-1.887 1.887z"/>
                </g>
                <g data-name="그룹 5298">
                    <path data-name="패스 3858" d="m56.53 95.017 1.655 1.034a1.347 1.347 0 0 0 1.826-.479 1.362 1.362 0 0 0-.479-1.826l-1.655-1.033a1.347 1.347 0 0 0-1.826.478 1.362 1.362 0 0 0 .479 1.826z"/>
                </g>
                <g data-name="그룹 5299">
                    <path data-name="패스 3859" d="m54.467 99.409 1.56 1.565a1.334 1.334 0 1 0 1.887-1.887l-1.56-1.565a1.334 1.334 0 1 0-1.887 1.887z"/>
                </g>
                <g data-name="그룹 5300">
                    <path data-name="패스 3860" d="M53.437 97.205a151.33 151.33 0 0 1-12.273 26.6 1.335 1.335 0 0 0 2.3 1.347 154.954 154.954 0 0 0 12.55-27.24c.566-1.625-2.011-2.324-2.573-.709z"/>
                </g>
                <g data-name="그룹 5301">
                    <path data-name="패스 3861" d="m51.964 107.085 2.226-.475a1.335 1.335 0 0 0-.71-2.573l-2.226.475a1.335 1.335 0 1 0 .71 2.573z"/>
                </g>
                <g data-name="그룹 5302">
                    <path data-name="패스 3862" d="M41.022 124.082a15.193 15.193 0 0 0-.061 6.052 48.325 48.325 0 0 1 .637 7.893 93.443 93.443 0 0 1-1.934 15.389c-.307 1.679 2.265 2.4 2.573.709a108.23 108.23 0 0 0 1.985-14.629 42.681 42.681 0 0 0-.278-7.332c-.317-2.462-.965-4.908-.35-7.374a1.335 1.335 0 0 0-2.573-.709z"/>
                </g>
                <g data-name="그룹 5303">
                    <path data-name="패스 3863" d="m42.793 190.335-2.324-26.628c-.148-1.7-2.819-1.714-2.669 0l2.324 26.628c.148 1.7 2.818 1.714 2.669 0z"/>
                </g>
                <g data-name="그룹 5304">
                    <path data-name="패스 3864" d="M23.381 119.508c-6.277-.507-8.725 6.017-9.868 10.987-1.676 7.286-3.314 14.581-4.971 21.871l-4.886 21.5c-.814 3.581-1.7 7.154-2.443 10.75-.518 2.491-.459 5.119 2.321 6.1 1.623.572 2.321-2 .709-2.573-1.772-.626.75-8.13 1.059-9.49l2.022-8.9 3.96-17.423 3.959-17.422c.995-4.376 1.857-13.242 8.137-12.735 1.712.138 1.7-2.531 0-2.669z"/>
                </g>
                <g data-name="그룹 5305">
                    <path data-name="패스 3865" d="M24.176 126.405a7.323 7.323 0 0 1 10.132 1.772c.991 1.384 3.307.053 2.3-1.347a10.008 10.008 0 0 0-13.783-2.729c-1.437.929-.1 3.24 1.347 2.3z"/>
                </g>
                <g data-name="그룹 5307">
                    <path data-name="패스 3866" d="m26.56 117.268 2.317 2.689a.96.96 0 0 1 .324.714c-.043.287-.327.465-.582.6a3.4 3.4 0 0 1-4.252-.2 2.13 2.13 0 0 1-1.071-1 2.364 2.364 0 0 1 .373-1.739 1.689 1.689 0 0 0 .087-1.73z"/>
                    <g data-name="그룹 5306">
                        <path data-name="패스 3867" d="M25.616 118.211a34.038 34.038 0 0 0 2.317 2.689q.359-1.141-.3-.609a2.357 2.357 0 0 1-.671.268 2.282 2.282 0 0 1-1.391-.349c-.2-.1-.923-.367-1-.6s.433-.969.516-1.212a2.888 2.888 0 0 0-.171-2.472l-1.507 1.96 2.8.663c1.67.395 2.383-2.178.709-2.573l-2.8-.663a1.35 1.35 0 0 0-1.507 1.96c.176.315-.628 1.622-.676 2.094a2.575 2.575 0 0 0 .748 2.13 6.11 6.11 0 0 0 4.465 1.717c1.316-.145 3.3-1.022 3.393-2.548a2.935 2.935 0 0 0-1-1.993c-.669-.789-1.351-1.569-2.027-2.353-1.134-1.299-3.014.595-1.898 1.891z"/>
                    </g>
                </g>
                <g data-name="그룹 5308">
                    <path data-name="패스 3868" d="M395.419 501.749q-1.955 18.248-2.53 36.6c-.054 1.718 2.615 1.716 2.669 0q.575-18.343 2.53-36.6c.183-1.705-2.487-1.692-2.669 0z" transform="translate(-359.9 -361.869)" style="fill:#fff"/>
                </g>
                <g data-name="그룹 5309">
                    <path data-name="패스 3869" d="M392.776 613.039a1.335 1.335 0 0 0 0-2.669 1.335 1.335 0 0 0 0 2.669z" transform="translate(-359.033 -429.868)" style="fill:#fff"/>
                </g>
                <g data-name="그룹 5310">
                    <path data-name="패스 3870" d="M421.325 373.848c.946.81 1.543 1.479 1.192 2.8a22.972 22.972 0 0 1-1.379 3.192l-2.74 6.19-5.478 12.381c-.689 1.557 1.61 2.916 2.3 1.347l7-15.82c1-2.257 2.4-4.627 3.028-7.021.55-2.1-.5-3.638-2.04-4.953-1.3-1.111-3.194.768-1.887 1.887z" transform="translate(-372.216 -282.138)" style="fill:#fff"/>
                </g>
                <g data-name="그룹 5311">
                    <path data-name="패스 3871" d="M407.41 457.039a1.335 1.335 0 0 0 0-2.669 1.335 1.335 0 0 0 0 2.669z" transform="translate(-368.088 -333.341)" style="fill:#fff"/>
                </g>
                <g data-name="그룹 5312">
                    <path data-name="패스 3872" d="m479.988 301.789.67-.558a1.341 1.341 0 0 0 .391-.944 1.359 1.359 0 0 0-.391-.943 1.344 1.344 0 0 0-.944-.391l-.355.048a1.336 1.336 0 0 0-.589.343l-.669.558a1.341 1.341 0 0 0-.391.944 1.358 1.358 0 0 0 .391.944 1.342 1.342 0 0 0 .944.391l.355-.048a1.333 1.333 0 0 0 .589-.343z" transform="translate(-412.385 -237.173)" style="fill:#fff"/>
                </g>
                <g data-name="그룹 5313">
                    <path data-name="패스 3873" d="M505.166 269.722a1.335 1.335 0 0 0 0-2.669 1.335 1.335 0 0 0 0 2.669z" transform="translate(-428.576 -217.435)" style="fill:#fff"/>
                </g>
                <g data-name="그룹 5314">
                    <path data-name="패스 3874" d="M455.561 318.659 453.218 321a1.335 1.335 0 0 0 1.887 1.887l2.343-2.343a1.335 1.335 0 0 0-1.887-1.887z" transform="translate(-396.987 -249.124)" style="fill:#fff"/>
                </g>
                <g data-name="그룹 5315">
                    <path data-name="패스 3875" d="M445.166 332.649a1.335 1.335 0 0 0 0-2.669 1.335 1.335 0 0 0 0 2.669z" transform="translate(-391.45 -256.373)" style="fill:#fff"/>
                </g>
            </g>
        </g>
        <g data-name="그룹 5317">
            <path data-name="패스 3876" d="M138.602 61.315h.87v-.34c0-.4.306-.588.705-.588s.705.188.705.588v.345h1.458v-.345c0-.4.306-.588.705-.588s.7.188.7.588v.345h.862a.58.58 0 1 1 0 1.16h-6.01a.58.58 0 1 1 0-1.16zm2.3-5.336v-.235c0-.4.306-.588.705-.588s.705.188.705.588v.235h2.288a.541.541 0 1 1 0 1.081h-5.971a.541.541 0 0 1 0-1.081zm-1.371 1.5h4.153a1.332 1.332 0 1 1 0 2.664h-4.153a1.332 1.332 0 0 1 0-2.664zm.353 1.614h3.464a.282.282 0 0 0 0-.564h-3.464a.282.282 0 1 0 0 .564z"/>
            <path data-name="패스 3877" d="M147.525 61.471v.29h4.952a.455.455 0 1 1 0 .909h-5.908a.445.445 0 0 1-.454-.454v-1.15a.4.4 0 0 1 .407-.407h4.842v-.282h-4.858a.431.431 0 1 1 0-.862h.713a4.165 4.165 0 0 0 .115-.449h-1a.493.493 0 1 1 0-.987h6.214a.494.494 0 1 1 0 .987h-.949v.447h.745a.425.425 0 0 1 .43.431v1.122a.4.4 0 0 1-.407.408zm-.337-6h4.514a1.137 1.137 0 1 1 0 2.273h-4.514a1.137 1.137 0 1 1 0-2.273zm.439 1.316h3.636a.181.181 0 1 0 0-.36h-3.636a.181.181 0 1 0 0 .36zm.987 2.727h1.575v-.448h-1.465a3.015 3.015 0 0 1-.111.446z"/>
            <path data-name="패스 3878" d="M153.83 57.295a2.169 2.169 0 0 1 4.27 0v3.4a2.171 2.171 0 0 1-4.27 0zm1.395 3.322a.742.742 0 0 0 1.481 0v-3.244a.741.741 0 0 0-1.481 0zm4-4.6a.705.705 0 0 1 1.41 0v6.026a.705.705 0 0 1-1.41 0z"/>
            <path data-name="패스 3879" d="M164.451 61.299h6.01a.588.588 0 1 1 0 1.175h-6.01a.588.588 0 1 1 0-1.175zm6.261-4.686a18.73 18.73 0 0 1-.376 3.738.706.706 0 0 1-1.4-.117.829.829 0 0 1 .024-.188 14.861 14.861 0 0 0 .345-3.126h-4.623a.588.588 0 1 1 0-1.175h5.493a.542.542 0 0 1 .541.541z"/>
            <path data-name="패스 3880" d="M172.347 56.59a.541.541 0 0 1 0-1.082h3.228a.542.542 0 0 1 .541.541v.384a3.491 3.491 0 0 1-.063.627h1.262v-1.04a.706.706 0 0 1 1.411 0v3.526a.706.706 0 0 1-1.411 0v-1.4h-1.708a3.869 3.869 0 0 1-3.275 1.528.588.588 0 0 1-.65-.556.57.57 0 0 1 .509-.6c1.763-.18 2.531-1.019 2.531-1.928zm.376 4.921c1.277 0 2.147-.705 2.147-1.215v-.157a.6.6 0 0 1 .666-.548c.392 0 .745.235.745.548v.2c.039.509.9 1.175 2.147 1.175a.581.581 0 0 1 0 1.16 4.068 4.068 0 0 0-5.7 0 .581.581 0 0 1 0-1.16z"/>
            <path data-name="패스 3881" d="M182.42 59.066h6.1a.55.55 0 1 1 0 1.1h-2.265v.462a.71.71 0 0 1-1.41 0v-.462h-2.429a.55.55 0 0 1 0-1.1zm.266-.446a.542.542 0 0 1-.541-.541v-2.108a.663.663 0 0 1 1.316 0v.1h1.372v-.117c0-.361.29-.525.642-.525s.642.164.642.525v.117h1.371v-.1a.663.663 0 0 1 1.316 0v2.108a.542.542 0 0 1-.541.541zm-.541 2.515a.71.71 0 0 1 1.411 0v.438h4.858a.55.55 0 0 1 0 1.1h-5.6a.655.655 0 0 1-.666-.666zm1.316-3.55h1.372v-.509h-1.371zm4.028 0v-.509h-1.371v.509z"/>
            <path data-name="패스 3882" d="M189.862 57.295a2.169 2.169 0 0 1 4.27 0v3.4a2.171 2.171 0 0 1-4.27 0zm1.395 3.322a.742.742 0 0 0 1.481 0v-3.244a.741.741 0 0 0-1.481 0zm4-4.6a.706.706 0 0 1 1.411 0v6.026a.706.706 0 0 1-1.411 0z"/>
            <path data-name="패스 3883" d="M200.045 57.099c0-1.12.932-1.708 2.092-1.708s2.1.588 2.1 1.708v.885c0 1.12-.94 1.7-2.1 1.7s-2.092-.58-2.092-1.7zm.329 3.51a.71.71 0 0 1 1.41 0v.963h4.529a.55.55 0 0 1 0 1.1h-5.273a.655.655 0 0 1-.666-.666zm1.066-2.625c0 .431.321.619.7.619s.7-.188.7-.619v-.885a.616.616 0 0 0-.7-.627.622.622 0 0 0-.7.627zm3.777-1.967a.705.705 0 0 1 1.41 0v1.293h.424a.55.55 0 0 1 0 1.1h-.424v1.732a.705.705 0 1 1-1.41 0z"/>
            <path data-name="패스 3884" d="M211.067 57.993v.431c.47-.024.932-.062 1.371-.117a.54.54 0 1 1 .173 1.066 38.848 38.848 0 0 1-4.341.157.533.533 0 1 1 0-1.066h1.4v-.47h-1.058a.542.542 0 0 1-.541-.541v-1.4a.542.542 0 0 1 .541-.541h3.51a.541.541 0 0 1 0 1.082h-2.654v.321h2.735a.541.541 0 0 1 0 1.082zm-2.319 4.678a.541.541 0 0 1-.541-.541v-1.857c0-.392.313-.525.7-.525s.7.133.7.525v.016h3.683v-.016c0-.392.313-.525.7-.525s.7.133.7.525v1.857a.542.542 0 0 1-.541.541zm4.537-1.019v-.368h-3.687v.368zm-.016-5.634a.706.706 0 0 1 1.411 0v2.946a.71.71 0 0 1-1.411 0z"/>
            <path data-name="패스 3885" d="M216.251 62.357a.542.542 0 0 1-.541-.541v-5.571a.7.7 0 0 1 .7-.7.689.689 0 0 1 .7.7v4.952a14.944 14.944 0 0 0 3.04-.258.7.7 0 0 1 .172-.024.584.584 0 0 1 .141 1.152 18.066 18.066 0 0 1-3.816.29zm4.85-6.339a.705.705 0 0 1 1.41 0v6.026a.705.705 0 0 1-1.41 0z"/>
            <path data-name="패스 3886" d="M224.006 56.801a.517.517 0 0 1-.5-.58c0-.337.18-.6.5-.6h1.348a.546.546 0 0 1 .549.549v.384a8.671 8.671 0 0 1-1.215 5.109.665.665 0 0 1-.58.3.656.656 0 0 1-.674-.658.743.743 0 0 1 .141-.454 6.479 6.479 0 0 0 1-4.051zm2.554 0a.517.517 0 0 1-.5-.58c0-.337.18-.6.5-.6h1.074a.545.545 0 0 1 .548.549v.384a10.877 10.877 0 0 1-1.073 5.485.628.628 0 0 1-.564.313.656.656 0 0 1-.674-.658.876.876 0 0 1 .133-.455 8.613 8.613 0 0 0 .846-4.443zm2.194-.807a.686.686 0 0 1 1.371 0v2.154h.353a.619.619 0 1 1 0 1.238h-.353v2.68a.686.686 0 0 1-1.371 0z"/>
            <path data-name="패스 3887" d="M138.556 69.39h6.1a.55.55 0 1 1 0 1.1h-.752v.956a.706.706 0 0 1-1.411 0v-.956h-1.614a4.669 4.669 0 0 1-.392 1.23.721.721 0 0 1-.666.47.689.689 0 0 1-.682-.909 6.254 6.254 0 0 0 .266-.791h-.854a.55.55 0 0 1 0-1.1zm2.351-4.168v-.133c0-.4.305-.549.7-.549s.706.149.706.549v.133h2.28a.541.541 0 1 1 0 1.082h-5.971a.541.541 0 0 1 0-1.082zm-1.512 1.395h4.435a1.2 1.2 0 0 1 0 2.4h-4.435a1.2 1.2 0 0 1 0-2.4zm.376 1.364h3.677a.165.165 0 0 0 0-.329h-3.682a.165.165 0 0 0 0 .329z"/>
            <path data-name="패스 3888" d="M146.538 69.022a.542.542 0 0 1-.541-.541v-3.033a.542.542 0 0 1 .541-.541h3.111a.542.542 0 0 1 .541.541v.956h1.278v-.987a.705.705 0 1 1 1.41 0v4.122a.705.705 0 1 1-1.41 0v-2.053h-1.278v1a.542.542 0 0 1-.541.541zm-.212 1.026a.71.71 0 0 1 1.411 0v.924h4.749a.55.55 0 0 1 0 1.1h-5.493a.655.655 0 0 1-.666-.666zm1.05-2.092h1.434v-1.982h-1.43z"/>
            <path data-name="패스 3889" d="M154.895 68.764a1.083 1.083 0 0 1 .627-1.136l.267-.165c.36-.219.6-.478.6-.783a.641.641 0 0 0-.713-.611.783.783 0 0 0-.823.587.612.612 0 0 1-1.168-.337 1.85 1.85 0 0 1 1.9-1.426c1.27 0 2.1.705 2.1 1.794a1.857 1.857 0 0 1-1.05 1.6l-.243.157a.41.41 0 0 0-.212.392v.157a.643.643 0 0 1-1.285 0zm.642 1.411a.791.791 0 1 1-.791.791.8.8 0 0 1 .791-.794z"/>
        </g>
    </g>
</svg>
