<svg xmlns="http://www.w3.org/2000/svg" width="196.092" height="204.405" viewBox="0 0 196.092 204.405">
    <g data-name="그룹 5146">
        <g data-name="그룹 5085">
            <path data-name="패스 3710" d="M-1964.147 209.39c1.172 8 2.364 16.085 5.261 23.638s7.688 14.641 14.619 18.811c3.74 2.25 8.528 3.561 12.44 1.626a16.033 16.033 0 0 0 5.285-4.971c4.542-5.949 8.515-12.441 10.736-19.589s2.6-15.02.065-22.064c-1.546-4.3-4.1-8.152-6.635-11.955-2.616-3.929-5.338-7.965-9.274-10.571-4.386-2.9-9.815-3.717-15.066-4.019-4.182-.24-8.6-.147-12.237 1.926-4.146 2.361-6.613 7.009-7.34 11.725s.072 9.531 1.159 14.177z" transform="translate(2037.265 -156.791)" style="fill:#ffcea9"/>
        </g>
        <g data-name="그룹 5086">
            <path data-name="패스 3711" d="M-1987.066 296.747a1.477 1.477 0 0 0-1.042-.77 26.462 26.462 0 0 1-9.61-4.67 39.007 39.007 0 0 1-12.1-16.334c-3.031-7.236-4.417-14.835-5.788-23.3l.044-.092a1.463 1.463 0 0 0 .068-.172l.02-.061a4.866 4.866 0 0 0 .146-.535c.013-.06.024-.12.035-.18l.016-.083a1.371 1.371 0 0 0 .02-.161v-.047c.013-.158.025-.315.03-.475a6.794 6.794 0 0 0-.024-.682c-.007-.1-.014-.193-.017-.29a2 2 0 0 0-.019-.2l-.009-.055a7.734 7.734 0 0 0-.354-1.378c-.019-.052-.039-.1-.059-.156s-.032-.076-.05-.113a3.832 3.832 0 0 0-.065-.145 5.848 5.848 0 0 0-.433-.741l-.054-.075a1.248 1.248 0 0 0-.073-.09l-.025-.028a4.691 4.691 0 0 0-.35-.369l-.022-.019a1.457 1.457 0 0 0-.245-.2l-.144-.1c-.05-.035-.1-.061-.185-.106q-.036-.021-.073-.04l-.068-.033a1.6 1.6 0 0 0-.12-.051 1.472 1.472 0 0 0-.158-.051 2.67 2.67 0 0 0-.174-.052 2.855 2.855 0 0 0-.167-.034 1.474 1.474 0 0 0-.65-.151 1.477 1.477 0 0 0-.945.342 6.509 6.509 0 0 0-1.969 3.528 18.893 18.893 0 0 1-2.177-7.222 1.461 1.461 0 0 0 .084-.483c0-.224.006-.45.012-.675a1.466 1.466 0 0 0-1.063-1.446 1.445 1.445 0 0 0-.411-.06 1.509 1.509 0 0 0-1.28.721l-.062.1c-.146.245-.269.466-.375.675-.033.064-.063.129-.094.194l-.044.093c-.024.048-.046.1-.065.148l-.067.18a6.142 6.142 0 0 0-.193.706 1.763 1.763 0 0 0-.037.268c0 .038 0 .075-.007.118v.075a1.475 1.475 0 0 0-.408.889 94.532 94.532 0 0 1-1.611 10.7 94.758 94.758 0 0 1-6.55 19.808 93.036 93.036 0 0 1-7.9 13.943 1.476 1.476 0 0 0 .2 1.906 1.474 1.474 0 0 0 1.017.406 1.477 1.477 0 0 0 .9-.3l.179-.136c.124-.093.248-.186.369-.283a40.506 40.506 0 0 0 11.536-14.6 17.364 17.364 0 0 1-2.228 7.487c-.441.863-.935 1.738-1.412 2.584a36.234 36.234 0 0 0-2.883 5.944 17.953 17.953 0 0 0-.464 9.366c.321 1.706.773 3.408 1.21 5.054 1.071 4.032 2.083 7.844 1.335 11.741a1.473 1.473 0 0 0-.169.669v.27c0 .25-.008.5-.006.75a12.286 12.286 0 0 0 .092 1.56 4.568 4.568 0 0 0 .25.98 1.168 1.168 0 0 0 .08.171l1.3-.7-1.281.736a1.48 1.48 0 0 0 .248.34 1.477 1.477 0 0 0 1.1.49h.2a2.29 2.29 0 0 0 .5-.066c.142-.032.282-.072.42-.117a6.9 6.9 0 0 0 1.635-.826 5.806 5.806 0 0 0 2.121-2.367c.11-.214.214-.433.318-.651a6.065 6.065 0 0 1 .925-1.557 1.7 1.7 0 0 1 1.218-.509 1.54 1.54 0 0 1 .449.065 1.275 1.275 0 0 1 .6.445 9.452 9.452 0 0 0 1.52 1.472 3.478 3.478 0 0 1 1.021.972 4.077 4.077 0 0 1 .325 1.557c.019.276.058.538.1.793l.04.279a1.477 1.477 0 0 0 .867 1.143 1.454 1.454 0 0 0 .6.128 1.511 1.511 0 0 0 .839-.254 3.1 3.1 0 0 0 .121-.086 7.631 7.631 0 0 0 1.449-1.6 6.99 6.99 0 0 1 .74-.9 17.659 17.659 0 0 1 2.086-1.6c.258-.179.516-.357.773-.541a6.79 6.79 0 0 0 2.713-3.549 12.512 12.512 0 0 0 .387-2.111 7.969 7.969 0 0 1 .388-1.919 4.508 4.508 0 0 1 1.882-2.1 25.8 25.8 0 0 1 3.5-1.869 18.384 18.384 0 0 1 7.132-1.9c.235 0 .469.009.7.026l.165.014c.195.017.37.03.538.03a2.829 2.829 0 0 0 1.239-.272 3.973 3.973 0 0 0 1.22-.98 2.57 2.57 0 0 1 .329-.324 12.445 12.445 0 0 1 1.191-.636c.238-.117.475-.233.707-.355a19.493 19.493 0 0 0 1.863-1.127l.365-.243a9.949 9.949 0 0 0 1.767-1.378c.086-.089.17-.182.25-.277a1.433 1.433 0 0 0 .125-.175l.052-.075a1.778 1.778 0 0 0 .139-.24 1.478 1.478 0 0 0-.031-1.318z" transform="translate(2086.233 -193.701)" style="fill:#b25006"/>
        </g>
        <g data-name="그룹 5087">
            <path data-name="패스 3712" d="M-1852.037 232.036c-2.963-19.4-10.673-37.784-18.129-55.56l-.871-2.077c-3.373-8.048-7.439-17.339-13.043-25.77a68.215 68.215 0 0 0-18.766-19.1 58.686 58.686 0 0 0-32.171-10.245 46.589 46.589 0 0 0-16.365 2.9c-14.671 5.481-25.964 18.063-28.771 32.055a1.485 1.485 0 0 0 0 .561 9.663 9.663 0 0 1-.274 1.11 1.5 1.5 0 0 0-.049.217s-.06.383-.071.467a1.473 1.473 0 0 0-.275.457c-.1.272-.209.544-.315.819l-.026.067a10.53 10.53 0 0 0-.546 3.96 1.462 1.462 0 0 0-.021.415 19.43 19.43 0 0 0 1.876 6.75 1.476 1.476 0 0 0 1.329.834h.087a1.476 1.476 0 0 0 1.308-.992 4.3 4.3 0 0 1 1.824-2.534 2.761 2.761 0 0 1 1.351-.378 2.318 2.318 0 0 1 .386.033 2.823 2.823 0 0 1 1.385.9l.128.127a5.085 5.085 0 0 0 .927.773 2.522 2.522 0 0 0 1.045.383 1.522 1.522 0 0 0 .175.01 3.119 3.119 0 0 0 .567-.069 3 3 0 0 0 1.987-2.262c.485-1.924-.8-3.589-1.733-4.8-.215-.28-.418-.544-.572-.773a4.751 4.751 0 0 1-.882-2.573 12.355 12.355 0 0 0 1.642 2.4 14.035 14.035 0 0 0 10.4 4.78c.242 0 .482-.007.724-.02a1.476 1.476 0 0 0 1.334-1.067 1.475 1.475 0 0 0-.567-1.612 60.37 60.37 0 0 1-3.142-2.35 20.165 20.165 0 0 1-6.338-7.891 11.3 11.3 0 0 1-.41-7.968 27.373 27.373 0 0 0 3.558 5.517 30.64 30.64 0 0 0 11.153 8.365 28.753 28.753 0 0 0 10.678 2.415h.042a1.477 1.477 0 0 0 1.378-.946 1.478 1.478 0 0 0-.42-1.653 15.37 15.37 0 0 1-4.721-7.378 14.45 14.45 0 0 1-.545-4.951l.006-.079a5.268 5.268 0 0 1 .409-2.095.708.708 0 0 1 .557-.363.436.436 0 0 1 .156.03 2.588 2.588 0 0 1 1.159 1.347c.162.333.308.67.456 1.008.237.542.481 1.1.786 1.662a20.8 20.8 0 0 0 3.911 5.1 18.294 18.294 0 0 0 2.424 1.98 4.27 4.27 0 0 0 1.627.7 2.874 2.874 0 0 0 .484.043 1.958 1.958 0 0 0 .218-.011h.04a1.476 1.476 0 0 0 1.218-.853 3.472 3.472 0 0 0 .225-.766c.021-.1.052-.247.07-.3a.625.625 0 0 1 .076-.139.2.2 0 0 1 .042-.006c.25 0 .84.831 1.035 1.1l8.66 12.186a45.309 45.309 0 0 0 .575 5.707l.084.586a24.523 24.523 0 0 0 .548 2.633 1.481 1.481 0 0 0 .315.6 14.46 14.46 0 0 1 .783 3.322c.509 4.192-.651 8.92-3.446 14.052-1.242 2.281-2.713 4.511-4.136 6.667-1.508 2.285-3.067 4.648-4.4 7.133-1.247 2.323-2.289 4.754-3.3 7.105-.986 2.3-2.007 4.681-3.2 6.9a31.911 31.911 0 0 1-4.273 6.139 56.951 56.951 0 0 1-5.453 5.19q-.869.745-1.749 1.484a54.791 54.791 0 0 0-9.244 9.166 21.373 21.373 0 0 0-3.443 6.725c-.97 3.368-.064 6 2.308 6.713a4.455 4.455 0 0 0 1.274.185c2.712 0 4.7-2.34 5.246-3.057.5-.655.94-1.329 1.369-1.979a13.758 13.758 0 0 1 2.922-3.542c2.306-1.767 5.243-2.228 8.353-2.716 1.291-.2 2.626-.413 3.917-.724 5.479-1.323 10.008-4.771 13.823-7.9a108.954 108.954 0 0 0 11.274-10.688 49.77 49.77 0 0 1 .579 7.034 18.906 18.906 0 0 1-1.07 6.66 14.478 14.478 0 0 1-3.991 5.644c-.764.69-1.607 1.359-2.5 2.067a43.58 43.58 0 0 0-3.557 3.037 1.476 1.476 0 0 0-.121 1.968 1.475 1.475 0 0 0 1.158.56 1.473 1.473 0 0 0 .785-.227 45.874 45.874 0 0 1 4.335-2.306 40.237 40.237 0 0 0 5.5-3.049 14.166 14.166 0 0 0 3.011-2.808 11.879 11.879 0 0 0 2.148-5.014 33.542 33.542 0 0 0 .464-5.461 29.77 29.77 0 0 1 .448-5.17c.327-1.583 1.431-5.367 4.6-6.316a4.454 4.454 0 0 1 1.256-.187 3.031 3.031 0 0 1 1.835.555c.283.216 1.143.875 1.005 3.158-.017.281-.048.572-.078.868a6.957 6.957 0 0 0 .581 4.49 7.92 7.92 0 0 0 3.433 2.7l.365.188a8.524 8.524 0 0 1 3.224 2.448 7.164 7.164 0 0 1 1.207 4.032 12.576 12.576 0 0 1-1.224 5.175 39.528 39.528 0 0 1-2.633 4.981 51.636 51.636 0 0 1-4.231 5.951 1.476 1.476 0 0 0-.138 1.677 1.476 1.476 0 0 0 1.278.738 1.473 1.473 0 0 0 .243-.02l.16-.03a15.675 15.675 0 0 1 2.385-.156c.679 0 1.353.026 2.066.053s1.446.055 2.183.055c.525 0 1-.014 1.453-.044 3.4-.22 5.743-1.383 6.958-3.458a1.469 1.469 0 0 0 .311-.329c.075-.108.149-.217.221-.325.239-.355.445-.64.646-.894a1.862 1.862 0 0 1 .467-.461 4.019 4.019 0 0 1 .357.77l.216.581a1.456 1.456 0 0 0 .18.366l.038.07a3.061 3.061 0 0 1 .4.9.862.862 0 0 1-.1.493 1.432 1.432 0 0 0-.078.224 1.49 1.49 0 0 0-.161.2c-.153.23-.339.464-.522.688a1.474 1.474 0 0 0-.376.468c-1.263 2.471-.076 5.6.563 7.284a15.61 15.61 0 0 1 1.073 3.85 14.292 14.292 0 0 1-.3 4.089c-.147.771-.327 1.529-.516 2.331a63.918 63.918 0 0 0-.489 2.182 29.69 29.69 0 0 0-.554 4.727 31.387 31.387 0 0 0 .195 4.82c.152 1.289.425 2.541.689 3.751l.128.591a14.062 14.062 0 0 1 .381 5.527 1.476 1.476 0 0 0 .523 1.443 1.477 1.477 0 0 0 .924.325 1.476 1.476 0 0 0 .6-.127 24.243 24.243 0 0 0 7.6-5.308 1.405 1.405 0 0 0 .161-.2l.275-.407a17.381 17.381 0 0 1 1.379-1.866l.059-.07.057-.073.131-.181q.125-.177.243-.359c.052-.08.1-.162.152-.244l.048-.079a1.477 1.477 0 0 0 .2-.517 59.07 59.07 0 0 0 3.5-5.21c8.36-14.05 11.312-32.664 8.295-52.414z" transform="translate(2046.837 -118.354)" style="fill:#d87523"/>
        </g>
        <g data-name="그룹 5100">
            <g data-name="그룹 5089">
                <g data-name="그룹 5088">
                    <path data-name="패스 3713" d="M71.417 53.766c1.3 8.038 2.732 16.154 5.895 23.7a40.77 40.77 0 0 0 12.57 16.937 27.776 27.776 0 0 0 10.213 4.945c1.154.28 1.646-1.5.49-1.78-6.446-1.566-11.872-5.749-15.908-10.913-4.573-5.852-7.191-12.946-8.934-20.1-1.069-4.384-1.827-8.835-2.547-13.287a.93.93 0 0 0-1.135-.644.945.945 0 0 0-.644 1.135z"/>
                </g>
            </g>
            <g data-name="그룹 5091">
                <g data-name="그룹 5090">
                    <path data-name="패스 3714" d="M66.161 38.086C68.142 22.7 80.199 10.01 94.407 4.702c15.815-5.908 33.468-2.023 47.2 7.184a66.925 66.925 0 0 1 18.359 18.691c5.293 7.963 9.226 16.729 12.911 25.523 7.755 18.507 15.853 37.319 18.9 57.29 2.646 17.325 1 36.132-8.121 51.431a57.508 57.508 0 0 1-3.51 5.207c-.716.947.885 1.868 1.593.931 10.956-14.5 14.207-33.45 12.646-51.234-1.813-20.669-9.793-40.116-17.649-59.1-3.736-9.028-7.463-18.113-12.42-26.555a72.989 72.989 0 0 0-17.9-20.966c-13.4-10.423-31.365-16-48.138-11.57C83.204 5.52 69.744 17.246 65.442 32.47a38.9 38.9 0 0 0-1.124 5.615c-.151 1.175 1.7 1.164 1.845 0z"/>
                </g>
            </g>
            <g data-name="그룹 5093">
                <g data-name="그룹 5092">
                    <path data-name="패스 3715" d="M63.151 43.216a20.175 20.175 0 0 0 3.1 9.243.934.934 0 0 0 1.686-.221c.344-1.606.7-3.6 2.284-4.459a1.886 1.886 0 0 1 1.853-.088c.677.4 1.147 1.093 1.8 1.536a2.78 2.78 0 0 0 4.09-1.3c.866-1.815.152-3.6-.94-5.132-.918-1.291-2.755-3.3-1.563-4.946l-1.686-.22a14.129 14.129 0 0 0 11.941 8.754 12.663 12.663 0 0 0 4.335-.386.934.934 0 0 0 .22-1.686c-5.253-3.613-11.473-8-12.051-14.952a9.374 9.374 0 0 1 .926-5.126h-1.593a28.44 28.44 0 0 0 8.463 10.941 30.636 30.636 0 0 0 12.674 6.031 27.831 27.831 0 0 0 7.906.533.931.931 0 0 0 .466-1.719 14.468 14.468 0 0 1-6.245-7.373 14.717 14.717 0 0 1-.987-4.841 12.566 12.566 0 0 1 .144-2.418 2.065 2.065 0 0 1 .333-.991c.118-.142.19-.066.308.01a3.737 3.737 0 0 1 1.115 1.742 21.159 21.159 0 0 0 1.281 2.611 21.1 21.1 0 0 0 3.524 4.5 21.509 21.509 0 0 0 2.224 1.869 5.021 5.021 0 0 0 2.211 1.038 2.108 2.108 0 0 0 2.266-.955 2.388 2.388 0 0 0 .232-.655 2.108 2.108 0 0 0 .106-.508c-.086-.145.083.009-.011-.008-.008 0-.245.1-.245.106 0 .067.273.251.335.326.817 1 1.515 2.128 2.263 3.18l2.241 3.154 4.59 6.458a.949.949 0 0 0 1.263.331.93.93 0 0 0 .33-1.262l-8.751-12.314c-.6-.85-1.406-1.962-2.615-1.681a1.629 1.629 0 0 0-1.125 1.065c-.113.306-.156.752-.251.958.027-.059-.045.005-.078.009a1.238 1.238 0 0 1-.282-.017 2.806 2.806 0 0 1-1.062-.471 16.951 16.951 0 0 1-2.228-1.822 19.335 19.335 0 0 1-3.633-4.742c-.462-.847-.791-1.744-1.211-2.608a3.955 3.955 0 0 0-1.966-2.084 2.084 2.084 0 0 0-2.5.951 6.413 6.413 0 0 0-.625 2.834 15.869 15.869 0 0 0 .6 5.464 16.524 16.524 0 0 0 7.516 9.745l.466-1.719a26.915 26.915 0 0 1-12.926-2.224 29.061 29.061 0 0 1-10.614-7.958 26.179 26.179 0 0 1-3.911-6.41.928.928 0 0 0-1.593 0 12.4 12.4 0 0 0-.144 10.365 21.757 21.757 0 0 0 6.776 8.48c1.656 1.338 3.4 2.552 5.155 3.758l.22-1.687a12.247 12.247 0 0 1-12.088-3.921 10.628 10.628 0 0 1-1.918-3.158.937.937 0 0 0-1.686-.221c-1.175 1.622-.51 3.83.509 5.348.833 1.241 2.494 2.824 2.1 4.393a1.6 1.6 0 0 1-.916 1.191c-.011 0-.193.025-.209.024a1.066 1.066 0 0 1-.444-.176 4.884 4.884 0 0 1-.8-.7 4.216 4.216 0 0 0-2.162-1.3 4.1 4.1 0 0 0-2.716.516c-2 1.132-2.626 3.438-3.073 5.53l1.686-.22a18.21 18.21 0 0 1-2.851-8.312.946.946 0 0 0-.923-.923.93.93 0 0 0-.923.923z"/>
                </g>
            </g>
            <g data-name="그룹 5095">
                <g data-name="그룹 5094">
                    <path data-name="패스 3716" d="M124.148 56.49c1.84 4.893.75 10.3-1.369 14.919-2.3 5.008-5.744 9.365-8.55 14.079-2.719 4.569-4.455 9.587-6.784 14.348a34.154 34.154 0 0 1-4.02 6.532 46.26 46.26 0 0 1-5.475 5.54c-3.848 3.386-7.991 6.494-11.228 10.51a24.6 24.6 0 0 0-3.9 6.56c-.8 2.066-1.4 4.648-.224 6.7 1.247 2.184 3.88 2.412 6 1.5 2.337-1.009 3.608-3.162 4.943-5.2a12.112 12.112 0 0 1 2.191-2.652 9.189 9.189 0 0 1 2.7-1.556 33.578 33.578 0 0 1 6.634-1.466 28.5 28.5 0 0 0 7.23-2.022 35.91 35.91 0 0 0 6.7-4.084 102.616 102.616 0 0 0 12.472-11.061q1.408-1.461 2.759-2.975l-1.542-.407c.679 4.69 1.344 9.745-.241 14.328a13.951 13.951 0 0 1-3.941 5.706c-1.848 1.691-3.933 3.1-5.75 4.829a12.981 12.981 0 0 0-4.2 6.943.935.935 0 0 0 .534 1.088.921.921 0 0 0 1.152-.377c2.441-4.556 8.06-6.144 12.34-8.6a15.251 15.251 0 0 0 5.793-5.254c1.869-3.188 1.8-6.986 1.924-10.56.1-2.885.42-6.235 2.412-8.5a4.782 4.782 0 0 1 3.4-1.787 2.308 2.308 0 0 1 2.544 1.9c.3 1.486-.216 3.05-.113 4.553a5.3 5.3 0 0 0 2.184 4 34.766 34.766 0 0 0 3.591 2.066 5.828 5.828 0 0 1 2.721 3.21c1.164 3.479-.493 7.039-2.129 10.065a50.767 50.767 0 0 1-6.341 9.169q-.908 1.045-1.873 2.04c-.835.864.414 2.075 1.3 1.3 2.087-1.8 5.165-1.652 7.743-1.537 2.633.118 5.309.172 7.776-.9a6.555 6.555 0 0 0 3.149-2.784c.579-1.038-1.014-1.97-1.593-.931-1.149 2.06-3.63 2.673-5.827 2.815-2.745.177-5.475-.312-8.215.1a8.491 8.491 0 0 0-4.338 1.929l1.3 1.3a53.3 53.3 0 0 0 7.205-9.321 41.524 41.524 0 0 0 2.727-5.166 14.187 14.187 0 0 0 1.344-5.781 8.649 8.649 0 0 0-1.484-4.869 10 10 0 0 0-3.742-2.9c-1.154-.6-2.531-1.209-3.215-2.339-.8-1.33-.379-3.049-.292-4.506a4.9 4.9 0 0 0-1.581-4.419 4.979 4.979 0 0 0-4.412-.61c-3.256.974-4.978 4.324-5.621 7.43-.728 3.513-.234 7.137-.915 10.649a10.394 10.394 0 0 1-1.872 4.4 12.555 12.555 0 0 1-2.685 2.5c-4.378 3.066-10.194 4.337-13.641 8.653a11.468 11.468 0 0 0-1.166 1.745l1.686.711c.873-5.033 5.89-7.714 9.361-10.854a16.035 16.035 0 0 0 4.382-6.215 20.554 20.554 0 0 0 1.166-7.176 57.747 57.747 0 0 0-.777-8.542.928.928 0 0 0-1.542-.407 107.29 107.29 0 0 1-11.946 11.455c-3.937 3.228-8.2 6.39-13.234 7.605-4.286 1.035-9.165.9-12.82 3.7-2.021 1.548-3.062 3.817-4.569 5.8-1.086 1.43-3.023 2.918-4.922 2.35-2.041-.61-1.767-3.309-1.312-4.89a20.186 20.186 0 0 1 3.216-6.261c2.965-4.048 6.986-7.162 10.763-10.4a58.217 58.217 0 0 0 5.592-5.327 33.249 33.249 0 0 0 4.473-6.423c2.44-4.538 4.058-9.464 6.5-14 2.561-4.77 5.946-9.038 8.534-13.792 2.455-4.508 4.246-9.739 3.615-14.936a16.033 16.033 0 0 0-.89-3.727.949.949 0 0 0-1.135-.644.929.929 0 0 0-.644 1.135z"/>
                </g>
            </g>
            <g data-name="그룹 5097">
                <g data-name="그룹 5096">
                    <path data-name="패스 3717" d="M168.822 137.565c-1.987 1.564-2.128 4.46-1.524 6.721.376 1.408 1 2.732 1.437 4.119a10.639 10.639 0 0 1 .413 4.349 34.552 34.552 0 0 1-.867 4.372 37.773 37.773 0 0 0-.825 4.658 30.6 30.6 0 0 0 .466 9.3c.566 2.786 1.726 6.087.27 8.788-.358.664.244 1.63 1.042 1.355a24.777 24.777 0 0 0 9.958-6.4c.815-.864-.488-2.171-1.305-1.3a22.8 22.8 0 0 1-9.143 5.923l1.042 1.355c1.383-2.564.937-5.469.351-8.193-.3-1.4-.626-2.786-.795-4.206a29.738 29.738 0 0 1-.185-4.591 28.089 28.089 0 0 1 .525-4.492c.3-1.515.717-3.007 1.008-4.525a15.482 15.482 0 0 0 .317-4.523 16.912 16.912 0 0 0-1.161-4.218c-.83-2.186-1.96-5.421.281-7.186a.928.928 0 0 0 0-1.3.946.946 0 0 0-1.3 0z"/>
                </g>
            </g>
            <g data-name="그룹 5099">
                <g data-name="그룹 5098">
                    <path data-name="패스 3718" d="M60.349 43.846a92.965 92.965 0 0 1-4.033 20.463 93.965 93.965 0 0 1-8.459 19.076 93.553 93.553 0 0 1-6.6 9.815.925.925 0 0 0 .144 1.118.943.943 0 0 0 1.118.144 40.818 40.818 0 0 0 14.866-14.793 40.887 40.887 0 0 0 2.63-5.431h-1.78c.635 3.047-.441 6.147-1.784 8.851-1.4 2.821-3.156 5.451-4.309 8.394a17.394 17.394 0 0 0-.934 8.811 77.932 77.932 0 0 0 2 8.605c.777 3.072 1.4 6.289.766 9.446a.946.946 0 0 0 .644 1.135.932.932 0 0 0 1.135-.644c1.212-5.993-1.426-11.707-2.515-17.5a16.6 16.6 0 0 1 .409-8.612c1.019-2.956 2.8-5.568 4.214-8.337 1.677-3.279 2.931-6.933 2.157-10.644a.932.932 0 0 0-.89-.677.965.965 0 0 0-.89.677 38.99 38.99 0 0 1-11.919 15.93 37.712 37.712 0 0 1-4.728 3.191l1.262 1.262a94.074 94.074 0 0 0 10.961-18.218 96.119 96.119 0 0 0 6.652-20.117 95.534 95.534 0 0 0 1.733-11.951.93.93 0 0 0-.923-.923.941.941 0 0 0-.923.923z"/>
                </g>
            </g>
        </g>
        <g data-name="그룹 5125">
            <g data-name="그룹 5108">
                <g data-name="그룹 5104">
                    <g data-name="그룹 5101">
                        <path data-name="패스 3719" d="m-2005.886 445.584.2-35.03 12.211-22.461.488 53.937-3.574 8.711-8.381.076z" transform="translate(2062.07 -287.959)" style="fill:#966e53"/>
                    </g>
                    <g data-name="그룹 5103">
                        <g data-name="그룹 5102">
                            <path data-name="패스 3720" d="m57.106 157.625.155-27.287.044-7.743-.126.466 4.134-7.6 6.58-12.1 1.5-2.754-1.719-.465.018 1.963.047 5.238.068 7.54.08 8.868.083 9.222.078 8.6.064 7.036.04 4.424c0 .311-.013.63.009.94.017.237-.037-.085.029-.127-.142.092-.264.645-.327.8l-3 7.31-.243.592.89-.677-7.319.066-1.062.01.889.678-.943-5.233a.931.931 0 0 0-1.135-.644.943.943 0 0 0-.644 1.135l.942 5.233a.928.928 0 0 0 .89.677l7.319-.066 1.061-.01a.959.959 0 0 0 .889-.677l2.581-6.288a8.387 8.387 0 0 0 1.023-3.108l-.033-3.6-.058-6.462-.075-8.282-.083-9.2-.082-9.05-.073-8-.053-5.9c-.008-.957.005-1.917-.026-2.873v-.124a.93.93 0 0 0-1.719-.466l-2.426 4.463-4.97 9.141-4.127 7.591c-.229.421-.479.836-.688 1.267a2.984 2.984 0 0 0-.131 1.3l-.008 1.383-.015 2.766-.031 5.439-.125 21.848-.015 2.766a.923.923 0 0 0 1.843-.026z"/>
                        </g>
                    </g>
                </g>
                <g data-name="그룹 5106">
                    <g data-name="그룹 5105">
                        <path data-name="패스 3721" d="m69.385 160.89.156-27.287.044-7.744-.126.466 4.134-7.6 6.58-12.1 1.5-2.754-1.719-.466.018 1.963.048 5.239.068 7.54.081 8.868.083 9.222.078 8.6.063 7.037.04 4.423c0 .311-.013.63.009.94.017.237-.037-.085.028-.127-.142.091-.265.645-.327.8l-3 7.309-.242.592.889-.677-7.319.066-1.061.01.89.677-.943-5.232a.93.93 0 0 0-1.135-.644.943.943 0 0 0-.645 1.135l.943 5.233a.927.927 0 0 0 .889.677l7.319-.066 1.061-.01a.959.959 0 0 0 .89-.678l2.58-6.287a8.386 8.386 0 0 0 1.024-3.108l-.033-3.6-.058-6.462-.075-8.283-.083-9.2-.082-9.05-.073-8-.053-5.9c-.009-.957.005-1.917-.026-2.873v-.124a.93.93 0 0 0-1.719-.466l-2.426 4.463-4.97 9.142-4.126 7.591c-.229.421-.479.836-.689 1.267a3 3 0 0 0-.131 1.3l-.008 1.382-.016 2.766-.031 5.439-.124 21.848-.016 2.765a.923.923 0 0 0 1.841-.022z"/>
                    </g>
                </g>
                <g data-name="그룹 5107">
                    <path data-name="패스 3722" d="m-1972.148 400.319 12.282 3.614.458 50.571-12.279-3.184z" transform="translate(2040.783 -295.673)" style="fill:#afafaf"/>
                    <path data-name="패스 3723" d="m82.121 159.787-13.761-3.569-.475-52.562 13.762 4.05zm-12.292-4.713 10.8 2.8-.443-49.061-10.8-3.178z"/>
                </g>
            </g>
            <g data-name="그룹 5116">
                <g data-name="그룹 5112">
                    <g data-name="그룹 5109">
                        <path data-name="패스 3724" d="m-2058.639 493.072 3.9-31.134 13.246-18.679-5.3 48.022-4.1 7.368-7.462-.823z" transform="translate(2095.354 -322.767)" style="fill:#966e53"/>
                    </g>
                    <g data-name="그룹 5111">
                        <g data-name="그룹 5110">
                            <path data-name="패스 3725" d="m37.639 170.31 3.033-24.216.866-6.919-.125.466 4.5-6.345 7.108-10.023 1.639-2.311-1.719-.466-.53 4.808-1.263 11.448-1.526 13.836-1.328 12.038c-.213 1.929-.517 3.872-.641 5.81 0 .028-.006.055-.009.083l.126-.466-3.592 6.447-.513.921.8-.457-7.462-.823.923.923-.282-4.754c-.07-1.18-1.916-1.188-1.845 0l.282 4.754a.954.954 0 0 0 .923.923l7.462.823a.9.9 0 0 0 .8-.457l3-5.386c.366-.656.769-1.3 1.1-1.977a2.536 2.536 0 0 0 .17-.849l.987-8.951 1.716-15.553 1.675-15.185.583-5.286c.094-.848.236-1.706.282-2.559 0-.037.008-.074.012-.111a.927.927 0 0 0-.677-.89.96.96 0 0 0-1.042.424l-2.623 3.7-5.4 7.618-4.482 6.32c-.242.341-.532.678-.739 1.043a3.7 3.7 0 0 0-.229 1.285l-.148 1.184-.308 2.458-.6 4.825-2.429 19.391-.307 2.458a.927.927 0 0 0 .922.923.946.946 0 0 0 .91-.925z"/>
                        </g>
                    </g>
                </g>
                <g data-name="그룹 5114">
                    <g data-name="그룹 5113">
                        <path data-name="패스 3726" d="m48.211 174.514 3.033-24.215.866-6.919-.126.466 4.5-6.345 7.108-10.023 1.639-2.311-1.719-.466-.53 4.808-1.262 11.448-1.527 13.836-1.332 12.037c-.212 1.929-.517 3.872-.641 5.81 0 .028-.006.055-.009.083l.126-.465-3.592 6.447-.513.921.8-.457-7.461-.823.922.923-.282-4.754c-.07-1.18-1.916-1.188-1.845 0l.282 4.754a.954.954 0 0 0 .923.923l7.461.823a.9.9 0 0 0 .8-.457l3-5.386c.365-.656.769-1.3 1.1-1.977a2.526 2.526 0 0 0 .17-.849l.988-8.95 1.715-15.553 1.676-15.186.583-5.286c.094-.848.236-1.707.282-2.559 0-.037.008-.074.012-.111a.926.926 0 0 0-.677-.89.961.961 0 0 0-1.042.424l-2.623 3.7-5.4 7.618-4.481 6.32c-.242.341-.532.678-.74 1.043a3.69 3.69 0 0 0-.228 1.285l-.148 1.183-.308 2.458-.6 4.825-2.428 19.391-.308 2.458a.927.927 0 0 0 .922.923.946.946 0 0 0 .914-.925z"/>
                    </g>
                </g>
                <g data-name="그룹 5115">
                    <path data-name="패스 3727" d="m-2021.943 454.146 10.54 4.519-4.967 45.025-10.582-4.137z" transform="translate(2075.361 -329.636)" style="fill:#afafaf"/>
                    <path data-name="패스 3728" d="m59.621 175.095-12.006-4.693 5.18-46.96 11.958 5.128zm-10.414-5.656 9.158 3.58 4.8-43.524-9.122-3.911z"/>
                </g>
            </g>
            <g data-name="그룹 5124">
                <g data-name="그룹 5120">
                    <g data-name="그룹 5117">
                        <path data-name="패스 3729" d="m-2086.251 520.756.389-26.409 9.359-16.851v40.667l-2.754 6.544h-6.319z" transform="translate(2112.776 -344.368)" style="fill:#966e53"/>
                    </g>
                    <g data-name="그룹 5119">
                        <g data-name="그룹 5118">
                            <path data-name="패스 3730" d="m27.447 176.39.3-20.54.087-5.869-.126.466 3.162-5.693 5.04-9.074 1.157-2.084-1.719-.466V173c0 .236-.016.477 0 .712.013.21-.06-.107.029-.152-.1.049-.2.487-.245.582l-2.308 5.483-.2.469.89-.677h-6.319l.889.677-.675-3.951a.93.93 0 0 0-1.135-.644.944.944 0 0 0-.644 1.135l.675 3.951a.928.928 0 0 0 .89.678h6.319a.96.96 0 0 0 .889-.678l2-4.746a6.352 6.352 0 0 0 .79-2.372v-33.6c0-2.21.071-4.432 0-6.64v-.1a.93.93 0 0 0-1.72-.465l-5.7 10.263-3.137 5.648c-.173.311-.364.619-.521.939a5.484 5.484 0 0 0-.15 2.116l-.033 2.2-.059 4.034-.273 18.523a.924.924 0 0 0 1.847.005z"/>
                        </g>
                    </g>
                </g>
                <g data-name="그룹 5122">
                    <g data-name="그룹 5121">
                        <path data-name="패스 3731" d="m36.682 178.933.3-20.54.086-5.869-.126.465 3.162-5.693 5.04-9.074 1.157-2.084-1.719-.465v39.872c0 .235-.015.477 0 .712.014.209-.06-.107.029-.153-.1.049-.2.487-.245.582l-2.308 5.483-.2.469.89-.677h-6.319l.89.677-.675-3.951a.93.93 0 0 0-1.135-.644.944.944 0 0 0-.644 1.135l.675 3.951a.927.927 0 0 0 .89.677h6.319a.96.96 0 0 0 .89-.677l2-4.746a6.352 6.352 0 0 0 .79-2.372v-33.6c0-2.209.071-4.432 0-6.64v-.1a.93.93 0 0 0-1.719-.466l-5.7 10.264-3.136 5.648c-.173.312-.365.619-.522.939a5.484 5.484 0 0 0-.15 2.116l-.032 2.2-.059 4.035-.273 18.523a.923.923 0 0 0 1.844.003z"/>
                    </g>
                </g>
                <g data-name="그룹 5123">
                    <path data-name="패스 3732" d="m-2059.837 486.716 9.236 2.808v38.129l-9.236-2.484z" transform="translate(2096.11 -350.185)" style="fill:#afafaf"/>
                    <path data-name="패스 3733" d="m46.246 178.431-10.711-2.882v-40.014l10.711 3.257zm-9.235-4.013 7.759 2.087v-36.619l-7.759-2.36z"/>
                </g>
            </g>
        </g>
        <g data-name="그룹 5126">
            <path data-name="패스 3734" d="m-1996.868 504.448-1.245-12.43c3.686.3 6.635-3.343 7.342-6.973s-.091-7.369-.037-11.067c.1-6.771 3.025-13.144 4.416-19.771s.771-14.543-4.573-18.7c-1.469-1.144-3.25-1.964-4.336-3.476-1.674-2.332-1.192-5.5-1.525-8.353-1.054-9-10.928-14.825-19.991-14.649s-17.389 4.726-25.3 9.157l-17.1 9.579c-4.612 2.584-9.4 5.329-12.315 9.74-2.106 3.188-3.074 7.033-5.274 10.157-2.691 3.822-6.942 6.191-11.045 8.431l-31.6 17.253a54.1 54.1 0 0 1-7.974 3.805c-3.262 1.14-6.718 1.647-9.981 2.784a27.883 27.883 0 0 0-18.221 24.746z" transform="translate(2156.547 -301.164)" style="fill:#262626"/>
        </g>
        <g data-name="그룹 5128">
            <g data-name="그룹 5127">
                <path data-name="패스 3735" d="m160.602 203.284-1.246-12.43-.922.923c4.2.243 7.34-3.633 8.182-7.413a27.907 27.907 0 0 0 .181-7.952 32.813 32.813 0 0 1 .285-7.914c.886-5.072 2.81-9.884 3.9-14.908a26.771 26.771 0 0 0 .125-11.883 15.537 15.537 0 0 0-2.324-5.306 16.327 16.327 0 0 0-4.492-4.079 8.174 8.174 0 0 1-2.4-2.144 7.12 7.12 0 0 1-.989-3.295 40.119 40.119 0 0 0-.622-6.388c-1.9-7.426-9.406-12.175-16.63-13.274-9.684-1.473-19.067 3.134-27.3 7.674-4.741 2.615-9.452 5.288-14.176 7.935-4.3 2.411-8.827 4.642-12.757 7.65a23.358 23.358 0 0 0-4.728 4.723 34.207 34.207 0 0 0-3.3 6.3 21.9 21.9 0 0 1-3.668 6.04 24.794 24.794 0 0 1-5.158 4.112c-4.443 2.777-9.18 5.129-13.776 7.638l-14.768 8.062-7.384 4.031a56.616 56.616 0 0 1-7.16 3.5c-4.515 1.691-9.375 2.162-13.728 4.329a29.136 29.136 0 0 0-14.9 18.5 27.315 27.315 0 0 0-.847 5.8c-.046 1.188 1.8 1.185 1.845 0a27.049 27.049 0 0 1 10.68-20.138 26.136 26.136 0 0 1 5.035-2.993 38.272 38.272 0 0 1 6.667-2.078 46.263 46.263 0 0 0 7.129-2.206c2.342-.995 4.568-2.228 6.8-3.445l28.355-15.48c3.989-2.178 8.212-4.225 11.556-7.365a19.145 19.145 0 0 0 3.934-5.305c1.044-2.045 1.843-4.207 2.939-6.226 2.155-3.971 5.715-6.676 9.521-8.963 4.38-2.632 8.906-5.038 13.364-7.536 4.48-2.51 8.924-5.108 13.5-7.448a50.96 50.96 0 0 1 13.6-5.042c7.534-1.428 16.059.44 21.041 6.654a13.457 13.457 0 0 1 2.427 4.612 29.226 29.226 0 0 1 .651 6.055 8.567 8.567 0 0 0 2.248 5.7c1.476 1.452 3.427 2.286 4.872 3.782 2.656 2.749 3.62 6.683 3.707 10.406.1 4.428-1.095 8.657-2.338 12.865-1.39 4.705-2.8 9.472-2.7 14.43.094 4.558 1.363 9.831-1.689 13.752a5.561 5.561 0 0 1-4.7 2.386.925.925 0 0 0-.923.923l1.245 12.43c.117 1.17 1.964 1.182 1.845 0z"/>
            </g>
        </g>
        <g data-name="그룹 5137" style="opacity:.46">
            <g data-name="그룹 5129" style="opacity:.5">
                <path data-name="패스 3736" d="M-1939.544 546.031s31.594-32.728 40.181-37.913c0 0 16.85-18.147 18.146-30.622 0 0 7.778 3.079-4.05 37.913l-18.309 32.305z" transform="translate(2020.212 -344.368)" style="fill:#3f3f3f"/>
            </g>
            <g data-name="그룹 5131" style="opacity:.5">
                <g data-name="그룹 5130">
                    <path data-name="패스 3737" d="M-2026.818 530.328a85.977 85.977 0 0 0 13.792 4.033 28.793 28.793 0 0 0 14.217-.715c3.594-1.228 6.785-3.378 10.012-5.379a143.253 143.253 0 0 1 27.873-13.347 46.5 46.5 0 0 0 6.354-2.535c5.309-2.8 9.088-7.847 11.927-13.137-4 .849-7.96 1.867-11.92 2.885-13.122 3.373-26.588 6.9-37.571 14.835-5.524 3.989-10.611 9.172-17.278 10.576-5.1 1.074-10.347-.248-15.455-1.266a4.4 4.4 0 0 0-3.18.183c-.924.576-1.12 2.239-.1 2.634z" transform="translate(2076.549 -358.092)" style="fill:#3f3f3f"/>
                </g>
            </g>
            <g data-name="그룹 5133" style="opacity:.5">
                <g data-name="그룹 5132">
                    <path data-name="패스 3738" d="M-1780.477 594.894c3.676-5.532 7.381-11.123 9.742-17.331a44.943 44.943 0 0 0 2.23-23.7c2.869.836 4.876 3.569 5.63 6.461a23.021 23.021 0 0 1 .053 8.906 127.862 127.862 0 0 1-3.242 16.011c-.794 2.941-1.762 5.973-3.883 8.159s-4.264 1.624-8.282 1.567z" transform="translate(1919.848 -392.554)" style="fill:#3f3f3f"/>
                </g>
            </g>
            <g data-name="그룹 5134" style="opacity:.5">
                <path data-name="패스 3739" d="M-1875.667 512.146a38.06 38.06 0 0 1-1.37-4.025 5.049 5.049 0 0 0-2.258 1.289 12.658 12.658 0 0 0-.915 1.106q-.691 1.074-1.385 2.147c-.556.979-1.061 1.986-1.545 2.94a1.4 1.4 0 0 1-.815.738l-.022.035a39.562 39.562 0 0 1-7.049 8.469c-.843.76-1.7 1.5-2.558 2.243-.207.23-.321.353-.321.353-.1.059-.2.128-.306.194a44.158 44.158 0 0 0-4.893 4.815c-.03.036-.06.067-.091.1a1.4 1.4 0 0 1-.395.711 41.105 41.105 0 0 1-4.4 3.689c-3.4 3.238-6.386 6.918-9.854 10.082a1.514 1.514 0 0 1-1.418.384l-.156.2c-3.12 4.056-6.916 7.41-10.505 10.979a1.808 1.808 0 0 1-.235.261c-.269.248-.525.507-.782.764q-.7.715-1.383 1.449c-.692.765-1.364 1.549-2.047 2.323a1.6 1.6 0 0 1-.521.4l.054.016c1.213.278 2.466.434 3.7.62 2.436.368 4.88.682 7.332.928a131.635 131.635 0 0 0 13.312 1.034c3.163-.007 5.731-.8 7.742-3.33 1.161-1.461 2.015-3.146 3.052-4.692 1.073-1.6 2.226-3.148 3.226-4.8 2.05-3.379 3.159-7.222 5.2-10.608 2.085-3.457 4.27-6.781 6.056-10.416a96.866 96.866 0 0 0 4.642-11.217 29.625 29.625 0 0 0 1.49-8.435 1.631 1.631 0 0 1-.582-.746z" transform="translate(2014.756 -363.691)" style="fill:#515150"/>
            </g>
            <g data-name="그룹 5136" style="opacity:.5">
                <g data-name="그룹 5135">
                    <path data-name="패스 3740" d="M-1957.573 516.439a40.548 40.548 0 0 0 10.075-5.56 28.083 28.083 0 0 0 3.841-3.819 29.853 29.853 0 0 0 1.656-2.157c.206-.3.429-.875.681-1.269a24.178 24.178 0 0 1-2.551.477 190.41 190.41 0 0 1-5.773.974q-1.448.225-2.881.5c-12.266 3.183-24.665 6.751-34.906 14.147-5.524 3.989-10.61 9.172-17.278 10.576-4.9 1.033-9.952-.152-14.878-1.149-.84.23-1.591.583-1.772 1.159a.9.9 0 0 0 .17.653 10.875 10.875 0 0 1 3.7.372 1.476 1.476 0 0 1 .984.834c2.381.638 4.445 1.883 6.927 2.677a17.983 17.983 0 0 0 9.985-.02c6.431-1.65 12.144-5.261 17.786-8.656a1.434 1.434 0 0 1 .685-.671c5.744-2.885 12.1-4.312 18.02-6.781q2.563-1.069 5.151-2.074a1.754 1.754 0 0 1 .378-.213z" transform="translate(2071.844 -360.859)" style="fill:#515150"/>
                </g>
            </g>
        </g>
        <g data-name="그룹 5138">
            <path data-name="패스 3741" d="M-1820.71 395.343c-.065-.149-.127-.3-.191-.447-1.933-1.357-3.241-3.32-2.7-6.006.029-.146.063-.289.1-.431a133.613 133.613 0 0 0-1.887-4.6 15.238 15.238 0 0 0-.965-.471c-.1-.044-.2-.082-.293-.123q-4.74-1.195-9.52-2.194c-1.534-.177-3.065-.32-4.563-.492a1.623 1.623 0 0 1-1.1-.588 125.992 125.992 0 0 0-23.281-2.026c-7.844.1-15.767.782-23.567 1.6a126.726 126.726 0 0 0-16.738 2.743c-.152.3-.3.6-.458.894a31.867 31.867 0 0 1-4.273 6.139 56.917 56.917 0 0 1-5.452 5.19q-.869.745-1.749 1.484a54.8 54.8 0 0 0-9.244 9.166 21.379 21.379 0 0 0-3.444 6.725c-.97 3.368-.064 6 2.308 6.713a4.451 4.451 0 0 0 1.274.185c2.712 0 4.7-2.34 5.246-3.057.5-.655.94-1.329 1.369-1.979a13.752 13.752 0 0 1 2.922-3.542c2.307-1.767 5.244-2.228 8.353-2.716 1.292-.2 2.627-.413 3.917-.724 5.478-1.323 10.007-4.771 13.823-7.9a108.941 108.941 0 0 0 11.274-10.688 49.7 49.7 0 0 1 .579 7.034 18.917 18.917 0 0 1-1.07 6.66 14.476 14.476 0 0 1-3.992 5.644c-.763.691-1.607 1.359-2.5 2.068a43.633 43.633 0 0 0-3.558 3.036 1.477 1.477 0 0 0-.121 1.968 1.475 1.475 0 0 0 1.158.559 1.474 1.474 0 0 0 .785-.227 45.732 45.732 0 0 1 4.335-2.306 40.2 40.2 0 0 0 5.5-3.049 14.162 14.162 0 0 0 3.011-2.808 11.879 11.879 0 0 0 2.148-5.014 33.569 33.569 0 0 0 .465-5.461 29.746 29.746 0 0 1 .448-5.17c.327-1.584 1.431-5.367 4.6-6.316a4.457 4.457 0 0 1 1.257-.187 3.031 3.031 0 0 1 1.835.555c.282.216 1.142.875 1.005 3.158-.017.281-.048.572-.078.868a6.954 6.954 0 0 0 .581 4.489 7.916 7.916 0 0 0 3.432 2.7l.365.188a8.519 8.519 0 0 1 3.224 2.448 7.162 7.162 0 0 1 1.207 4.032 12.577 12.577 0 0 1-1.224 5.175 39.615 39.615 0 0 1-2.632 4.981 51.612 51.612 0 0 1-4.231 5.951 1.475 1.475 0 0 0-.138 1.677 1.475 1.475 0 0 0 1.277.738 1.464 1.464 0 0 0 .243-.02l.16-.03a15.673 15.673 0 0 1 2.385-.157c.679 0 1.353.026 2.066.054s1.446.055 2.183.055c.525 0 1-.014 1.453-.044 3.4-.22 5.743-1.383 6.958-3.458a1.475 1.475 0 0 0 .311-.329c.075-.108.149-.217.221-.325.24-.355.445-.64.646-.894a1.846 1.846 0 0 1 .467-.461 4.05 4.05 0 0 1 .357.77l.216.581a1.466 1.466 0 0 0 .18.366l.038.07a3.053 3.053 0 0 1 .4.9.872.872 0 0 1-.1.493 1.457 1.457 0 0 0-.079.224 1.523 1.523 0 0 0-.16.2c-.153.23-.338.464-.522.688a1.473 1.473 0 0 0-.376.468c-1.263 2.471-.076 5.6.563 7.284a15.638 15.638 0 0 1 1.073 3.851 14.292 14.292 0 0 1-.3 4.089 53.846 53.846 0 0 1-.516 2.331 63.918 63.918 0 0 0-.489 2.182 29.662 29.662 0 0 0-.554 4.728 31.389 31.389 0 0 0 .195 4.82c.153 1.289.425 2.541.689 3.751l.128.591a14.053 14.053 0 0 1 .381 5.526 1.476 1.476 0 0 0 .523 1.443 1.478 1.478 0 0 0 .925.325 1.476 1.476 0 0 0 .6-.127 24.24 24.24 0 0 0 7.6-5.308 1.455 1.455 0 0 0 .161-.2l.276-.407a17.335 17.335 0 0 1 1.378-1.866l.059-.07c.02-.025.04-.049.057-.073l.131-.18c.084-.118.164-.238.243-.359.052-.081.1-.162.152-.244l.049-.079a1.48 1.48 0 0 0 .2-.517 59.077 59.077 0 0 0 3.5-5.21c8.157-13.681 11.164-31.693 8.529-50.867a1.241 1.241 0 0 1-1.429-.811z" transform="translate(2014.45 -281.561)" style="fill:#d87523"/>
        </g>
        <g data-name="그룹 5145">
            <g data-name="그룹 5140">
                <g data-name="그룹 5139">
                    <path data-name="패스 3742" d="M191.652 112.628a87.337 87.337 0 0 1 1 23.547 71.761 71.761 0 0 1-5.8 22.524 62.615 62.615 0 0 1-6.685 11.477.929.929 0 0 0 .331 1.263.944.944 0 0 0 1.262-.331 65.892 65.892 0 0 0 10.332-21.62 81.274 81.274 0 0 0 2.752-23.787 92.491 92.491 0 0 0-1.41-13.563.93.93 0 0 0-1.135-.644.943.943 0 0 0-.644 1.135z"/>
                </g>
            </g>
            <g data-name="그룹 5142">
                <g data-name="그룹 5141">
                    <path data-name="패스 3743" d="M88.998 120.032a35.084 35.084 0 0 0-4.732 5.88 13.3 13.3 0 0 0-2.305 7.207 5.141 5.141 0 0 0 1.177 3.343 4.277 4.277 0 0 0 2.948 1.37c2.6.172 4.689-1.712 6.112-3.67 1.386-1.908 2.471-4 4.494-5.335 2.362-1.561 5.32-1.892 8.052-2.327a30.576 30.576 0 0 0 7.834-2.32 36.223 36.223 0 0 0 6.858-4.154 102.79 102.79 0 0 0 13.342-12.1q.746-.8 1.477-1.623l-1.542-.407a53.989 53.989 0 0 1 .734 8.089 16.949 16.949 0 0 1-1.509 7.492c-2 3.965-5.99 6.282-9.118 9.245a13.062 13.062 0 0 0-4.238 6.979.934.934 0 0 0 .534 1.088.92.92 0 0 0 1.152-.378c1.367-2.54 3.743-4.164 6.231-5.49 1.283-.684 2.6-1.3 3.9-1.944a41.78 41.78 0 0 0 1.911-1c.684-.382 1.385-.721 2.033-1.165a13.019 13.019 0 0 0 5.457-8.1 35.944 35.944 0 0 0 .534-5.767 29.555 29.555 0 0 1 .4-5.6c.606-2.646 2.314-5.415 5.153-5.718a2.219 2.219 0 0 1 2.585 1.255 12.776 12.776 0 0 1 .156 4.124 6.046 6.046 0 0 0 1.295 4.288 14.237 14.237 0 0 0 2.965 2.279c1.967 1.268 4.124 2.528 4.593 4.92.648 3.3-1.054 6.683-2.692 9.457a54.165 54.165 0 0 1-6.075 8.705q-.955 1.067-2 2.052c-.868.823.421 2.087 1.3 1.3q.97-.858 1.935-1.72c.291-.262.746-.589.689-1.038a.937.937 0 0 0-1.388-.8 7.021 7.021 0 0 0-1.195 1.017c-.454.4-.921.8-1.346 1.233-.84.858.416 2.077 1.3 1.3a3.952 3.952 0 0 1 .656-.477q.189-.115.385-.217c.066-.035.385-.184.314-.154a8.262 8.262 0 0 1 1.875-.514 14.965 14.965 0 0 1 1.843-.148c.691-.017 1.382 0 2.072.019 2.654.087 5.544.4 8.063-.635a6.9 6.9 0 0 0 3.461-3.1c.574-1.041-1.019-1.973-1.593-.932a5.119 5.119 0 0 1-1.145 1.472 3.234 3.234 0 0 1-.587.434q-.2.126-.415.235c-.056.029-.114.057-.171.085 0 0-.262.115-.129.061a8.1 8.1 0 0 1-1.79.483 15.222 15.222 0 0 1-1.815.14c-2.747.063-5.5-.342-8.234.1a8.115 8.115 0 0 0-4.094 1.844l1.3 1.3c.411-.42.861-.8 1.3-1.193q.344-.3.69-.606l.243-.209c.161-.141.034-.007-.066.046l-1.389-.8.271-.652a4.4 4.4 0 0 1-.529.484q-.909.815-1.825 1.622l1.3 1.3a44.522 44.522 0 0 0 7.059-8.975c1.9-3.068 3.946-6.366 4.326-10.039a8.335 8.335 0 0 0-.777-4.725 9 9 0 0 0-2.7-2.884c-1.032-.764-2.15-1.4-3.2-2.136a9.252 9.252 0 0 1-1.325-1.083 3.1 3.1 0 0 1-.846-1.706c-.49-2.693 1.041-6.611-2.077-8.217a5.415 5.415 0 0 0-4.176-.137 7.478 7.478 0 0 0-3.734 2.94c-2.2 3.169-1.96 7.094-2.109 10.765a23.3 23.3 0 0 1-.769 5.792 10.678 10.678 0 0 1-2.441 4.009 11.044 11.044 0 0 1-1.72 1.52 23.855 23.855 0 0 1-2.149 1.246c-1.308.73-2.667 1.364-4.01 2.025-2.693 1.323-5.477 2.8-7.41 5.166a12.005 12.005 0 0 0-1.288 1.9l1.686.711c.829-4.744 5.432-7.5 8.772-10.448a18.508 18.508 0 0 0 4.335-5.213 18.2 18.2 0 0 0 1.8-7.709 52.114 52.114 0 0 0-.781-9.417.928.928 0 0 0-1.542-.407 105.714 105.714 0 0 1-12.4 11.828c-4.029 3.252-8.363 6.055-13.439 7.328-2.687.674-5.482.818-8.138 1.63a11.957 11.957 0 0 0-6.051 4.092c-1.351 1.72-2.3 3.964-4.139 5.248a4.207 4.207 0 0 1-2.811.854 2.359 2.359 0 0 1-1.865-1.342 5.14 5.14 0 0 1-.231-2.889 11.41 11.41 0 0 1 1.088-3.305 26.181 26.181 0 0 1 4.22-5.922q.546-.6 1.114-1.184c.827-.853-.477-2.16-1.3-1.3z"/>
                </g>
            </g>
            <g data-name="그룹 5144">
                <g data-name="그룹 5143">
                    <path data-name="패스 3744" d="M168.838 137.714c-1.987 1.564-2.127 4.46-1.524 6.721.375 1.408 1 2.732 1.437 4.119a10.635 10.635 0 0 1 .413 4.349 34.451 34.451 0 0 1-.867 4.372 37.815 37.815 0 0 0-.825 4.658 30.606 30.606 0 0 0 .466 9.3c.566 2.786 1.726 6.087.27 8.787-.358.664.243 1.63 1.042 1.355a24.776 24.776 0 0 0 9.958-6.4c.814-.863-.488-2.171-1.3-1.305a22.8 22.8 0 0 1-9.143 5.923l1.042 1.355c1.383-2.565.937-5.469.351-8.193-.3-1.4-.626-2.786-.795-4.206a29.771 29.771 0 0 1-.185-4.591 28.081 28.081 0 0 1 .525-4.492c.3-1.516.717-3.007 1.008-4.525a15.476 15.476 0 0 0 .318-4.522 16.9 16.9 0 0 0-1.161-4.219c-.829-2.186-1.96-5.421.281-7.186a.928.928 0 0 0 0-1.3.946.946 0 0 0-1.3 0z"/>
                </g>
            </g>
        </g>
    </g>
</svg>
