<svg xmlns="http://www.w3.org/2000/svg" width="230.307" height="225.395" viewBox="0 0 230.307 225.395">
    <g data-name="그룹 5238">
        <g data-name="그룹 5150">
            <g data-name="그룹 5147">
                <path data-name="패스 3745" d="M1245.875-865.724c-1.535 3.172.186 5.738.8 9.208s1.827 6.8 2.664 10.228c2.792 11.421 1.365 23.4-.078 35.067-.373 3.018-.955 6.4-3.449 8.139-2.069 1.445-4.818 1.285-7.333 1.067l-26.463-2.294a5.391 5.391 0 0 1-3.034-.894c-1.316-1.084-1.3-3.069-1.165-4.768q1.867-23.707 4.594-47.335c.522-4.52 1.02-9.334-.994-13.415-1.141-2.311-3.039-4.254-3.76-6.728-.349-1.2-.406-2.476-.869-3.634a3.056 3.056 0 0 0-2.761-2.144 3.291 3.291 0 0 0-2.494 2.194 19.532 19.532 0 0 1-1.349 3.214c-1.944 2.884-6.724 2.232-9.034-.368s-2.823-6.287-3.235-9.741a14.817 14.817 0 0 0 3.791 5.213c1.729 1.307 4.333 1.727 6.023.37 1.551-1.244 1.837-3.463 1.914-5.45a64.369 64.369 0 0 0-1.771-17.646c8.705 4.77 18.994 5.761 28.068 9.784a45.235 45.235 0 0 1 8.323 4.808l-.751-2.558c5.074.271 10.5 1.784 13.533 5.863 2.278 3.067 2.823 7.149 2.3 10.934a44.413 44.413 0 0 1-3.476 10.885" transform="translate(-1112.356 1024.265)" style="fill:#d6d6d6"/>
            </g>
            <g data-name="그룹 5149">
                <g data-name="그룹 5148">
                    <path data-name="패스 3746" d="M1237.243-873.179a9.988 9.988 0 0 0-1 4.779 27.661 27.661 0 0 0 1.12 5.066c.885 3.356 1.65 6.736 2.571 10.089a65.815 65.815 0 0 1 1.767 21.6c-.233 3.792-.643 7.57-1.1 11.341-.3 2.52-.275 5.933-1.821 8.084-1.6 2.225-5.376 1.349-7.677 1.15l-11.246-.975-11.908-1.032c-.694-.06-2.828-.048-3.1-.354s-.155-1.187-.147-1.542c.021-.975.133-1.952.211-2.924q.925-11.523 2.053-23.028c.75-7.641 1.593-15.269 2.449-22.9a33.806 33.806 0 0 0-.035-10.186c-.631-3.307-2.521-5.732-4.15-8.569-.865-1.506-.938-3.119-1.434-4.747a6.93 6.93 0 0 0-3.419-4.3c-3.912-1.954-6.905 1.441-8.135 4.781-.4 1.085-.554 1.834-1.721 1.981a4.14 4.14 0 0 1-2.69-.8c-2.331-1.748-2.656-5.568-2.976-8.216l-5.572 1.509c1.694 3.226 3.786 6.417 7.458 7.539a7.21 7.21 0 0 0 8.808-3.755c1.493-3.266 1.176-7.383 1-10.876a70.533 70.533 0 0 0-1.842-12.724l-4.392 3.377c5.812 3.125 12.178 4.768 18.486 6.558 6.43 1.824 12.442 4.1 17.906 8.035 2.166 1.559 5.085-1.016 4.392-3.376l-.751-2.559-2.883 3.785c4.729.29 10.3 1.776 12.229 6.62 2.278 5.7-.564 12.024-2.753 17.278-.622 1.491.671 3.288 2.088 3.678a3.067 3.067 0 0 0 3.678-2.088c2.928-7.026 5.522-14.779 2.055-22.124-3.107-6.582-10.55-8.93-17.3-9.344a3.013 3.013 0 0 0-2.883 3.785l.751 2.559 4.392-3.377a58.456 58.456 0 0 0-18.222-8.319c-6.156-1.783-12.478-3.214-18.163-6.271a3.027 3.027 0 0 0-4.392 3.377 59.212 59.212 0 0 1 1.642 17.313c-.085 1.349-.26 3.2-2.025 2.755-2.115-.534-3.2-3.127-4.11-4.859-1.31-2.495-5.934-1.486-5.572 1.509.743 6.145 2.465 13.643 9.685 14.824a7.9 7.9 0 0 0 8.156-3.205 11.207 11.207 0 0 0 .958-2.049 8.838 8.838 0 0 0 .7-1.755c.033-.575.426.045-.024-.156-.384-.172-.451.032-.475.091-.129.311.426 1.554.506 1.957a14.81 14.81 0 0 0 1.686 4.613c.818 1.418 1.862 2.7 2.6 4.168 1.515 3.012 1.264 6.6.952 9.855-.768 7.992-1.779 15.963-2.567 23.954q-1.2 12.162-2.171 24.344c-.273 3.421-.267 7.247 3.219 9.072a13.488 13.488 0 0 0 5.189 1.012l6.616.574 11.908 1.032c3.755.325 7.736 1.086 11.5.531 8.015-1.183 8.582-9.433 9.35-15.915 1.012-8.542 1.77-17.189.657-25.76a99.465 99.465 0 0 0-2.975-12.936c-.516-1.93-.824-3.905-1.359-5.829-.4-1.429-1.216-3.232-.577-4.708a3.089 3.089 0 0 0-1.073-4.091c-1.263-.738-3.446-.417-4.091 1.073z" transform="translate(-1106.305 1030.211)" style="fill:#d6d6d6"/>
                </g>
            </g>
        </g>
        <g data-name="그룹 5156" style="opacity:.4">
            <g data-name="그룹 5151">
                <path data-name="패스 3747" d="M1313.526-819.247a11.4 11.4 0 0 0 1.137 7.837 76.264 76.264 0 0 0 4.266 6.871c5.67 9.086 7.516 19.968 9.247 30.537-1.4-14.368-5.616-28.323-10.711-41.83-.647-1.714-1.623-3.685-3.44-3.921z" transform="translate(-1196.039 967.045)" style="fill:#7c7c7c"/>
            </g>
            <g data-name="그룹 5152">
                <path data-name="패스 3748" d="m1314.882-789.869 1 1.636c8.577 17.817 11.986 37.853 11.61 57.623a6.081 6.081 0 0 1-.37 2.374 2.124 2.124 0 0 1-1.841 1.352 1.313 1.313 0 0 1-1.253-1.633c.2-.492.753-.8.875-1.313.2-.85-1.017-1.454-1.8-1.069a3.532 3.532 0 0 0-1.467 2.091 152.446 152.446 0 0 0-1-15.939l5.026 11.7a68.028 68.028 0 0 0-7.7-32.734l.249 3.646c-3.409-3.556-4.277-8.845-4.209-13.771s.9-9.876.208-14.753l1 1.176" transform="translate(-1196.547 947.618)" style="fill:#7c7c7c"/>
            </g>
            <g data-name="그룹 5153">
                <path data-name="패스 3749" d="m1278.73-809.527 4.094-1.756a5.714 5.714 0 0 1-.405 3.559l4.065-8.66c.786 3.577.159 7.3-.538 10.893q-1.609 8.311-3.706 16.517l3.935-7.982a61.445 61.445 0 0 1-1.78 23.633 20.219 20.219 0 0 0 2.753-10.533l1.118 3.369 1.467-35.446a6.429 6.429 0 0 0-.359-3.015 2.2 2.2 0 0 0-2.471-1.331 3.227 3.227 0 0 0-1.408 1.188c-2.156 2.691-4.609 6.875-6.764 9.566" transform="translate(-1172.997 967.446)" style="fill:#7c7c7c"/>
            </g>
            <g data-name="그룹 5154">
                <path data-name="패스 3750" d="m1265.359-893.828 6.38 3.329a2.759 2.759 0 0 0 1.633.453c.255-.039.495-.149.751-.18a2.5 2.5 0 0 1 1.459.445l5.589 3.082a2.659 2.659 0 0 0-1.159-1.865 46.263 46.263 0 0 0-9.188-5.678c-3.351-1.726-6.976-3.5-10.711-3a4.367 4.367 0 0 1 1.773 3.945 12.471 12.471 0 0 1-1.288 4.321 5.34 5.34 0 0 0 2.263-3.832 3.617 3.617 0 0 1 .221-1.252.857.857 0 0 1 1.041-.5z" transform="translate(-1160.565 1018.846)" style="fill:#7c7c7c"/>
            </g>
            <g data-name="그룹 5155">
                <path data-name="패스 3751" d="M1268.085-870.22a8.885 8.885 0 0 1-2.563-4.661 8.042 8.042 0 0 0-.59-2.3 1.719 1.719 0 0 0-1.96-.961 2.161 2.161 0 0 0-1.109 1.618 9.633 9.633 0 0 0-.221 3.477 22.907 22.907 0 0 1 .548 4.182c-.175 2.624-2.245 4.689-4.286 6.346-.3.24-.626.628-.424.951a.8.8 0 0 0 .521.281l2.493.607a11.492 11.492 0 0 1 8.753-3.479 22.168 22.168 0 0 0 4.426.215 5.235 5.235 0 0 0 3.18-1.733 4.581 4.581 0 0 0 1.084-3.43.678.678 0 0 0-.109-.344c-.195-.253-.629-.134-.815.125a2.856 2.856 0 0 0-.3.9 2.748 2.748 0 0 1-2.366 1.824 4.377 4.377 0 0 1-2.96-.917 11.292 11.292 0 0 1-2.186-2.28z" transform="translate(-1158.767 1006.085)" style="fill:#7c7c7c"/>
            </g>
        </g>
        <g data-name="그룹 5160">
            <g data-name="그룹 5157">
                <path data-name="패스 3752" d="M1269.805-944.114a33.2 33.2 0 0 1 8.6 3.942 4.16 4.16 0 0 0 1.226.622 1.305 1.305 0 0 0 1.278-.308c.436-.487.267-1.242.1-1.874a21.8 21.8 0 0 1-.724-5.46 8.445 8.445 0 0 1 1.017-4.565c.792-1.264 2.113-2.165 2.743-3.516 1.068-2.291-.15-5.159.905-7.455a5.482 5.482 0 0 0 .88-2.189c-.012-1.2-1.245-1.959-2.32-2.485a7.572 7.572 0 0 0-3.169-1 7.584 7.584 0 0 0-3.394 1.084 7.52 7.52 0 0 0-2.755 1.968c-1.058 1.4-1.04 3.414-2.13 4.794-.642.813-1.629 1.349-2.1 2.273a4.976 4.976 0 0 0-.373 2.184l-.125 6.649a5.1 5.1 0 0 1-.394 2.273 5.137 5.137 0 0 1-2.717 2.016z" transform="translate(-1164.73 1066.312)" style="fill:#ffcea9"/>
            </g>
            <g data-name="그룹 5159">
                <g data-name="그룹 5158">
                    <path data-name="패스 3753" d="M1267.167-945.063a37.886 37.886 0 0 1 8.512 3.948c1.721 1.032 4.337.842 4.334-1.7 0-1.422-.629-2.889-.782-4.308a12.957 12.957 0 0 1 .151-4.718c.711-2.6 3.4-3.847 3.852-6.631a23.327 23.327 0 0 0 .077-3.629c.01-1.553.745-2.5 1.171-3.9.726-2.386-1.323-3.838-3.227-4.727-2.721-1.271-4.838-.911-7.449.436a7.8 7.8 0 0 0-4.2 5.189c-.516 1.556-1.437 2.18-2.434 3.373a5.451 5.451 0 0 0-1.083 3.549c-.062 1.812-.068 3.627-.1 5.44a8.738 8.738 0 0 1-.165 2.636c-.372 1.028-1.482 1.451-2.392 1.857-.965.432-.6 1.858.278 2.125l3.456 1.053c1.435.437 2.048-1.807.618-2.243l-3.455-1.053.277 2.125c1.887-.843 3.351-1.949 3.618-4.123.3-2.459.132-5.039.188-7.516a3.773 3.773 0 0 1 1.355-3.142 6.557 6.557 0 0 0 1.652-2.275c.411-.953.573-2.028 1.067-2.941a5.644 5.644 0 0 1 2.711-2.158 5.039 5.039 0 0 1 4.125-.645 10.125 10.125 0 0 1 1.672.774c.722.406 1.3.741 1.195 1.587-.13 1.009-.924 1.941-1.094 3a17.771 17.771 0 0 0-.079 3.117 5.4 5.4 0 0 1-.746 3.339c-.588.864-1.419 1.538-2.028 2.392a9.868 9.868 0 0 0-1.446 6.174 23.707 23.707 0 0 0 .475 3.961c.061.3.139.6.206.9.121.543.439.884-.11.887s-1.278-.7-1.718-.966a35.547 35.547 0 0 0-7.865-3.434c-1.433-.433-2.047 1.81-.617 2.247z" transform="translate(-1162.401 1068.382)" style="fill:#ffcea9"/>
                </g>
            </g>
        </g>
        <path data-name="패스 3754" d="M1262.362-1023.115c-2.824.106-8.685 3.737-9.572-.787-.8-4.058-.8-8.443-1.037-12.565a1.172 1.172 0 0 0-2.167-.587c-2.076 3.579-2.351 10.788-7.1 12.072-2.535.686-4.6-1.512-5.958-3.354a22.6 22.6 0 0 0-4.565-5.233c-.853-.631-1.948.408-1.708 1.313 1.251 4.725 7.868 11.392 1.644 15.281a7.742 7.742 0 0 1-7.769-.187 5.124 5.124 0 0 0-2.136-1 15.088 15.088 0 0 0-1.821.092 1.147 1.147 0 0 0-1.18 1.355 1.009 1.009 0 0 0 .907.966c2.691.807 5.509 1.635 7.718 3.443 2.111 1.728 3.661 4.754 2.472 7.447a1.194 1.194 0 0 0 .182 1.409 5.823 5.823 0 0 1 2.369 4.048 1.176 1.176 0 0 0 1.75 1 3.5 3.5 0 0 0 1.486-3.368 8.937 8.937 0 0 1 1.762-5.587c2.036-3.266 4.406-6.617 8.025-8.248 3.836-1.729 9.384-.555 8.231 4.646a38.284 38.284 0 0 0-.919 5.459c-.164 2.119-.406 4.54-2.436 5.716a1.164 1.164 0 0 0 1.174 2.008c3.854-2.152 7.8-5.538 7.657-10.374-.074-2.5-1.892-4.481-1.962-6.941a5.612 5.612 0 0 1 4.95-5.7c1.441-.177 1.541-2.381.003-2.324z" transform="translate(-1133.104 1112.529)" style="fill:#e0ba19"/>
        <g data-name="그룹 5161">
            <path data-name="패스 3755" d="M1382.432-852.748a34.179 34.179 0 0 1-.443 14.255c13.57 1.8 26.241 8.84 39.928 9.119 2.944.06 5.986-.182 8.742.853.92.345 2.005.814 2.809.249.727-.511.751-1.554 1.072-2.383a3.244 3.244 0 0 1 3.581-1.938 3.244 3.244 0 0 1 2.481 3.229 12.637 12.637 0 0 1 .716-6.85c-7.235.479-14.677.934-21.573-1.3-5.361-1.74-10.111-5.028-15.451-6.834-6.706-2.268-14.522-2.316-19.828-7z" transform="translate(-1241.951 989.078)" style="fill:#ffcea9"/>
        </g>
        <g data-name="그룹 5165">
            <g data-name="그룹 5162">
                <path data-name="패스 3756" d="M1058.347-959.462c2.468-.749 5.177.9 6.393 3.178s1.252 4.988 1.031 7.557a34.9 34.9 0 0 0-.318 7.711c-11.841-10.514-28.866-12.728-42.4-20.954-3.259-1.981-6.318-4.314-9.77-5.935a18.511 18.511 0 0 1-3.3-1.733 4.286 4.286 0 0 1-1.871-3.093 14.668 14.668 0 0 1 .484-2.752 2.283 2.283 0 0 0-.921-2.449c-.923-.45-2.017.218-2.653 1.023a9.8 9.8 0 0 1-1.943 2.365 3.1 3.1 0 0 1-4.107-.972 3.991 3.991 0 0 1 .218-4.4 5.662 5.662 0 0 1 4-2.178 10.589 10.589 0 0 1 7.047 2.237c2.063 1.447 3.827 3.276 5.818 4.82 5.241 4.065 11.788 5.979 18.164 7.809l21.553 6.185z" transform="translate(-985.809 1075.483)" style="fill:#ffcea9"/>
            </g>
            <g data-name="그룹 5164">
                <g data-name="그룹 5163">
                    <path data-name="패스 3757" d="M1055.551-961.225c3.536-.857 5.266 3.263 5.4 6.075.177 3.609-.806 7.157-.4 10.77l2.836-1.174c-7.146-6.261-15.972-9.738-24.736-13.085-4.531-1.73-9.075-3.449-13.42-5.616-4.63-2.309-8.691-5.534-13.267-7.914-1.815-.944-5.786-1.912-5.375-4.591.3-1.976 1.015-4.115-.822-5.625-1.671-1.373-3.878-.529-5.157.937-.6.69-1.14 2.185-2.167 2.286-1.331.131-1.818-1.37-1.5-2.415.749-2.462 4.005-2.529 6-1.893 2.524.807 4.521 2.66 6.473 4.369a40.343 40.343 0 0 0 13.217 7.641c5.9 2.124 12.029 3.648 18.05 5.375l9.509 2.728a15.463 15.463 0 0 1 4.081 1.965c1.826 1.124 3.5-1.749 1.677-2.869a20.975 20.975 0 0 0-2.973-1.754 93.551 93.551 0 0 0-9.192-2.638c-5.945-1.706-11.946-3.285-17.834-5.184a40.673 40.673 0 0 1-14.841-8.191c-3.708-3.241-8.713-6.725-13.812-4.4-4.021 1.838-5.558 8.307-.715 10.23 2.307.916 4.364-.06 5.75-1.971.5-.689 1.608-2.508 1.319-.574-.195 1.306-.622 2.434-.262 3.766.669 2.477 2.917 3.8 5.092 4.8a57.221 57.221 0 0 1 7.453 4.322 84.386 84.386 0 0 0 13.989 7.331c10.643 4.429 22.267 7.557 31.117 15.312.96.841 3.01.378 2.836-1.175-.537-4.8 1.38-9.752-.232-14.451-1.289-3.758-4.9-6.586-8.975-5.6-2.079.513-1.199 3.718.881 3.213z" transform="translate(-982.571 1078.848)" style="fill:#ffcea9"/>
                </g>
            </g>
        </g>
        <g data-name="그룹 5167">
            <g data-name="그룹 5166">
                <path data-name="패스 3758" d="M139.113 152.922c7.332-.353 13.671 4.1 20.465 6.1 6.835 2.01 14.041 2.106 21.108 2.152 1.838.012 3.916-.213 5.562.763a18.056 18.056 0 0 0 2.238 1.363 3.009 3.009 0 0 0 2.551 0c.573-.288.069-1.148-.5-.86-1.459.734-2.963-.972-4.148-1.563a10.8 10.8 0 0 0-4.846-.692c-3.525-.022-7.054-.04-10.572-.281a53.172 53.172 0 0 1-10.382-1.631 87.34 87.34 0 0 1-9.94-3.79c-3.66-1.5-7.53-2.751-11.533-2.558-.638.031-.642 1.028 0 1z"/>
            </g>
        </g>
        <g data-name="그룹 5169">
            <g data-name="그룹 5168">
                <path data-name="패스 3759" d="M140.449 137.696c5.094 5.037 12.5 5.82 19.106 7.534a58.922 58.922 0 0 1 10.183 3.9 69.919 69.919 0 0 0 9.913 4.089 19.387 19.387 0 0 0 12.158-.093c.6-.216.341-1.18-.265-.961a17.987 17.987 0 0 1-10.714.345 56.572 56.572 0 0 1-9.836-3.887 67.367 67.367 0 0 0-9.731-3.962c-3.487-1.015-7.083-1.594-10.571-2.6a21.937 21.937 0 0 1-9.537-5.071c-.457-.451-1.162.253-.7.7z"/>
            </g>
        </g>
        <g data-name="그룹 5171">
            <g data-name="그룹 5170">
                <path data-name="패스 3760" d="M198.976 154.12a1.937 1.937 0 0 1-.567 2.2c-.313.25-.723.361-.911.748-.249.514.1.852.471 1.154a2.3 2.3 0 0 1 .606 2.28 7.178 7.178 0 0 1-1.578 2.71c-.4.5.306 1.207.7.7 1.258-1.582 2.776-3.828 1.448-5.846a2.69 2.69 0 0 0-.439-.522c-.022-.02-.248-.233-.278-.218q-.128.285.028.128c.046-.03.094-.058.142-.083a3.138 3.138 0 0 0 1.024-.943 2.938 2.938 0 0 0 .21-2.815c-.258-.585-1.118-.079-.861.5z"/>
            </g>
        </g>
        <g data-name="그룹 5175">
            <g data-name="그룹 5172">
                <path data-name="패스 3761" d="M1482.148-787.477v8.752l-27.907-4.837-.486 3.184 27.324 7.974 1.944 5.932 3.6-5.348 25.377 5.347v-2.627l-25.379-8.363v-11.766" transform="translate(-1289.874 946.661)" style="fill:#996014"/>
            </g>
            <g data-name="그룹 5174">
                <g data-name="그룹 5173">
                    <path data-name="패스 3762" d="M191.777 159.183v8.752l.631-.481-9.448-1.638-15.037-2.606-3.422-.593a.5.5 0 0 0-.613.348l-.487 3.184a.513.513 0 0 0 .348.613l2.716.793 6.522 1.9 7.892 2.3 6.825 1.992 2.243.654a7.593 7.593 0 0 0 1.079.315.372.372 0 0 1 .048.014l-.348-.348 1.945 5.931a.505.505 0 0 0 .911.119l3.6-5.348-.563.229 8.576 1.807 13.668 2.88 3.135.661a.505.505 0 0 0 .631-.481v-2.626a.513.513 0 0 0-.366-.481l-8.617-2.839-13.632-4.492-3.131-1.032.366.48v-11.766a.5.5 0 0 0-1 0v11.766a.512.512 0 0 0 .366.481l8.617 2.839 13.632 4.492 3.131 1.032-.366-.481v2.626l.631-.481-8.576-1.807-13.668-2.88-3.134-.66a.52.52 0 0 0-.563.229l-3.6 5.348.911.119-1.114-3.4-.662-2.019c-.11-.334-.166-.727-.53-.867-.413-.159-.866-.252-1.291-.376l-3.041-.887-8.96-2.615-9.154-2.672-3.216-.938a13.47 13.47 0 0 0-1.582-.462.51.51 0 0 1-.068-.02l.348.613.487-3.184-.614.348 9.449 1.638 15.037 2.606 3.422.593a.506.506 0 0 0 .631-.481v-8.752a.5.5 0 0 0-1 0z"/>
                </g>
            </g>
        </g>
        <g data-name="그룹 5176" transform="translate(155.067 181.342)">
            <ellipse data-name="타원 24" cx="13.613" cy="6.661" rx="13.613" ry="6.661" transform="translate(0 1.908)" style="fill:#996014"/>
            <path data-name="패스 3763" d="M15.911 14.319C7.998 14.319 1.8 11.174 1.8 7.16S8 .001 15.911.001 30.023 3.146 30.023 7.16s-6.199 7.159-14.112 7.159zm0-13.322C8.802.997 2.796 3.819 2.796 7.16s6.006 6.163 13.115 6.163 13.116-2.822 13.116-6.163S23.021.997 15.911.997z"/>
        </g>
        <g data-name="그룹 5177" transform="translate(200.283 191.844)">
            <ellipse data-name="타원 25" cx="13.613" cy="6.661" rx="13.613" ry="6.661" transform="translate(0 1.908)" style="fill:#996014"/>
            <path data-name="패스 3764" d="M15.911 14.318C7.998 14.318 1.8 11.173 1.8 7.159S8 0 15.911 0s14.112 3.145 14.112 7.159-6.198 7.159-14.112 7.159zm0-13.322C8.802.996 2.796 3.818 2.796 7.159s6.006 6.162 13.115 6.162 13.115-2.822 13.115-6.162S23.021.997 15.911.997z"/>
        </g>
        <g data-name="그룹 5179">
            <g data-name="그룹 5178">
                <path data-name="패스 3765" d="M131.517 131.134c2.273.678 4.782 1.445 6.381 3.311 1.914 2.234 1.5 5.587 1.438 8.311a50.3 50.3 0 0 1-.886 9.534c-.655 3.044-1.946 5.922-2.457 9a24.52 24.52 0 0 0 .7 9.429c.7 3.088 1.38 6.165 1.846 9.3a93.383 93.383 0 0 1 .864 18.7 92.891 92.891 0 0 1-2.9 18.578q-.3 1.127-.619 2.246a.5.5 0 0 0 .961.265 94.311 94.311 0 0 0 3.4-18.764 94.178 94.178 0 0 0-.456-19.18q-.6-4.741-1.674-9.4c-.732-3.188-1.574-6.428-1.309-9.727.255-3.173 1.6-6.125 2.369-9.183a44.688 44.688 0 0 0 1.127-9.684c.046-1.583.109-3.177.057-4.76a9.553 9.553 0 0 0-.922-4.149c-1.173-2.242-3.563-3.417-5.851-4.211-.6-.207-1.2-.393-1.807-.573a.5.5 0 0 0-.265.961z"/>
            </g>
        </g>
        <g data-name="그룹 5181">
            <g data-name="그룹 5180">
                <path data-name="패스 3766" d="M81.918 153.054a8.972 8.972 0 0 0 6.276-3.555 8.353 8.353 0 0 0 1.529-3.3 13.159 13.159 0 0 1 .464-2.2c.21-.528.682-1.133 1.309-1.121.6.012 1.032.6 1.22 1.112a7.534 7.534 0 0 1 .229 2.246 7.8 7.8 0 0 0 1.363 3.949c.814 1.24 1.871 2.282 2.735 3.481a6 6 0 0 1 1.062 4.3 40.635 40.635 0 0 1-.948 4.687q-.542 2.474-1.024 4.961-.95 4.893-1.666 9.828-1.442 9.933-1.947 19.971-.5 10-.045 20.012.057 1.245.128 2.489c.036.638 1.033.642 1 0q-.58-10.195-.177-20.413c.272-6.81.869-13.609 1.8-20.361q.7-5.1 1.657-10.156.468-2.489 1-4.966c.343-1.6.761-3.2 1.047-4.813a8.358 8.358 0 0 0-.213-4.6 15.491 15.491 0 0 0-2.645-3.7 9.2 9.2 0 0 1-2.02-3.742c-.3-1.422.117-2.991-.784-4.255a2.1 2.1 0 0 0-3.256-.405c-1.1 1.023-.994 2.6-1.376 3.938a8 8 0 0 1-4.9 5.195 7.4 7.4 0 0 1-1.821.415c-.633.059-.639 1.057 0 1z"/>
            </g>
        </g>
        <g data-name="그룹 5183">
            <g data-name="그룹 5182">
                <path data-name="패스 3767" d="M99.895 121.032a5.36 5.36 0 0 0 3.491-1.636.506.506 0 0 0 0-.7.507.507 0 0 0-.705 0l-.3.3c-.05.044-.1.087-.153.13-.009.008-.094.073-.036.03l-.081.059a4.835 4.835 0 0 1-.731.435c-.06.029-.121.057-.183.083.049-.021 0 0-.02.007l-.094.036q-.2.074-.405.13t-.415.094l-.1.016c-.09.015.013 0-.041.006q-.112.012-.224.021a.508.508 0 0 0-.5.5.5.5 0 0 0 .5.5z"/>
            </g>
        </g>
        <g data-name="그룹 5185">
            <g data-name="그룹 5184">
                <path data-name="패스 3768" d="M116.325 115.902a28.7 28.7 0 0 0-.4 7.091c.13 1.834.342 4 2.313 4.755 1.436.549 3.626-.018 4.653 1.368 1.127 1.52.2 3.511-.777 4.819-1.374 1.84-3.214 3.459-3.377 5.9-.043.64.954.638 1 0 .14-2.093 1.873-3.618 3.073-5.177 1.106-1.437 1.955-3.211 1.411-5.053a3.193 3.193 0 0 0-1.45-1.9 6.066 6.066 0 0 0-2.48-.592 4.1 4.1 0 0 1-2.327-.653 3.537 3.537 0 0 1-.939-2.368 27.426 27.426 0 0 1 .26-7.928c.112-.627-.848-.9-.961-.265z"/>
            </g>
        </g>
        <g data-name="그룹 5187">
            <g data-name="그룹 5186">
                <path data-name="패스 3769" d="m126.157 129.55 1.752.576a.5.5 0 0 0 .613-.348.509.509 0 0 0-.348-.613l-1.753-.577a.5.5 0 0 0-.613.348.51.51 0 0 0 .348.613z"/>
            </g>
        </g>
        <g data-name="그룹 5189">
            <g data-name="그룹 5188">
                <path data-name="패스 3770" d="M101.037 151.267c-.742-2.871 1.53-5.414 4-6.483 3-1.3 6.376-1.078 9.558-1.488a33.1 33.1 0 0 0 4.887-1.157 11.328 11.328 0 0 1 4.531-.569 8.287 8.287 0 0 1 6.268 4.407c1.263 2.509 1.394 5.714 3.719 7.592.495.4 1.2-.3.7-.705-2.15-1.737-2.345-4.816-3.46-7.178a9.238 9.238 0 0 0-6.432-4.986c-3.4-.692-6.506 1.032-9.8 1.54-3.389.522-6.938.222-10.17 1.552a8.279 8.279 0 0 0-3.915 3.1 5.89 5.89 0 0 0-.852 4.636.5.5 0 0 0 .961-.265z"/>
            </g>
        </g>
        <g data-name="그룹 5191">
            <g data-name="그룹 5190">
                <path data-name="패스 3771" d="M101.634 151.737a22.76 22.76 0 0 1 10.948-4.956 22.418 22.418 0 0 1 11.789 1.358 22.345 22.345 0 0 1 5.884 3.475c.492.4 1.2-.3.7-.7a23.708 23.708 0 0 0-11.5-5.128 23.394 23.394 0 0 0-12.432 1.55 23.787 23.787 0 0 0-6.1 3.7c-.493.412.216 1.113.7.7z"/>
            </g>
        </g>
        <g data-name="그룹 5193">
            <g data-name="그룹 5192">
                <path data-name="패스 3772" d="M86.529 97.4c2.927.9 6 1.841 8.314 3.944 2.125 1.929 3.411 4.927 2.243 7.721a.5.5 0 0 0 .348.613.511.511 0 0 0 .613-.348 7.41 7.41 0 0 0-.98-6.967 13.267 13.267 0 0 0-5.852-4.389 45.894 45.894 0 0 0-4.422-1.534c-.615-.189-.877.772-.265.961z"/>
            </g>
        </g>
        <g data-name="그룹 5195">
            <g data-name="그룹 5194">
                <path data-name="패스 3773" d="M92.448 97.356a9.4 9.4 0 0 0 4.276 1.231 4.244 4.244 0 0 0 2.008-.553 4.967 4.967 0 0 0 1.387-1.354 10.148 10.148 0 0 1 1.216-1.515c.436-.4.985-.646 1.441-1.02a2.027 2.027 0 0 0 .81-1.54 6.272 6.272 0 0 0-.728-2.29l-2.2-5.352c-.241-.585-1.205-.329-.961.265l1.7 4.146.867 2.111c.235.573.527 1.221.042 1.739a7.417 7.417 0 0 1-1.211.864 5.534 5.534 0 0 0-1.21 1.22c-.724.96-1.314 1.942-2.576 2.211-1.518.323-3.025-.395-4.362-1.024-.577-.272-1.084.587-.5.86z"/>
            </g>
        </g>
        <g data-name="그룹 5197">
            <g data-name="그룹 5196">
                <path data-name="패스 3774" d="M103.842 85.604a5.349 5.349 0 0 0 6.627 3.386 5.709 5.709 0 0 0 3.252-2.807c.842-1.529 1.472-3.2 2.179-4.792l2.547-5.735h-.86a6.8 6.8 0 0 1 1.188 5.294c-.124.627.836.895.961.265a7.775 7.775 0 0 0-1.288-6.062c-.193-.268-.693-.376-.86 0l-4.021 9.056a7.035 7.035 0 0 1-2.337 3.334 4.38 4.38 0 0 1-3.61.524 4.4 4.4 0 0 1-2.815-2.728c-.21-.6-1.173-.343-.961.265z"/>
            </g>
        </g>
        <g data-name="그룹 5199">
            <g data-name="그룹 5198">
                <path data-name="패스 3775" d="M119.255 88.723a6 6 0 0 0 1.9 3.815c1.591 1.164 3.451.222 5-.5a10.99 10.99 0 0 1 2.814-.883 9.985 9.985 0 0 1 1.451-.131c.063 0 .557.051.516-.07.045.131-.384.277-.448.3a15.034 15.034 0 0 0-4.782 2.637 5.232 5.232 0 0 0-1.687 5.027.5.5 0 0 0 .961-.265 4.377 4.377 0 0 1 1.735-4.327 10.552 10.552 0 0 1 2.405-1.427c.388-.177.782-.34 1.177-.5a4.334 4.334 0 0 0 1.22-.589.983.983 0 0 0-.356-1.753 4.763 4.763 0 0 0-1.347 0 11.973 11.973 0 0 0-1.483.207 12.285 12.285 0 0 0-2.746.944 6.466 6.466 0 0 1-2.717.894c-1.837-.03-2.354-2.2-2.649-3.643-.129-.628-1.089-.362-.961.265z"/>
            </g>
        </g>
        <g data-name="그룹 5201">
            <g data-name="그룹 5200">
                <path data-name="패스 3776" d="M125.242 101.169a8.249 8.249 0 0 1 .792 7.526c-1.023 2.6-3.457 4.293-5.667 5.829-.523.364-.025 1.228.5.861a19.138 19.138 0 0 0 5.226-4.7 9.11 9.11 0 0 0 1.382-6.465 8.852 8.852 0 0 0-1.376-3.556c-.354-.531-1.217-.033-.861.5z"/>
            </g>
        </g>
        <g data-name="그룹 5203">
            <g data-name="그룹 5202">
                <path data-name="패스 3777" d="M104.074 110.081c-.861-1.123.1-2.422.948-3.2a8.123 8.123 0 0 0 2.559-2.965c.239-.661.086-1.406.341-2.053a3.176 3.176 0 0 1 1.334-1.3c1.318-.874 2.621-1.786 3.973-2.6 1.262-.764 2.895-1.4 4.257-.5.536.355 1.036-.508.5-.861a4.377 4.377 0 0 0-4.226-.053 15.532 15.532 0 0 0-2.176 1.287l-2.281 1.506a8.4 8.4 0 0 0-1.839 1.4 3.235 3.235 0 0 0-.683 2.029c-.118 1.665-1.515 2.49-2.614 3.546s-2.039 2.863-.957 4.274a.516.516 0 0 0 .682.179.5.5 0 0 0 .178-.682z"/>
            </g>
        </g>
        <g data-name="그룹 5205">
            <g data-name="그룹 5204">
                <path data-name="패스 3778" d="M118.942 114.656c1.326-1.857 2.764-3.985 2.591-6.38-.092-1.267-.624-2.475-.175-3.732.416-1.164 1.245-2.137 1.406-3.4a2.439 2.439 0 0 0-1.5-2.7c-.609-.207-.87.756-.265.961a1.36 1.36 0 0 1 .8 1.269 3.992 3.992 0 0 1-.609 1.949 10.825 10.825 0 0 0-.86 1.861 4.633 4.633 0 0 0-.075 2.085 12.839 12.839 0 0 1 .3 2.123 5.708 5.708 0 0 1-.375 1.892 15.431 15.431 0 0 1-2.093 3.565c-.373.523.491 1.021.861.5z"/>
            </g>
        </g>
        <g data-name="그룹 5207">
            <g data-name="그룹 5206">
                <path data-name="패스 3779" d="m102.99 112.704.094 3.4a.507.507 0 0 0 .5.5.5.5 0 0 0 .5-.5l-.094-3.4a.507.507 0 0 0-.5-.5.5.5 0 0 0-.5.5z"/>
            </g>
        </g>
        <g data-name="그룹 5209">
            <g data-name="그룹 5208">
                <path data-name="패스 3780" d="M101.962 114.631a1.259 1.259 0 0 1-.52.025 1.27 1.27 0 0 1-.554-.232 1.3 1.3 0 0 1-.486-.883 1.465 1.465 0 0 1 .006-.31c-.01.067.023-.093.027-.107.015-.064.034-.127.053-.189a3.471 3.471 0 0 0 .183-.815 1.227 1.227 0 0 0-.775-1.243.5.5 0 0 0-.613.348.51.51 0 0 0 .348.613c-.083-.032.042.054-.02 0l.01.011c.023.048.03.057.019.027s.026.086.03.105c.007.036.008.033 0-.008v.076a2.465 2.465 0 0 1-.167.688 2.324 2.324 0 0 0 .078 1.576 2.259 2.259 0 0 0 2.64 1.284.505.505 0 0 0 .348-.613.506.506 0 0 0-.613-.348z"/>
            </g>
        </g>
        <g data-name="그룹 5211">
            <g data-name="그룹 5210">
                <path data-name="패스 3781" d="M24.345 109.323c3.391.148 6.385 1.97 9.013 3.972 1.363 1.038 2.669 2.148 4.027 3.193a49.375 49.375 0 0 0 4.186 2.891 51.287 51.287 0 0 0 9.047 4.386c3.181 1.184 6.448 2.115 9.693 3.107a68.1 68.1 0 0 1 10.634 3.995c.572.286 1.078-.574.5-.861-6.128-3.063-12.863-4.489-19.294-6.744a51.963 51.963 0 0 1-9.307-4.279 49.067 49.067 0 0 1-4.293-2.856c-1.4-1.04-2.727-2.169-4.1-3.24-2.948-2.3-6.258-4.393-10.1-4.56-.641-.028-.64.969 0 1z"/>
            </g>
        </g>
        <g data-name="그룹 5213">
            <g data-name="그룹 5212">
                <path data-name="패스 3782" d="M71.455 132.34a46.472 46.472 0 0 0 4.714 16.04c.289.573 1.149.069.861-.5a45.118 45.118 0 0 1-4.577-15.537c-.067-.632-1.064-.638-1 0z"/>
            </g>
        </g>
        <g data-name="그룹 5215">
            <g data-name="그룹 5214">
                <path data-name="패스 3783" d="M76.178 115.847c-6.671-.216-12.532-3.883-18.61-6.2a55.382 55.382 0 0 0-10.343-2.575 43.324 43.324 0 0 1-9.964-2.568 15.2 15.2 0 0 1-7.49-6.3c-.31-.562-1.171-.06-.861.5 3.214 5.825 10.082 7.866 16.183 8.989a73.535 73.535 0 0 1 10.889 2.426c3.205 1.11 6.252 2.617 9.374 3.932a30.614 30.614 0 0 0 10.821 2.79c.641.021.641-.976 0-1z"/>
            </g>
        </g>
        <g data-name="그룹 5217">
            <g data-name="그룹 5216">
                <path data-name="패스 3784" d="M13.573 96.866a1.637 1.637 0 0 0-1.463 1.6 3.531 3.531 0 0 0 1.188 2.4 22.079 22.079 0 0 1 3.35 5.347c.26.585 1.12.078.861-.5a22.44 22.44 0 0 0-2.6-4.419c-.478-.631-1.061-1.205-1.494-1.867a1.424 1.424 0 0 1-.3-.983c.039-.236.192-.55.461-.573.635-.052.641-1.049 0-1z"/>
            </g>
        </g>
        <g data-name="그룹 5221">
            <g data-name="그룹 5218">
                <path data-name="패스 3785" d="m1018.783-937.323.109 2.917" transform="translate(-999.413 1045.555)" style="fill:#a0a0a0"/>
            </g>
            <g data-name="그룹 5220">
                <g data-name="그룹 5219">
                    <path data-name="패스 3786" d="m17.875 108.232.109 2.917a1.565 1.565 0 0 0 .438 1.057 1.519 1.519 0 0 0 1.057.438 1.509 1.509 0 0 0 1.057-.438 1.51 1.51 0 0 0 .438-1.057l-.109-2.917a1.565 1.565 0 0 0-.438-1.057 1.52 1.52 0 0 0-1.057-.438 1.51 1.51 0 0 0-1.057.438 1.511 1.511 0 0 0-.438 1.057z"/>
                </g>
            </g>
        </g>
        <g data-name="그룹 5225">
            <g data-name="그룹 5222">
                <path data-name="패스 3787" d="M1022.092-932.033a4.087 4.087 0 0 0 .281 2.609 3.839 3.839 0 0 1 .5 1.285c.064.891-.754 1.567-1.487 2.078a2.4 2.4 0 0 1-2.051.618 2.364 2.364 0 0 1-.83-.621l-1.173-1.186a1.671 1.671 0 0 1-.5-.725.575.575 0 0 1 .36-.71" transform="translate(-998.102 1042.022)" style="fill:#a0a0a0"/>
            </g>
            <g data-name="그룹 5224">
                <g data-name="그룹 5223">
                    <path data-name="패스 3788" d="M22.548 109.592a5.888 5.888 0 0 0 .527 3.954c.048.1.095.195.148.288q.105.225-.018-.065a2.054 2.054 0 0 1 .069.2c.118.283.007-.27.008.008q-.012.248.026-.123a1.427 1.427 0 0 1-.047.175c-.038-.042.18-.337 0-.026q-.048.08-.1.156.194-.244.085-.116c-.164.164-.325.322-.5.476q-.13.1.107-.08c-.053.039-.105.079-.159.117q-.124.09-.25.176c-.07.047-.612.461-.692.41.185-.073.2-.081.044-.024a2.021 2.021 0 0 1-.212.057l.185-.023a1.366 1.366 0 0 1-.213 0q.329.05.08-.015.27.12.124.038c-.285-.255.138.171-.069-.053-.39-.422-.814-.817-1.218-1.225-.084-.085-.168-.168-.25-.253-.047-.048-.092-.1-.136-.147q.191.263.057.064l-.047-.086a.723.723 0 0 1 .119.409.973.973 0 0 1-.719.894 1.518 1.518 0 0 0 1.044-1.839 1.518 1.518 0 0 0-1.839-1.044 2.074 2.074 0 0 0-1.476 1.989 2.815 2.815 0 0 0 .953 1.944c.864.884 1.771 2.1 3.072 2.274a4.852 4.852 0 0 0 3.608-1.467 3.361 3.361 0 0 0 1.315-3.409 4.949 4.949 0 0 0-.415-1 2.739 2.739 0 0 1-.194-.385c.005 0 .095.261.038.09-.03-.092-.066-.182-.094-.275a5.398 5.398 0 0 1-.108-.452c-.007-.035-.049-.228-.006-.031s0-.045 0-.09a4.146 4.146 0 0 1 0-.464 1.045 1.045 0 0 1 .014-.174q-.041.279-.012.11c.01-.057.021-.114.034-.171a1.524 1.524 0 0 0-1.044-1.839 1.516 1.516 0 0 0-1.839 1.044z"/>
                </g>
            </g>
        </g>
        <g data-name="그룹 5226">
            <path data-name="패스 3789" d="m1007.977-1175 1.639-1.456.652-78.279 2.377-8.363 2.6 10.7.428 76.526 1.318 1.847 12.641 4.181v2.528l-10.828-.81" transform="translate(-992.197 1263.096)" style="fill:#a0a0a0"/>
            <path data-name="패스 3790" d="M38.735 98.228h-.037l-10.828-.81a.5.5 0 0 1-.46-.534.5.5 0 0 1 .534-.46l10.292.77v-1.631l-12.3-4.068a.5.5 0 0 1-.249-.184l-1.318-1.847a.5.5 0 0 1-.092-.287l-.428-76.468-2.141-8.8-1.842 6.48-.651 78.212a.5.5 0 0 1-.167.368l-1.639 1.456a.5.5 0 0 1-.7-.042.5.5 0 0 1 .042-.7l1.473-1.309.65-78.058a.493.493 0 0 1 .019-.132l2.377-8.362a.5.5 0 0 1 .479-.362h.01a.5.5 0 0 1 .475.38l2.6 10.7a.507.507 0 0 1 .014.115l.427 76.369 1.131 1.586 12.486 4.13a.5.5 0 0 1 .342.473v2.528a.5.5 0 0 1-.159.365.5.5 0 0 1-.34.122z"/>
        </g>
        <g data-name="그룹 5227">
            <path data-name="패스 3791" d="m971.781-990.847-11.3-2.552v-3.063h14" transform="translate(-960.479 1085.046)" style="fill:#a0a0a0"/>
            <path data-name="패스 3792" d="M12.602 96.649a.5.5 0 0 1-.11-.012l-11.3-2.552a.5.5 0 0 1-.389-.486v-3.063a.5.5 0 0 1 .5-.5h14a.5.5 0 0 1 .5.5.5.5 0 0 1-.5.5h-13.5v2.166l10.914 2.465a.5.5 0 0 1 .376.6.5.5 0 0 1-.491.382z"/>
        </g>
        <g data-name="그룹 5229">
            <g data-name="그룹 5228">
                <path data-name="패스 3793" d="M81.401 119.539c.953.935.964 2.386 1 3.634l.147 5.1a29.942 29.942 0 0 1-.816 9.577.5.5 0 0 0 .961.265 26.226 26.226 0 0 0 .892-7.892c-.013-1.357-.062-2.713-.1-4.07-.038-1.318-.035-2.645-.127-3.961a5 5 0 0 0-1.25-3.354c-.458-.45-1.164.254-.705.705z"/>
            </g>
        </g>
        <g data-name="그룹 5231">
            <g data-name="그룹 5230">
                <path data-name="패스 3794" d="M75.064 132.672a15.244 15.244 0 0 0 1.988 5.4 12.467 12.467 0 0 0 1.678 2.266 1.18 1.18 0 0 0 1.177.419.859.859 0 0 0 .591-1.025c-.136-.627-1.1-.361-.961.265-.01-.046.085-.193.081-.2-.012-.037-.151-.126-.183-.159-.134-.135-.253-.288-.375-.435q-.327-.4-.621-.821a14.757 14.757 0 0 1-1.114-1.879 14.43 14.43 0 0 1-1.3-4.09c-.1-.632-1.064-.364-.961.265z"/>
            </g>
        </g>
        <g data-name="그룹 5233">
            <g data-name="그룹 5232">
                <path data-name="패스 3795" d="M115.318 179.547c2.852 9.035 8.987 16.595 11.865 25.616a28.453 28.453 0 0 1 1.411 7.783c.019.64 1.016.643 1 0-.293-9.7-6.049-17.875-10.232-26.255a51.06 51.06 0 0 1-3.08-7.409c-.193-.61-1.155-.349-.961.265z"/>
            </g>
        </g>
        <g data-name="그룹 5235">
            <g data-name="그룹 5234">
                <path data-name="패스 3796" d="m122.055 198.033.428 16.653.123 4.781a.5.5 0 0 0 1 0l-.428-16.653-.123-4.781a.5.5 0 0 0-1 0z"/>
            </g>
        </g>
        <g data-name="그룹 5236">
            <path data-name="패스 3797" d="m1538.017-822.753-1.328-4.721s-2.221-6.437 4.342-2.645c0 0 4.363 3.266 3.349 6.738l-2.017 1.016z" transform="translate(-1345.013 974.765)" style="fill:#996014"/>
        </g>
        <g data-name="그룹 5237">
            <path data-name="패스 3798" d="M197.35 152.9a.5.5 0 0 1-.445-.274.5.5 0 0 1 .221-.669l1.815-.915c.651-2.908-2.887-5.737-3.2-5.979-2.505-1.442-3.337-1.136-3.58-.937-.617.51-.276 2.244-.014 3a.5.5 0 0 1-.308.634.5.5 0 0 1-.634-.309c-.105-.305-.992-3.015.322-4.1.9-.744 2.453-.462 4.74.859a.53.53 0 0 1 .05.032c.189.142 4.627 3.517 3.528 7.277a.5.5 0 0 1-.254.3l-2.016 1.017a.493.493 0 0 1-.225.064z"/>
        </g>
    </g>
</svg>
