<svg
            xmlns="http://www.w3.org/2000/svg"
            width="11.28"
            height="19.817"
            viewBox="0 0 11.28 19.817"
          >
            <g
              id="그룹_4590"
              data-name="그룹 4590"
              transform="translate(-564.926 -2315)"
            >
              <path
                id="선_7"
                data-name="선 7"
                d="M-.638,8.77a.361.361,0,0,1-.251-.1A.362.362,0,0,1-.9,8.158L7.786-.889A.362.362,0,0,1,8.3-.9a.362.362,0,0,1,.01.512L-.377,8.659A.361.361,0,0,1-.638,8.77Z"
                transform="translate(566.862 2316.862)"
                fill="#787878"
                stroke="#787878"
                stroke-linecap="round"
                stroke-width="1"
              />
              <path
                id="선_7_-_윤곽선"
                data-name="선 7 - 윤곽선"
                d="M-1.276,8.494a.72.72,0,0,1-.5-.2A.725.725,0,0,1-1.8,7.269L6.887-1.777A.727.727,0,0,1,7.409-2a.72.72,0,0,1,.5.2A.725.725,0,0,1,7.931-.775L-.754,8.272A.727.727,0,0,1-1.276,8.494Zm8.685-9.77L-1.276,7.77h0Z"
                transform="translate(567.5 2317.5)"
                fill="#787878"
                stroke="#787878"
                stroke-linecap="round"
                stroke-width="1"
              />
              <path
                id="선_8"
                data-name="선 8"
                d="M8.047,8.047a.361.361,0,0,1-.25-.1L-.889-.377A.362.362,0,0,1-.9-.889.362.362,0,0,1-.388-.9L8.3,7.423a.362.362,0,0,1-.25.623Z"
                transform="translate(566.862 2325.908)"
                fill="#787878"
                stroke="#787878"
                stroke-linecap="round"
                stroke-width="1"
              />
              <path
                id="선_8_-_윤곽선"
                data-name="선 8 - 윤곽선"
                d="M7.409,7.77a.72.72,0,0,1-.5-.2L-1.776-.754A.725.725,0,0,1-1.8-1.777.727.727,0,0,1-1.276-2a.72.72,0,0,1,.5.2L7.91,6.524a.724.724,0,0,1-.5,1.246ZM-1.276-1.276,7.409,7.047h0Z"
                transform="translate(567.5 2326.547)"
                fill="#787878"
                stroke="#787878"
                stroke-linecap="round"
                stroke-width="1"
              />
            </g>
          </svg>