<svg id="그룹_5074" data-name="그룹 5074" xmlns="http://www.w3.org/2000/svg" xmlns:xlink="http://www.w3.org/1999/xlink" width="198.993" height="191.514" viewBox="0 0 198.993 191.514">
  <defs>
    <clipPath id="clip-path">
      <rect id="사각형_1994" data-name="사각형 1994" width="198.993" height="191.514" fill="none"/>
    </clipPath>
    <clipPath id="clip-path-3">
      <rect id="사각형_1992" data-name="사각형 1992" width="45.89" height="33.664" fill="none"/>
    </clipPath>
  </defs>
  <g id="그룹_5032" data-name="그룹 5032" clip-path="url(#clip-path)">
    <g id="그룹_5031" data-name="그룹 5031">
      <g id="그룹_5030" data-name="그룹 5030" clip-path="url(#clip-path)">
        <path id="패스_3528" data-name="패스 3528" d="M432.86,112.065a20.01,20.01,0,0,0-7.151-7.712,10.75,10.75,0,0,0-4.891-1.375c-.915-.035-1.869.046-2.8.007a2.407,2.407,0,0,0,.765-1.7c.062-1.969-1.716-2.971-3.31-3.613-4.229-1.7-8.877-1.927-13.383-1.842-4.693.088-9.575.087-14.045,1.691a44.746,44.746,0,0,0-11.756,6.436c-3.324,2.544-6,6.365-5.535,10.628-3.133.415-5.441,3.33-6.03,6.376-.873,4.517,1.047,8.938.674,13.459a1.026,1.026,0,0,0,.747.982l2.961.845a.914.914,0,0,0,1.007-.3,1.048,1.048,0,0,0,.246-.411c2.079-6.325,6.059-14.424,13.328-15.7a7.429,7.429,0,0,1,4.891.592,45.255,45.255,0,0,0,5.174,2.05c3.535,1.124,6.672,2.511,9.164,5.357a16.116,16.116,0,0,1,2.734,4.507,30.99,30.99,0,0,0,2.125,4.767c.8,1.276,1.845,2.576,3.506,2.306a15.572,15.572,0,0,0,4.882-2.066c3.184-1.794,7.46-4.551,10.99-1.967a1.022,1.022,0,0,0,1.393-.365c1.9-3.862,3.821-7.886,4.1-12.248.129-2.048-.494-3.968-.512-5.991a4,4,0,0,1,.919-2.381,2.248,2.248,0,0,0-.19-2.332" transform="translate(-282.023 -74.133)" fill="#d3a475"/>
        <path id="패스_3529" data-name="패스 3529" d="M584.362,382.77a40.323,40.323,0,0,1-2.622,7.393,18.843,18.843,0,0,1-4.414,5.813,4.148,4.148,0,0,0-1.7,3.609,12.325,12.325,0,0,0,.86,3.573c3.938,10.917,10.417,20.737,16.785,30.355,3.2,4.84,6.432,9.669,9.421,14.647q1.95,3.248,3.735,6.591a86.666,86.666,0,0,0-.04-11.422l-3.26-33a55.882,55.882,0,0,0-1.836-11.013,34.319,34.319,0,0,0-2.815-6.616,30.246,30.246,0,0,0-14.111-9.926" transform="translate(-445.373 -296.162)" fill="#7dd1fd"/>
        <path id="패스_3530" data-name="패스 3530" d="M621.785,373.389a30.407,30.407,0,0,0-5.02-3.081q-.108.424-.217.847a33.411,33.411,0,0,1,5.237,2.234" transform="translate(-477.044 -286.52)" fill="#7dd1fd"/>
        <path id="패스_3531" data-name="패스 3531" d="M134.375,371.389a17.377,17.377,0,0,1-17.626,1.651c-5.792-2.744-9.12-8.668-11.33-14.421a45.955,45.955,0,0,1-2.982-17.445l-.184-.025a1.063,1.063,0,0,1-.378.093,4.666,4.666,0,0,1-2.1-.341,49.41,49.41,0,0,0-26.135,5.246C64.965,350.57,57.968,357.257,52.16,365a133.4,133.4,0,0,0-9.288,13.559c-2.8,4.877-5.144,10.008-7.6,15.059l-7.692,15.812-3.747,7.7c-.658,1.352-1.32,2.7-1.972,4.054a12.429,12.429,0,0,0-.7,1.611,59.682,59.682,0,0,1,27.316,1.6,271.789,271.789,0,0,1,12.361-29.89,24.958,24.958,0,0,1,.591,7.443q1.04-2.251,2.119-4.483a1.029,1.029,0,0,1,1.861.243c2.472,10.592-2.709,20.533-4.68,30.753A179.22,179.22,0,0,0,84.9,432.893q7.265.818,14.58,1.051c5,.158,9.976-.021,14.972-.084,8.663-.11,17.5,1.805,24.313,7.406a115.328,115.328,0,0,1,3.451-26.415l1.983.918c-1.965-9.022-3.789-18.075-5.8-27.086-1.284-5.749-2.418-11.613-4.023-17.294" transform="translate(-16.372 -263.659)" fill="#7dd1fd"/>
        <path id="패스_3532" data-name="패스 3532" d="M4.121,403.931l1.972-4.055,4.043-8.311,8.087-16.623a159.925,159.925,0,0,1,8.163-15.565,153.182,153.182,0,0,1,10.133-14.045,60.237,60.237,0,0,1,23.145-17.95,51.1,51.1,0,0,1,21.4-4.026,8.319,8.319,0,0,1-.925-2.34c-16.85-1.408-32.343,5.734-43.89,18.5a105.147,105.147,0,0,0-6.574,8.294c-2.371,3.221-4.724,6.463-6.79,9.888-2.187,3.626-4.043,7.44-5.9,11.248L1.017,401.782A8,8,0,0,0,0,404.9,2.728,2.728,0,0,0,1.528,407.6a2.649,2.649,0,0,0,1.114.138c.008-.058.016-.116.026-.174a14.214,14.214,0,0,1,1.453-3.632" transform="translate(0 -248.245)" fill="#7dd1fd"/>
        <path id="패스_3533" data-name="패스 3533" d="M174.6,634.449q1.385.392,2.776.76c.578-2.916,1.386-5.8,2.2-8.662,1.652-5.816,3.427-11.885,2.881-17.952q-1.96,4.172-3.779,8.407c-1.386,5.774-3.478,11.571-4.343,17.37l.268.077" transform="translate(-134.887 -470.89)" fill="#7dd1fd"/>
        <path id="패스_3534" data-name="패스 3534" d="M383.473,235.23a43.434,43.434,0,0,1,3.207-12.61c2.269-5.343,5.949-11.476,12.151-12.567a.91.91,0,0,0,.555-1.463,4.377,4.377,0,0,0-1.66-.034,1.025,1.025,0,0,1-.767-.15c-5.165,1.53-8.7,6.331-11.02,10.987a44.152,44.152,0,0,0-2.118,5.022,6.124,6.124,0,0,1,.631.284c1.163.608.132,2.365-1.028,1.758-.078-.041-.156-.078-.234-.112a46.392,46.392,0,0,0-1.72,8.545Z" transform="translate(-295.157 -161.251)"/>
        <path id="패스_3535" data-name="패스 3535" d="M411.655,357.464a15.308,15.308,0,0,1-15.193,2.319c-5.653-2.243-8.918-7.791-11.051-13.2a44.684,44.684,0,0,1-2.83-20.787l-2-.34q-.1.925-.157,1.854c.409.05.817.1,1.225.164,1.294.19.741,2.152-.541,1.964-.258-.038-.517-.072-.775-.106a45.956,45.956,0,0,0,2.982,17.445c2.21,5.752,5.538,11.677,11.33,14.421a17.377,17.377,0,0,0,17.626-1.651c-.174-.618-.353-1.235-.539-1.848-.024-.078-.05-.155-.074-.233" transform="translate(-294.265 -251.815)"/>
        <path id="패스_3536" data-name="패스 3536" d="M355.219,283.4c.68-2.5,3.341-4.574,5.911-3.431q.294-.972.631-1.93a5.814,5.814,0,0,0-1.211-.328c-.008.183-.016.366-.031.549-.107,1.3-2.144,1.306-2.036,0,.014-.166.024-.332.031-.5a7.106,7.106,0,0,0-5.257,5.1,10.057,10.057,0,0,0-.018,4.787q1.065.089,2.137.225a8.307,8.307,0,0,1-.155-4.471" transform="translate(-273.095 -214.872)"/>
        <path id="패스_3537" data-name="패스 3537" d="M370.713,341.718a1.067,1.067,0,0,0,.378-.093q-1.236-.156-2.475-.248a4.667,4.667,0,0,0,2.1.341" transform="translate(-285.21 -264.135)"/>
        <path id="패스_3538" data-name="패스 3538" d="M358.107,324.122a3.728,3.728,0,0,1-1.778-2.28q-1.071-.135-2.137-.225a8.32,8.32,0,0,0,.925,2.34q1.494.04,2.989.165" transform="translate(-274.051 -248.846)"/>
        <path id="패스_3539" data-name="패스 3539" d="M390.336,279.442a6.229,6.229,0,0,0-.631-.284q-.337.958-.631,1.93c.078.035.156.072.234.112,1.16.607,2.191-1.15,1.028-1.758" transform="translate(-301.04 -215.994)"/>
        <path id="패스_3540" data-name="패스 3540" d="M588.851,240c-2.274-1.35-10.4-6.18-11.581-1.341a7.472,7.472,0,0,0,.758,4.345c-.468-1.228,1.5-1.754,1.964-.541-.378-.938-1.127-2.684-.661-3.541.073-.134,0-.051.121-.124a.731.731,0,0,1,.338-.117,4.005,4.005,0,0,1,1.11.046,19.519,19.519,0,0,1,6.053,2.529c.5.281,1,.565,1.484.875a4.986,4.986,0,0,1,1.859,2.194,7.888,7.888,0,0,1,2.231.246,8.054,8.054,0,0,0-3.676-4.57" transform="translate(-446.57 -183.027)"/>
        <path id="패스_3541" data-name="패스 3541" d="M600.494,691.01c-.023-2.388.075-4.778.183-7.169-.625-1.465-1.349-2.892-2.08-4.294-.141-.27-.287-.537-.429-.806-.058,1.4-.12,2.785-.167,4.131a27.757,27.757,0,0,1,2.1,5.607,14.1,14.1,0,0,1-.488,8.184,25.658,25.658,0,0,1-4.3,7.2,12.222,12.222,0,0,1-2.795,2.779,7.956,7.956,0,0,1-4.141,1.025,25.664,25.664,0,0,1-7.807-.625,8.992,8.992,0,0,1-5.444-4.668,36.653,36.653,0,0,1-2.634-7.6q-1.232-4.439-2.327-8.915c-1.025-4.162-1.977-8.341-2.9-12.528l-2.322-1.076q.279,1.279.562,2.558c.021-.091.041-.183.063-.274.3-1.277,2.263-.733,1.964.542q-.515,2.195-.975,4.4.5,2.181,1.02,4.359,1.123,4.694,2.37,9.357a68.886,68.886,0,0,0,2.526,8.27,13.512,13.512,0,0,0,4.145,5.86,13.337,13.337,0,0,0,7.285,2.29c2.7.183,5.853.42,8.42-.607,2.448-.98,4.117-3.222,5.635-5.276,2.755-3.727,4.624-7.943,4.535-12.455a1.027,1.027,0,0,1-2-.277" transform="translate(-437.118 -520.152)"/>
        <path id="패스_3542" data-name="패스 3542" d="M581.709,268.637a9.424,9.424,0,0,0-.125-5.968c.49,1.218-1.48,1.742-1.964.541a7.834,7.834,0,0,1-.4,6.4,7.46,7.46,0,0,0,2.383-.921l.105-.053" transform="translate(-448.163 -203.236)"/>
        <path id="패스_3543" data-name="패스 3543" d="M582.7,260.32c-.462-1.213-2.431-.687-1.964.542.484,1.2,2.454.676,1.964-.542" transform="translate(-449.283 -200.887)"/>
        <path id="패스_3544" data-name="패스 3544" d="M543.818,301.137a5.845,5.845,0,0,1-1.458.282,2.428,2.428,0,0,1-.994-.16,50.128,50.128,0,0,1-5.589,6.221,40.421,40.421,0,0,0-4.063,4.924l2.207.374q.317-.426.642-.839c2.915-3.7,6.99-6.629,9.255-10.8" transform="translate(-411.405 -233)"/>
        <path id="패스_3545" data-name="패스 3545" d="M615.691,280.732c.005,2.632-1.245,5.055-2.4,7.35a44.547,44.547,0,0,0-2.866,6.913c-.45,1.458-.831,2.942-1.206,4.429q.957.391,1.875.84c.308-1.207.618-2.412.961-3.6a43.2,43.2,0,0,1,2.995-7.549,21.2,21.2,0,0,0,2.634-7.434,10.219,10.219,0,0,0,.036-1.337,5.287,5.287,0,0,0-2.086-.559,8.418,8.418,0,0,1,.057.952" transform="translate(-471.373 -216.475)"/>
        <path id="패스_3546" data-name="패스 3546" d="M524.369,474.475c-.362-1.519-.718-3.043-1.14-4.547a17.618,17.618,0,0,1-1.706,1.4c1.6,5.682,2.738,11.546,4.023,17.295,2.013,9.011,3.837,18.064,5.8,27.086l2.322,1.076c-1.748-7.97-3.369-15.969-5.109-23.941q-2.01-9.2-4.192-18.369" transform="translate(-403.52 -363.599)"/>
        <path id="패스_3547" data-name="패스 3547" d="M573.419,375.752a17.493,17.493,0,0,1-3.728,5.568,10.756,10.756,0,0,0-2.477,2.7,6.3,6.3,0,0,0-.574,3.386,25.314,25.314,0,0,0,2.318,7.358q1.536,3.66,3.36,7.188c2.529,4.9,5.413,9.615,8.4,14.249,5.937,9.2,12.332,18.14,17.4,27.867.4.759.788,1.524,1.162,2.3.048-1.347.109-2.734.167-4.132q-1.777-3.346-3.735-6.591c-2.989-4.978-6.216-9.807-9.421-14.647-6.368-9.619-12.848-19.438-16.785-30.355a12.314,12.314,0,0,1-.86-3.573,4.149,4.149,0,0,1,1.7-3.609,18.843,18.843,0,0,0,4.414-5.813,40.312,40.312,0,0,0,2.622-7.393q-.488-.164-.985-.312a1.019,1.019,0,0,1,.541-1.964c.322.1.641.2.96.3l.216-.847q-.918-.448-1.875-.84a56.789,56.789,0,0,1-2.833,9.157" transform="translate(-438.406 -283.647)"/>
        <path id="패스_3548" data-name="패스 3548" d="M505.314,360.258c-1,2.8-1.893,5.883-1.276,8.87a15.642,15.642,0,0,0,1.373,3.564,33.178,33.178,0,0,1,1.812,4.485q.476-.381.925-.8a.96.96,0,0,1,.864-.265c-.264-.805-.553-1.6-.885-2.386-.52-1.225-1.187-2.387-1.668-3.628a8.883,8.883,0,0,1-.46-4.68,33.222,33.222,0,0,1,6.35-14.111l-2.207-.374a39.392,39.392,0,0,0-4.829,9.326" transform="translate(-389.834 -271.527)"/>
        <path id="패스_3549" data-name="패스 3549" d="M519.737,462.412q-.448.422-.925.8c.024.078.05.155.074.233q.28.92.539,1.848a17.6,17.6,0,0,0,1.706-1.4q-.247-.879-.53-1.746a.961.961,0,0,0-.865.265" transform="translate(-401.422 -357.565)"/>
        <path id="패스_3550" data-name="패스 3550" d="M17.234,705.759,17,705.8c-1.26.22-3.046.869-3.458-.856a3.042,3.042,0,0,1,.121-1.632q-.509.089-1.018.187a8.978,8.978,0,0,1-1.128.169A3.922,3.922,0,0,0,13.4,707.8a8.21,8.21,0,0,1,.809-.679,8.994,8.994,0,0,1,3.027-1.361" transform="translate(-8.876 -544.174)"/>
        <path id="패스_3551" data-name="패스 3551" d="M157.98,635.738q2.994-8.471,6.538-16.728a45.462,45.462,0,0,0,1.267-7.82q-5.429,11.743-9.75,23.955.971.3,1.945.593" transform="translate(-120.729 -472.898)"/>
        <path id="패스_3552" data-name="패스 3552" d="M379.556,342.1l.184.025c0-.045,0-.089,0-.134a.95.95,0,0,1-.187.109" transform="translate(-293.675 -264.611)"/>
        <path id="패스_3553" data-name="패스 3553" d="M192.863,593.584a22.565,22.565,0,0,0-.495-3.112l1.861.243q-.692,1.43-1.366,2.868c.547,6.067-1.229,12.136-2.881,17.952-.811,2.858-1.619,5.746-2.2,8.662q.932.248,1.867.486c1.971-10.22,7.151-20.161,4.68-30.753a1.029,1.029,0,0,0-1.861-.243q-1.081,2.232-2.12,4.484a45.47,45.47,0,0,1-1.267,7.82q1.817-4.235,3.779-8.407" transform="translate(-145.296 -455.879)"/>
        <path id="패스_3554" data-name="패스 3554" d="M372.94,332.958a.9.9,0,0,1,.638.189q.007-.121.015-.242-1.05-.13-2.1-.218a2.887,2.887,0,0,0,1.447.27" transform="translate(-287.437 -257.412)"/>
        <path id="패스_3555" data-name="패스 3555" d="M208.041,594.843a22.6,22.6,0,0,1,.495,3.112q.675-1.438,1.366-2.868l-1.861-.243" transform="translate(-160.968 -460.25)"/>
        <path id="패스_3556" data-name="패스 3556" d="M13.823,415.916a12.426,12.426,0,0,1,.7-1.611c.653-1.354,1.315-2.7,1.972-4.054l3.747-7.7,7.692-15.812c2.457-5.051,4.806-10.182,7.6-15.059a133.361,133.361,0,0,1,9.288-13.559c5.809-7.738,12.806-14.425,21.483-18.848a49.412,49.412,0,0,1,26.135-5.246,5.022,5.022,0,0,1-2.338-2.132,51.106,51.106,0,0,0-21.4,4.026,60.235,60.235,0,0,0-23.145,17.95,153.19,153.19,0,0,0-10.133,14.045,159.982,159.982,0,0,0-8.163,15.565L19.173,400.1l-4.043,8.311-1.972,4.054A14.23,14.23,0,0,0,11.7,416.1c-.01.058-.018.116-.026.174a8.951,8.951,0,0,0,1.128-.17q.508-.1,1.018-.187" transform="translate(-9.036 -256.781)"/>
        <path id="패스_3557" data-name="패스 3557" d="M381.687,333.814c-.408-.06-.817-.113-1.225-.164q-.008.121-.015.242a1.093,1.093,0,0,1-.074,1.646c0,.044,0,.089,0,.134.258.034.517.068.775.106,1.282.188,1.836-1.774.541-1.964" transform="translate(-294.306 -258.156)"/>
        <path id="패스_3558" data-name="패스 3558" d="M363.283,334.227q.014-.581.043-1.161c.008-.162.021-.323.031-.485a.9.9,0,0,0-.639-.189,2.888,2.888,0,0,1-1.447-.271q-1.495-.125-2.989-.165a5.022,5.022,0,0,0,2.338,2.132c.826.062,1.651.143,2.475.248a.967.967,0,0,0,.187-.109" transform="translate(-277.215 -256.845)"/>
        <path id="패스_3559" data-name="패스 3559" d="M380.455,334.719c-.01.162-.022.323-.03.485q-.029.58-.044,1.161a1.093,1.093,0,0,0,.074-1.646" transform="translate(-294.313 -258.983)"/>
        <path id="패스_3560" data-name="패스 3560" d="M660.686,449.215c-.427-7.277-1.406-14.559-2.122-21.813q-.551-5.575-1.1-11.15a83.171,83.171,0,0,0-1.469-10.771,34.035,34.035,0,0,0-7.435-14.557,31.207,31.207,0,0,0-8.867-7,30.945,30.945,0,0,1,8.358,9.665,31.452,31.452,0,0,1,5.774,11.6,66.938,66.938,0,0,1,1.536,10.394l1.057,10.7c.7,7.135,1.448,14.268,2.115,21.407a94.428,94.428,0,0,1-.021,13.049,25.536,25.536,0,0,1,1.39,4.1,15.739,15.739,0,0,1,.428,3.35,1.074,1.074,0,0,0,.035-.277c-.06-6.233.688-12.466.322-18.7" transform="translate(-494.95 -297.056)"/>
        <path id="패스_3561" data-name="패스 3561" d="M614.267,376.025a30.246,30.246,0,0,1,14.111,9.926,30.947,30.947,0,0,0-8.358-9.665,33.393,33.393,0,0,0-5.237-2.234q-.253.988-.516,1.972" transform="translate(-475.279 -289.417)"/>
        <path id="패스_3562" data-name="패스 3562" d="M722.226,723.433c-.108,2.391-.206,4.781-.183,7.169a1.027,1.027,0,0,0,2,.277,15.734,15.734,0,0,0-.428-3.35,25.53,25.53,0,0,0-1.39-4.1" transform="translate(-558.666 -559.744)"/>
        <path id="패스_3563" data-name="패스 3563" d="M608.012,372.553a1.019,1.019,0,0,0-.541,1.964q.5.148.985.312.265-.984.516-1.972c-.318-.1-.638-.207-.96-.3" transform="translate(-469.468 -288.22)"/>
        <path id="패스_3564" data-name="패스 3564" d="M553.011,699.451c-.342,3.167-.522,6.345-.6,9.527a23.321,23.321,0,0,1,1.762,2.209l.237.338c.023-3.908.19-7.813.6-11.7a115.619,115.619,0,0,1,1.855-11.585q-.536-2.333-1.052-4.67a132.8,132.8,0,0,0-2.8,15.884" transform="translate(-427.422 -528.899)"/>
        <path id="패스_3565" data-name="패스 3565" d="M567.491,679.866c-.021.091-.041.183-.063.274q.517,2.337,1.052,4.67.459-2.207.975-4.4c.3-1.275-1.664-1.819-1.964-.542" transform="translate(-439.038 -525.472)"/>
        <path id="패스_3566" data-name="패스 3566" d="M51.755,729.836a25.526,25.526,0,0,0,.294,2.646c.212,1.284-1.751,1.831-1.964.541a27.053,27.053,0,0,1-.34-3.449l-2.268-.3a27.256,27.256,0,0,1-.214-7.257q-1.331-.376-2.657-.772a1,1,0,0,1-1.116.445A59.3,59.3,0,0,0,24,719.3q-2.419.109-4.825.414c-.9.116-1.8.3-2.7.466a6.541,6.541,0,0,0-2.328,1.263,9.291,9.291,0,0,0-2.559,4.487,30.954,30.954,0,0,0-1.01,5.046c-.192,1.6-.335,3.536.558,4.963,1.136,1.816,3.5,1.761,5.4,1.813q3.606.1,7.212.2l28.624.776,14.425.391c4.318.117,8.8-.061,13.044.851s7.614,3.824,11.951,4.427c4.44.617,9.047.048,13.513.069q6.935.032,13.849.684c4.223.4,8.815,1.5,13.008.4.842-.22,2.412-.588,2.808-1.488a1.04,1.04,0,0,1-1.91-.513q-.037-1.893-.033-3.786a20.615,20.615,0,0,0-2.238-2.631c-.111-.111-.225-.218-.338-.327,0,1.064.015,2.152.038,3.271Z" transform="translate(-8.069 -556.501)" fill="#fff"/>
        <path id="패스_3567" data-name="패스 3567" d="M175.67,732.334q-1.472-.389-2.937-.8a27.256,27.256,0,0,0,.214,7.257l2.268.3a35.313,35.313,0,0,1,.455-6.748" transform="translate(-133.538 -566.009)" fill="#fff"/>
        <path id="패스_3568" data-name="패스 3568" d="M248.848,742.654c-4.576-.028-9.145.231-13.723.157a182.841,182.841,0,0,1-41.889-5.577,31.791,31.791,0,0,0-.329,6.523L271.635,754c-.023-1.119-.036-2.207-.038-3.271a27.486,27.486,0,0,0-9.17-5.678,38.3,38.3,0,0,0-13.579-2.4" transform="translate(-149.221 -570.422)" fill="#fff"/>
        <path id="패스_3569" data-name="패스 3569" d="M184.534,768.358c.213,1.29,2.176.743,1.964-.541a25.517,25.517,0,0,1-.294-2.646l-2.009-.261a27.017,27.017,0,0,0,.339,3.449" transform="translate(-142.518 -591.836)" fill="#fff"/>
        <path id="패스_3570" data-name="패스 3570" d="M44.654,717.937a59.293,59.293,0,0,1,19.5,2.394,1,1,0,0,0,1.116-.445q-2.187-.653-4.359-1.36a63.827,63.827,0,0,0-6.948-.9,64.311,64.311,0,0,0-13.244.5,20.7,20.7,0,0,0-3.588.7c.9-.163,1.8-.35,2.7-.466q2.4-.309,4.825-.414" transform="translate(-28.726 -555.137)" fill="#fff"/>
        <path id="패스_3571" data-name="패스 3571" d="M184.13,741.832l2.009.261a31.793,31.793,0,0,1,.329-6.523q-.943-.239-1.883-.487a35.33,35.33,0,0,0-.455,6.748" transform="translate(-142.453 -568.759)" fill="#fff"/>
        <path id="패스_3572" data-name="패스 3572" d="M554.176,814.245c0-.008.008-.015.011-.022.325-.786-.525-1.964-.9-2.625a18.843,18.843,0,0,0-1.055-1.652q0,1.893.033,3.786a1.04,1.04,0,0,0,1.91.513" transform="translate(-427.281 -626.681)" fill="#fff"/>
        <path id="패스_3573" data-name="패스 3573" d="M143.572,713.246a1.068,1.068,0,0,0-.3-.054l.3.054" transform="translate(-110.851 -551.82)"/>
        <path id="패스_3574" data-name="패스 3574" d="M144.881,713.516a1.054,1.054,0,0,0-.268-.086l.268.086" transform="translate(-111.892 -552.005)"/>
        <path id="패스_3575" data-name="패스 3575" d="M165.536,721.342q.063-.509.138-1.019-1.1-.313-2.2-.642-.17.481-.337.963,1.2.357,2.394.7" transform="translate(-126.228 -556.841)"/>
        <path id="패스_3576" data-name="패스 3576" d="M140.768,713.331l-.268-.086-.3-.054a.92.92,0,0,0-.9.723q.957.207,1.906.445a.864.864,0,0,0-.436-1.028" transform="translate(-107.78 -551.82)"/>
        <path id="패스_3577" data-name="패스 3577" d="M541.369,785.356c-.162-.139-.326-.275-.491-.41q-.01.654-.015,1.319a22.855,22.855,0,0,1,2.586,2.678q.01-.763.027-1.525a23.4,23.4,0,0,0-2.108-2.063" transform="translate(-418.485 -607.339)"/>
        <path id="패스_3578" data-name="패스 3578" d="M61,709.547a63.79,63.79,0,0,0-13.778-1.021c-2.436.1-4.861.346-7.274.68a25.47,25.47,0,0,0-3.006.553q1.782-.3,3.58-.507a59.665,59.665,0,0,1,7.989-.361A61.03,61.03,0,0,1,60.1,710.27a.92.92,0,0,1,.9-.723" transform="translate(-28.582 -548.175)"/>
        <path id="패스_3579" data-name="패스 3579" d="M128.217,744.117c.215.39.418.787.605,1.194a3.084,3.084,0,0,1,.387,1.667c-.133.973-1.068,1.62-1.968,2.012-3.611,1.57-7.741,1-11.652.545a155.549,155.549,0,0,0-22.417-.965c-4.171.122-8.5.386-12.366-1.181-1.737-.7-3.314-1.755-5.042-2.48-3.326-1.394-7.028-1.512-10.633-1.61l-55.9-1.516c-1.692-.046-3.515-.137-4.843-1.187-2.2-1.74-1.955-5.089-1.5-7.856.556-3.4,1.354-7.175,4-9.257a3.3,3.3,0,0,1-1.145-.334c-2.389,2.25-3.221,5.684-3.758,8.837-.558,3.278-1.045,7.593,2.181,9.7,1.742,1.138,3.969,1.086,5.966,1.14l7.663.208,15.326.416L64,744.287a59.271,59.271,0,0,1,7.071.421,19.852,19.852,0,0,1,6.515,2.234,20.852,20.852,0,0,0,6.218,2.345,34.489,34.489,0,0,0,6.725.379c5-.111,9.97-.2,14.964.052,4.835.242,9.62.984,14.446,1.27a18.067,18.067,0,0,0,6.47-.607c1.618-.509,3.666-1.461,3.814-3.4.126-1.649-1.059-3.464-2.011-4.828q-.006.983,0,1.967" transform="translate(-1.225 -559.525)"/>
        <path id="패스_3580" data-name="패스 3580" d="M148.113,714.545q-1.16-.361-2.317-.735a.863.863,0,0,1,.436,1.028q.816.2,1.628.429c.084-.241.168-.482.253-.722" transform="translate(-112.807 -552.299)"/>
        <path id="패스_3581" data-name="패스 3581" d="M173.862,722.517q-.076.509-.138,1.019,1.492.424,2.992.821c.06-.335.124-.669.19-1q-1.391-.37-2.776-.76l-.268-.077" transform="translate(-134.416 -559.036)"/>
        <path id="패스_3582" data-name="패스 3582" d="M244.058,734.905a91.1,91.1,0,0,1,11.034.075,36.445,36.445,0,0,1,9.443,2.226,29.332,29.332,0,0,1,8.9,5.28q0-.665.015-1.319c-6.809-5.6-15.65-7.516-24.313-7.406-5,.063-9.975.241-14.972.084q-7.308-.231-14.58-1.051a179.171,179.171,0,0,1-24.172-4.43q-.1.5-.182,1a181.43,181.43,0,0,0,48.825,5.536" transform="translate(-151.058 -563.561)"/>
        <path id="패스_3583" data-name="패스 3583" d="M141.049,717a1.192,1.192,0,0,0,.052-.164q-.949-.238-1.906-.445a1.234,1.234,0,0,0-.03.143c.32.055.639.109.962.169.307.1.615.2.923.3" transform="translate(-107.676 -554.293)"/>
        <path id="패스_3584" data-name="패스 3584" d="M21.707,713.084a11.984,11.984,0,0,1,4.731-1.445,62.244,62.244,0,0,1,20.514.131,1.223,1.223,0,0,1,.03-.143,61.021,61.021,0,0,0-11.591-1.378,59.634,59.634,0,0,0-7.989.361q-1.8.2-3.58.507a8.992,8.992,0,0,0-3.027,1.361,8.189,8.189,0,0,0-.809.679,3.294,3.294,0,0,0,1.145.334,6.761,6.761,0,0,1,.575-.407" transform="translate(-15.464 -549.532)"/>
        <path id="패스_3585" data-name="패스 3585" d="M154.628,720.251l-.084.24.669.207.327-.185q-.455-.134-.912-.262" transform="translate(-119.576 -557.282)"/>
        <path id="패스_3586" data-name="패스 3586" d="M149.173,718.783q-.811-.227-1.628-.429a1.189,1.189,0,0,1-.052.164q.8.256,1.6.5l.084-.24" transform="translate(-114.121 -555.814)"/>
        <path id="패스_3587" data-name="패스 3587" d="M155.828,718.043l-.327.186q.638.2,1.277.386.168-.481.337-.963-.974-.291-1.945-.593c-.085.241-.169.482-.253.722q.457.128.912.262" transform="translate(-119.864 -554.813)"/>
        <path id="패스_3588" data-name="패스 3588" d="M186.946,727.22q.936.248,1.875.487.086-.5.182-1-.935-.238-1.867-.486c-.066.334-.13.668-.19,1" transform="translate(-144.646 -561.898)"/>
        <path id="패스_3589" data-name="패스 3589" d="M552.321,795.873q-.018.762-.028,1.525a19.987,19.987,0,0,1,2.026,2.989q-.006-.984,0-1.967l-.236-.338a23.354,23.354,0,0,0-1.762-2.208" transform="translate(-427.328 -615.794)"/>
        <path id="패스_3590" data-name="패스 3590" d="M540.851,790.776c0,.456,0,.915,0,1.38.113.108.227.216.338.327a20.592,20.592,0,0,1,2.238,2.631q0-.83.013-1.66a22.834,22.834,0,0,0-2.586-2.678" transform="translate(-418.472 -611.85)"/>
        <path id="패스_3591" data-name="패스 3591" d="M131.549,747.277c-.4.9-1.966,1.268-2.808,1.488-4.193,1.1-8.785-.006-13.008-.4q-6.9-.651-13.849-.685c-4.467-.021-9.073.548-13.513-.069-4.338-.6-7.713-3.517-11.951-4.427s-8.726-.734-13.044-.851l-14.425-.391-28.624-.777q-3.606-.1-7.212-.2c-1.895-.052-4.263,0-5.4-1.813-.893-1.427-.75-3.366-.558-4.963a30.981,30.981,0,0,1,1.01-5.046,9.294,9.294,0,0,1,2.559-4.487,6.54,6.54,0,0,1,2.328-1.263c-.66.12-1.322.228-1.985.285a3.925,3.925,0,0,1-.748-.006c-2.648,2.082-3.446,5.86-4,9.257-.453,2.768-.7,6.116,1.5,7.856,1.328,1.05,3.15,1.141,4.843,1.187l55.9,1.516c3.605.1,7.307.216,10.632,1.61,1.728.724,3.306,1.776,5.043,2.48,3.868,1.568,8.194,1.3,12.366,1.181a155.594,155.594,0,0,1,22.417.965c3.911.453,8.041,1.024,11.652-.545.9-.391,1.835-1.039,1.968-2.012a3.083,3.083,0,0,0-.386-1.667c-.188-.406-.391-.8-.605-1.193q.008,1.228.03,2.457a.973.973,0,0,1-.127.513" transform="translate(-4.655 -559.714)"/>
        <path id="패스_3592" data-name="패스 3592" d="M161.859,723.934c-.079.227-.16.453-.238.681a1.177,1.177,0,0,1-.137.266q1.326.4,2.657.772c.032-.34.071-.68.113-1.021q-1.2-.34-2.394-.7" transform="translate(-124.946 -560.132)"/>
        <path id="패스_3593" data-name="패스 3593" d="M173.227,728.04q1.465.414,2.937.8.079-.5.167-1-1.5-.4-2.992-.821c-.042.34-.08.68-.112,1.02" transform="translate(-134.032 -562.52)"/>
        <path id="패스_3594" data-name="패스 3594" d="M254.546,738.412a91.115,91.115,0,0,0-11.034-.075,181.43,181.43,0,0,1-48.825-5.536q-.086.5-.16,1a182.824,182.824,0,0,0,41.889,5.577c4.578.074,9.147-.185,13.723-.157a38.3,38.3,0,0,1,13.579,2.4,27.485,27.485,0,0,1,9.17,5.678c0-.465,0-.924,0-1.38a29.332,29.332,0,0,0-8.9-5.28,36.445,36.445,0,0,0-9.443-2.227" transform="translate(-150.512 -566.993)"/>
        <path id="패스_3595" data-name="패스 3595" d="M153.41,722.045l.926-.526-.669-.207c-.086.244-.172.488-.257.733" transform="translate(-118.698 -558.103)"/>
        <path id="패스_3596" data-name="패스 3596" d="M25.8,715.613c.664-.057,1.325-.165,1.985-.285a20.723,20.723,0,0,1,3.588-.7,64.309,64.309,0,0,1,13.244-.5,63.8,63.8,0,0,1,6.947.9,1,1,0,0,1-.691-1.151,62.246,62.246,0,0,0-20.514-.131,11.988,11.988,0,0,0-4.731,1.445,6.851,6.851,0,0,0-.575.407,3.9,3.9,0,0,0,.748.006" transform="translate(-19.38 -551.649)"/>
        <path id="패스_3597" data-name="패스 3597" d="M146.715,720.86c.079-.227.159-.454.238-.681q-.639-.191-1.277-.386l-.925.525c.085-.244.171-.488.257-.733q-.8-.249-1.6-.5a1.055,1.055,0,0,1-1.193.685q2.171.708,4.359,1.36a1.184,1.184,0,0,0,.137-.266" transform="translate(-110.04 -556.377)"/>
        <path id="패스_3598" data-name="패스 3598" d="M139.81,718.173a1.055,1.055,0,0,0,1.193-.685c-.307-.1-.616-.2-.923-.3-.323-.06-.642-.114-.962-.169a1,1,0,0,0,.691,1.151" transform="translate(-107.63 -554.784)"/>
        <path id="패스_3599" data-name="패스 3599" d="M188.089,732.139q.073-.5.16-1-.939-.238-1.875-.487c-.06.334-.115.669-.168,1q.94.249,1.883.487" transform="translate(-144.074 -565.328)"/>
        <path id="패스_3600" data-name="패스 3600" d="M552.234,804.27a18.8,18.8,0,0,1,1.055,1.652c.374.661,1.224,1.839.9,2.625,0,.008-.008.015-.011.022a.976.976,0,0,0,.127-.513q-.024-1.228-.03-2.457a19.977,19.977,0,0,0-2.026-2.988c-.007.553-.012,1.106-.013,1.66" transform="translate(-427.282 -621.006)"/>
        <path id="패스_3601" data-name="패스 3601" d="M650.077,274.676a6.52,6.52,0,0,0-.936-.569q-.229.469-.457.935l1.393-.365" transform="translate(-501.909 -212.086)"/>
        <path id="패스_3602" data-name="패스 3602" d="M459.181,205.826c3.609,1.187,6.947,2.317,9.634,5.144a15.789,15.789,0,0,1,2.945,4.416,53.142,53.142,0,0,0,2.2,5.062,5.38,5.38,0,0,0,2.386,2.495,14.1,14.1,0,0,0,1.1-1.884,1.021,1.021,0,0,1-.455-.067c-.786-.34-1.341-1.654-1.694-2.376-.832-1.7-1.351-3.537-2.237-5.215a17.506,17.506,0,0,0-3.165-4.244c-2.72-2.689-6.028-3.965-9.6-5.113a35.756,35.756,0,0,1-6.027-2.716,8.816,8.816,0,0,0-5.85-1.3c-.985.178-.9,1.368-.226,1.814a11.979,11.979,0,0,1,1.331-.316,1.039,1.039,0,0,1,1.1.5,13.016,13.016,0,0,1,3.6,1.606,28.118,28.118,0,0,0,4.973,2.2" transform="translate(-346.38 -154.683)"/>
        <path id="패스_3603" data-name="패스 3603" d="M402.25,192.259a5.876,5.876,0,0,0-1.206.036,9.128,9.128,0,0,0,.224,1.253l.982-1.289" transform="translate(-310.301 -148.745)"/>
        <path id="패스_3604" data-name="패스 3604" d="M376.346,147.57c.154-3.6-1.039-7.087-.944-10.685.082-3.085,1.805-6.869,5.439-6.6a1.027,1.027,0,0,0,.982-1.289c-.931-3.687,1.339-7.1,4.084-9.345a44.254,44.254,0,0,1,9.393-5.574,30.015,30.015,0,0,1,11.766-2.388,60.76,60.76,0,0,1,11.528.247,18.11,18.11,0,0,1,5.985,1.755c.593.332,1.715,1.406.492,1.616a3.178,3.178,0,0,0-2.089.8,1.033,1.033,0,0,0,.206,1.6c2.862,1.871,6.45.359,9.506,1.674,3.085,1.328,5.295,4.221,7.022,6.989q.134.213.264.429.375.26.015.488c-.13.358-.488.688-.646,1.059a5.3,5.3,0,0,0-.376,2.137c.02,1.812.578,3.556.537,5.381-.087,3.85-1.718,7.473-3.386,10.9a6.518,6.518,0,0,1,.936.569l-1.393.365q.228-.465.457-.935a6.652,6.652,0,0,0-1.277-.481,8.9,8.9,0,0,1,.391,2.324,5.658,5.658,0,0,1,.794.485,1.022,1.022,0,0,0,1.393-.365c1.9-3.862,3.821-7.886,4.1-12.248.129-2.048-.494-3.968-.512-5.991a4,4,0,0,1,.919-2.381,2.248,2.248,0,0,0-.19-2.332,20.011,20.011,0,0,0-7.151-7.712,10.754,10.754,0,0,0-4.891-1.375c-.915-.035-1.869.046-2.8.007a2.178,2.178,0,0,1-.253.2c-.6.4-1.776.183-2.224.654l-.206-1.6a5.14,5.14,0,0,0,2.684.742,2.406,2.406,0,0,0,.765-1.7c.062-1.969-1.716-2.971-3.31-3.613-4.229-1.7-8.877-1.927-13.383-1.842-4.693.088-9.575.087-14.045,1.692a44.742,44.742,0,0,0-11.756,6.436c-3.324,2.544-6,6.364-5.535,10.628a5.877,5.877,0,0,1,1.206-.036l-.982,1.289a9.158,9.158,0,0,1-.224-1.253c-3.133.415-5.441,3.33-6.03,6.376-.841,4.351.908,8.613.7,12.961a5.754,5.754,0,0,1,2.036-.05" transform="translate(-288.893 -84.733)"/>
        <path id="패스_3605" data-name="패스 3605" d="M598.279,139.533c.448-.472,1.626-.249,2.224-.654a2.2,2.2,0,0,0,.253-.2,5.137,5.137,0,0,1-2.684-.743l.206,1.6" transform="translate(-462.749 -106.724)"/>
        <path id="패스_3606" data-name="패스 3606" d="M451.256,206.948a12,12,0,0,0-1.331.316,1.024,1.024,0,0,0,.767.15,4.377,4.377,0,0,1,1.66.034,1.039,1.039,0,0,0-1.1-.5" transform="translate(-348.122 -160.108)"/>
        <path id="패스_3607" data-name="패스 3607" d="M379.392,278.027c.015-.183.023-.366.031-.549a5.748,5.748,0,0,0-2.036.05c-.008.166-.017.332-.031.5-.108,1.306,1.929,1.3,2.036,0" transform="translate(-291.97 -214.642)"/>
        <path id="패스_3608" data-name="패스 3608" d="M575.368,292.062a5.84,5.84,0,0,0,1.458-.282,14.425,14.425,0,0,0,.733-1.557,12.411,12.411,0,0,0,.4-1.18l-.105.053a7.459,7.459,0,0,1-2.383.921,14.064,14.064,0,0,1-1.1,1.884,2.426,2.426,0,0,0,.994.16" transform="translate(-444.412 -223.643)"/>
        <path id="패스_3609" data-name="패스 3609" d="M635.2,270.885a6.793,6.793,0,0,1,.536,2.01,5.29,5.29,0,0,1,2.086.559,8.9,8.9,0,0,0-.391-2.324,7.89,7.89,0,0,0-2.231-.246" transform="translate(-491.476 -209.59)"/>
        <path id="패스_3610" data-name="패스 3610" d="M715.924,121.262l5.451-2.851,2.726-1.426,1.168-.611c.313-.164.907-.619,1.254-.6l-.857-.232q-.3-.689-.264-.292-.071.353-.158.7c-.086.348-.182.694-.287,1.038a23.17,23.17,0,0,1-.834,2.288c-.685,1.614-1.517,3.166-2.32,4.724a30.887,30.887,0,0,0-3.6,9.619,1.725,1.725,0,0,0,2.493,1.916,78.659,78.659,0,0,0,12.894-7.31c1.777-1.242.083-4.186-1.713-2.931a78.67,78.67,0,0,1-12.894,7.31l2.493,1.916c.871-6.1,5.079-10.976,6.8-16.8.387-1.307.881-2.947.095-4.21-1.042-1.673-2.817-1.114-4.236-.372l-9.929,5.194c-1.936,1.013-.222,3.943,1.713,2.931" transform="translate(-551.951 -86.98)" fill="#d3a475"/>
        <path id="패스_3611" data-name="패스 3611" d="M728.133,153.51c3.19-2.434,7.439-2.681,10.732-4.952,1.549-1.067.079-3.618-1.485-2.54-3.289,2.267-7.531,2.509-10.732,4.952a1.521,1.521,0,0,0-.528,2.012,1.479,1.479,0,0,0,2.012.528" transform="translate(-561.673 -112.778)" fill="#d3a475"/>
        <path id="패스_3612" data-name="패스 3612" d="M738.248,2.632l3.63-.059,1.708-.028a4.73,4.73,0,0,1,1.7.048l-.744-.572c-.154-.226.119-.262-.117.094a4.474,4.474,0,0,1-.426.568,9.963,9.963,0,0,1-1.045.937c-.786.651-1.6,1.273-2.382,1.924a16.94,16.94,0,0,0-3.889,4.307,1.254,1.254,0,0,0,1.075,1.873l7.508-.64c1.584-.135,1.6-2.625,0-2.489l-7.508.64,1.075,1.873a16.2,16.2,0,0,1,3.918-4.145c1.317-1.07,2.974-2.08,3.824-3.59s.4-3.251-1.49-3.339c-2.26-.1-4.57.074-6.832.111a1.245,1.245,0,0,0,0,2.489" transform="translate(-569.871 0)" fill="#d3a475"/>
        <path id="패스_3613" data-name="패스 3613" d="M739.706,20.629a47.254,47.254,0,0,1,9.131-.193c1.307.1,1.3-1.938,0-2.036a47.254,47.254,0,0,0-9.131.193c-1.286.152-1.3,2.19,0,2.036" transform="translate(-571.585 -14.132)" fill="#d3a475"/>
        <path id="패스_3614" data-name="패스 3614" d="M800.533,47.752l13.225,2.795-.324-2.481q-7.75,3.66-15.691,6.892c-.93.378-1.524,1.958-.324,2.481a82.05,82.05,0,0,0,13.526,4.577c1.7.411,2.422-2.207.722-2.618a78.117,78.117,0,0,1-12.878-4.3l-.324,2.481q8.267-3.359,16.34-7.165a1.371,1.371,0,0,0-.324-2.481l-13.225-2.795c-1.7-.36-2.433,2.257-.722,2.618" transform="translate(-616.469 -34.895)" fill="#d3a475"/>
        <path id="패스_3615" data-name="패스 3615" d="M817.684,67c2.846,1.222,5.732,2.335,8.67,3.316,1.661.555,2.373-2.066.722-2.618-2.714-.907-5.392-1.914-8.021-3.043-1.588-.682-2.973,1.657-1.37,2.345" transform="translate(-632.119 -49.931)" fill="#d3a475"/>
        <path id="패스_3616" data-name="패스 3616" d="M269.517,186.6q.567,2.307,1.287,4.571c.4,1.244,2.362.713,1.964-.541q-.72-2.264-1.287-4.571c-.312-1.272-2.277-.733-1.964.541" transform="translate(-208.508 -143.397)" fill="#d3a475"/>
        <path id="패스_3617" data-name="패스 3617" d="M247.159,212.163l-4.782-1.852c-1.223-.474-1.752,1.495-.541,1.964l4.782,1.852c1.223.474,1.752-1.495.541-1.964" transform="translate(-186.587 -162.668)" fill="#d3a475"/>
        <path id="패스_3618" data-name="패스 3618" d="M299.741,201.343l1.293-3.036a1.053,1.053,0,0,0-.365-1.393,1.025,1.025,0,0,0-1.393.365l-1.293,3.037a1.053,1.053,0,0,0,.365,1.393,1.025,1.025,0,0,0,1.393-.365" transform="translate(-230.469 -152.258)" fill="#d3a475"/>
        <path id="패스_3619" data-name="패스 3619" d="M266.672,235.661a17.954,17.954,0,0,0-1.877,4.176c-.383,1.256,1.582,1.793,1.964.541a15.767,15.767,0,0,1,1.671-3.689c.689-1.119-1.072-2.143-1.758-1.028" transform="translate(-204.843 -181.966)" fill="#d3a475"/>
        <path id="패스_3620" data-name="패스 3620" d="M290.819,237.756a13.907,13.907,0,0,0,1.719,4.559c.555,1.186,2.311.153,1.758-1.028a11.458,11.458,0,0,1-1.441-3.532c-.106-1.3-2.143-1.309-2.036,0" transform="translate(-225.013 -183.203)" fill="#d3a475"/>
        <path id="패스_3621" data-name="패스 3621" d="M308.891,227.21a26.443,26.443,0,0,1,3.883.974c1.246.415,1.781-1.551.542-1.964a26.481,26.481,0,0,0-3.883-.974c-1.282-.22-1.833,1.742-.541,1.964" transform="translate(-238.43 -174.267)" fill="#d3a475"/>
        <path id="패스_3622" data-name="패스 3622" d="M664.414,339.252l7.969-1.019c1.282-.164,1.3-2.2,0-2.036l-7.969,1.019c-1.282.164-1.3,2.2,0,2.036" transform="translate(-513.33 -260.12)" fill="#d3a475"/>
        <path id="패스_3623" data-name="패스 3623" d="M653.764,308.185l4-4.943c.818-1.01-.615-2.459-1.44-1.44l-4,4.943c-.818,1.01.615,2.459,1.44,1.44" transform="translate(-504.536 -233.245)" fill="#d3a475"/>
        <path id="패스_3624" data-name="패스 3624" d="M642.007,355.229a52.166,52.166,0,0,1,3,4.751c.639,1.144,2.4.119,1.759-1.028a52.252,52.252,0,0,0-3-4.751c-.752-1.06-2.519-.044-1.758,1.028" transform="translate(-496.598 -273.711)" fill="#d3a475"/>
        <path id="패스_3625" data-name="패스 3625" d="M619.493,355.079a7.109,7.109,0,0,1-1.566,2.319,1.019,1.019,0,0,0,1.44,1.44,9.616,9.616,0,0,0,2.089-3.218,1.025,1.025,0,0,0-.711-1.253,1.043,1.043,0,0,0-1.253.711" transform="translate(-477.881 -274.156)" fill="#d3a475"/>
        <path id="패스_3626" data-name="패스 3626" d="M197.411,703.062l-1.375,5.726s6.473,3.844,35.877,6.067c0,0,4.5.691,15.894,0,0,0,19.2-.76,28.838,10.732,0,0,.436-9.445.624-11.051,0,0-8.866-7.859-30.985-6.234,0,0-25.031,4.85-48.872-5.239" transform="translate(-151.68 -543.983)" fill="#0baef7"/>
        <path id="패스_3627" data-name="패스 3627" d="M645.909,597.2s-4.707-11-15.043-25.4L623.4,560.29s22.993,22.224,22.749,29.569Z" transform="translate(-482.349 -433.515)" fill="#0baef7"/>
        <g id="그룹_5029" data-name="그룹 5029" transform="translate(72.369 77.16)" opacity="0.2">
          <g id="그룹_5028" data-name="그룹 5028">
            <g id="그룹_5027" data-name="그룹 5027" clip-path="url(#clip-path-3)">
              <path id="패스_3628" data-name="패스 3628" d="M330.693,341.014a4.681,4.681,0,0,0,2.844.355s-.92,22.584,13.776,31.6A22.948,22.948,0,0,0,365.73,369.5s-8.926,2.548-8.483,5.176c0,0-61.772-3.094-26.554-33.664" transform="translate(-319.84 -341.014)" fill="#0d0dcc"/>
            </g>
          </g>
        </g>
        <path id="패스_3629" data-name="패스 3629" d="M595.34,249.33c-.483-.31-.984-.594-1.484-.875a19.523,19.523,0,0,0-6.053-2.528,4.008,4.008,0,0,0-1.11-.046.73.73,0,0,0-.338.117c-.12.073-.048-.01-.121.124-.466.857.283,2.6.662,3.541a8.77,8.77,0,0,1,.509,3.9l.211-.119c2.615-1.473,5.964-3.592,9.033-2.875a4.835,4.835,0,0,0-1.309-1.24" transform="translate(-453.475 -190.229)" fill="#fff"/>
      </g>
    </g>
  </g>
</svg>
